<?xml version="1.0" encoding="utf-8"?>
<!-- Generator: Adobe Illustrator 19.2.0, SVG Export Plug-In . SVG Version: 6.00 Build 0)  -->
<svg version="1.1" id="Layer_3" xmlns="http://www.w3.org/2000/svg" xmlns:xlink="http://www.w3.org/1999/xlink" x="0px" y="0px"
	 viewBox="0 0 89 86" style="enable-background:new 0 0 89 86;" xml:space="preserve">
<style type="text/css">
	.st0{fill:#3366CC;}
</style>
<g>
	<path class="st0" d="M78.2,61.1c1.4-1.4,1.4-3.6,0-4.9c-1.4-1.4-3.6-1.4-4.9,0c-6.3,6.3-14.6,9.7-23.5,9.7c0,0,0,0,0,0s0,0,0,0
		c-8.9,0-17.2-3.5-23.5-9.7c-6.3-6.3-9.7-14.6-9.7-23.5c0-8.9,3.5-17.2,9.7-23.5c1.4-1.4,1.4-3.6,0-4.9c-1.4-1.4-3.6-1.4-4.9,0
		C13.8,11.8,9.7,21.9,9.7,32.7c0,10.7,4.2,20.8,11.8,28.4c6.8,6.8,15.5,10.8,24.9,11.6v5h-6.7c-1.9,0-3.5,1.6-3.5,3.5
		c0,1.9,1.6,3.5,3.5,3.5H60c1.9,0,3.5-1.6,3.5-3.5c0-1.9-1.6-3.5-3.5-3.5h-6.7v-5C62.7,71.9,71.5,67.8,78.2,61.1z"/>
	<path class="st0" d="M49.8,61.6c16,0,29-13,29-29c0-16-13-29-29-29c-16,0-29,13-29,29C20.9,48.6,33.9,61.6,49.8,61.6z M49.8,10.6
		c12.1,0,22,9.9,22,22c0,12.1-9.9,22-22,22c-12.1,0-22-9.9-22-22C27.8,20.5,37.7,10.6,49.8,10.6z"/>
</g>
</svg>
