<?xml version="1.0" encoding="utf-8"?>
<!-- Generator: Adobe Illustrator 19.2.0, SVG Export Plug-In . SVG Version: 6.00 Build 0)  -->
<svg version="1.1" id="Layer_3" xmlns="http://www.w3.org/2000/svg" xmlns:xlink="http://www.w3.org/1999/xlink" x="0px" y="0px"
	 viewBox="0 0 89 86" style="enable-background:new 0 0 89 86;" xml:space="preserve">
<style type="text/css">
	.st0{fill:#33CCFF;}
</style>
<g>
	<g>
		<path class="st0" d="M80.8,62.7H5.7c-2,0-3.5-1.6-3.5-3.5V5.7c0-2,1.6-3.5,3.5-3.5h75.1c2,0,3.5,1.6,3.5,3.5v53.5
			C84.3,61.2,82.7,62.7,80.8,62.7L80.8,62.7z M9.2,55.7h68V9.3h-68V55.7L9.2,55.7z"/>
	</g>
	<g>
		<path class="st0" d="M43.2,77.8c-2,0-3.5-1.6-3.5-3.5V61c0-2,1.6-3.5,3.5-3.5c2,0,3.5,1.6,3.5,3.5v13.3
			C46.7,76.2,45.2,77.8,43.2,77.8L43.2,77.8z"/>
	</g>
	<g>
		<path class="st0" d="M60.1,83.1c-0.9,0-1.8-0.3-2.5-1L43.2,67.6L28.8,82c-1.4,1.4-3.6,1.4-5,0c-1.4-1.4-1.4-3.6,0-5l16.9-17
			c1.3-1.3,3.7-1.3,5,0l16.9,17c1.4,1.4,1.4,3.6,0,5C61.9,82.7,61,83.1,60.1,83.1L60.1,83.1z"/>
	</g>
	<g>
		<path class="st0" d="M80.3,18.4H6.1c-1,0-1.8-0.8-1.8-1.8c0-1,0.8-1.8,1.8-1.8h74.2c1,0,1.8,0.8,1.8,1.8
			C82.1,17.6,81.3,18.4,80.3,18.4L80.3,18.4z"/>
	</g>
	<g>
		<g>
			<path class="st0" d="M23.9,52c-2,0-3.5-1.6-3.5-3.5V37.8c0-2,1.6-3.5,3.5-3.5c2,0,3.5,1.6,3.5,3.5v10.6
				C27.4,50.4,25.9,52,23.9,52L23.9,52z"/>
		</g>
		<g>
			<path class="st0" d="M36.8,52c-2,0-3.5-1.6-3.5-3.5V26.3c0-2,1.6-3.5,3.5-3.5c2,0,3.5,1.6,3.5,3.5v22.1
				C40.3,50.4,38.7,52,36.8,52L36.8,52z"/>
		</g>
		<g>
			<path class="st0" d="M49.6,52c-2,0-3.5-1.6-3.5-3.5v-7.1c0-2,1.6-3.5,3.5-3.5c2,0,3.5,1.6,3.5,3.5v7.1C53.2,50.4,51.6,52,49.6,52
				L49.6,52z"/>
		</g>
		<g>
			<path class="st0" d="M62.5,52c-2,0-3.5-1.6-3.5-3.5V30.8c0-2,1.6-3.5,3.5-3.5c2,0,3.5,1.6,3.5,3.5v17.7C66,50.4,64.5,52,62.5,52
				L62.5,52z"/>
		</g>
	</g>
</g>
</svg>
