<?xml version="1.0" encoding="utf-8"?>
<!-- Generator: Adobe Illustrator 19.2.0, SVG Export Plug-In . SVG Version: 6.00 Build 0)  -->
<svg version="1.1" id="Layer_1" xmlns="http://www.w3.org/2000/svg" xmlns:xlink="http://www.w3.org/1999/xlink" x="0px" y="0px"
	 viewBox="0 0 151 278" style="enable-background:new 0 0 151 278;" xml:space="preserve">
<style type="text/css">
	.st0{fill:#82DEFF;}
	.st1{fill:#A9DE41;}
	.st2{opacity:0.72;fill:#C2E73B;}
	.st3{fill:#333333;}
	.st4{fill:#B97850;}
	.st5{fill:#A5694B;}
	.st6{fill:#A7A5AC;}
	.st7{fill:#736F7B;}
	.st8{fill:#2568B3;}
	.st9{fill:#999999;}
	.st10{fill:#3ACBFF;}
</style>
<g>
	<path class="st0" d="M24.5,152.5c0,0,6.2,7.6,21.8,6.6l64.9-5.2c0,0,12.3-0.5,19.9-11.8c7.6-11.3,7.6-19.8,7.6-27.9
		c0-6.8-0.3-53.9-0.4-67.6c0-1.9,0-3.7,0.1-5.6c0.2-4.7-0.8-16-8.6-21.8c-5.7-4.2-16.6-6.1-29.3-4.7s-56.3,9.9-56.3,9.9l-25.6,81.3
		l-1.9,2.4l0.5,23.2C17,131.2,17.4,146.8,24.5,152.5z"/>
	<path class="st1" d="M73,130.1c-18.8,0.6-39.8-5.7-53.3-19.1c-5.6-5.5-9.7-12.3-12.3-19.7c-3.6-10.1-3.7-20.1,0.7-30
		c1.7-3.7,3.8-7.3,6.4-10.5c1-1.3,3.1-2.8,3.8-4.3c0.8-1.7,0.7-4.5,1.2-6.4c2.6-11.6,8.3-23.4,18.3-30.4c11-7.6,25.7-7.7,37.4-1.7
		c4.4,2.3,7.8,5.4,11,9.2c1.3,1.6,2.9,0.9,5,1c9.4,0.4,19,3.3,26.4,9.2c4.1,3.2,7,7.3,8.8,12.2c0.9,2.5,1,5.5,1.9,7.9
		c0.5,1.1,1.6,2.2,2.3,3.2c2.1,3,3.9,6.2,5.5,9.5c4.3,9.1,6.3,19.6,3.6,29.5c-1.4,5.2-4.3,9.9-7.7,14.1
		c-10.5,13.1-25.9,21.7-42.2,24.9C84.3,129.6,78.6,130.1,73,130.1z"/>
	<path class="st2" d="M81.9,126.7c-18.8,0.5-39.8-5.4-53.3-18.3c-5.6-5.3-9.7-11.8-12.3-18.9c-3.6-9.7-3.7-19.3,0.7-28.7
		c1.7-3.6,3.8-7,6.4-10c1-1.3,3.1-2.7,3.8-4.1c0.8-1.6,0.7-4.3,1.2-6.1c2.6-11.1,8.3-22.4,18.3-29.1c11-7.2,25.7-7.4,37.4-1.6
		c4.4,2.2,7.8,5.2,11,8.8c1.3,1.5,2.9,0.9,5,1c9.4,0.3,19,3.2,26.4,8.8c4.1,3.1,7,7,8.8,11.6c0.9,2.4,1,5.3,1.9,7.6
		c0.5,1.1,1.6,2.1,2.3,3c2.1,2.9,3.9,5.9,5.5,9.1c4.3,8.7,6.3,18.7,3.6,28.2c-1.4,5-4.3,9.5-7.7,13.5
		c-10.5,12.6-25.9,20.8-42.2,23.8C93.2,126.3,87.6,126.8,81.9,126.7z"/>
	<path class="st3" d="M104,159.2c-6.6,0-12-5.4-12-12s5.4-12,12-12c6.6,0,12,5.4,12,12S110.6,159.2,104,159.2z M104,140.7
		c-3.5,0-6.4,2.9-6.4,6.4s2.9,6.4,6.4,6.4c3.5,0,6.4-2.9,6.4-6.4S107.5,140.7,104,140.7z"/>
	<path class="st4" d="M92.6,53.4c-0.7-1.6-2.5-2.4-4.1-1.7c-10.8,4.4-17.8,14.8-17.8,26.5v9.5c0,1.8,1.4,3.2,3.2,3.2l0,0
		c1.8,0,3.2-1.4,3.2-3.2V75.8c0-8.5,6-15,13.9-18.2C92.5,56.9,93.3,55.1,92.6,53.4z"/>
	<path class="st5" d="M73.8,125.7c-1.8,0-3.2-1.4-3.2-3.2V85.8c0-7.9-4.3-15.3-11.1-19.2c-1.5-0.9-2-2.8-1.2-4.3
		c0.9-1.5,2.8-2,4.3-1.2C71.5,66.2,77,75.7,77,85.8v36.7C77,124.3,75.5,125.7,73.8,125.7z"/>
	<path class="st4" d="M73.8,132.1c-1.8,0-3.2-1.4-3.2-3.2v-9.5c0-28,22.8-50.7,50.7-50.7c1.8,0,3.2,1.4,3.2,3.2s-1.4,3.2-3.2,3.2
		C96.9,75,77,94.9,77,119.4v9.5C77,130.7,75.5,132.1,73.8,132.1z"/>
	<path class="st5" d="M83.7,163.8L83.7,163.8c-1.8,0-3.2-1.4-3.2-3.2v-31.7c0-18.9-10.4-36.1-27.1-44.9c-1.6-0.8-5.6-0.9-6.4,0.6
		c-0.8,1.5-1.7,4.2-0.1,5C61.5,97.3,67,112.4,67,128.9v31.7c0,1.8-1.4,3.2-3.2,3.2l0,0c-1.8,0-3.2,1.4-3.2,3.2
		c0,1.8,1.4,3.2,3.2,3.2h19.9c1.8,0,3.2-1.4,3.2-3.2C86.9,165.2,85.5,163.8,83.7,163.8z"/>
	<g>
		<rect x="100.8" y="72.2" class="st6" width="6.3" height="66.6"/>
	</g>
	<g>
		<path class="st7" d="M104,81.8c-1.8,0-3.2-1.4-3.2-3.2v-6.3c0-1.8,1.4-3.2,3.2-3.2c1.8,0,3.2,1.4,3.2,3.2v6.3
			C107.1,80.3,105.7,81.8,104,81.8z"/>
	</g>
	<g>
		<path class="st7" d="M104,141.8c-1.8,0-3.2-0.7-3.2-1.6V137c0-0.9,1.4-1.6,3.2-1.6c1.8,0,3.2,0.7,3.2,1.6v3.2
			C107.1,141,105.7,141.8,104,141.8z"/>
	</g>
	<path class="st1" d="M45.9,43h9c0,0,7.2-25.8,47.9-23.6C102.8,19.4,63.4,7,45.9,43z"/>
	<g>
		<path class="st8" d="M13.1,238c-0.4,0.4-1,0.7-1.7,0.7c-0.7,0-1.3-0.2-1.7-0.7c-0.4-0.4-0.6-1-0.6-1.8v-23c0-0.7,0.2-1.3,0.6-1.8
			c0.4-0.4,1-0.7,1.7-0.7c1.3,0,2.1,0.7,2.3,2.1h0c1.1-1.6,2.9-2.4,5.4-2.4c1.7,0,3.1,0.4,4.3,1.3c1.2,0.9,2,2.1,2.6,3.7
			c0.5,1.4,0.7,3.2,0.7,5.4c0,2.2-0.2,4-0.7,5.4c-0.5,1.6-1.4,2.8-2.6,3.7c-1.2,0.9-2.6,1.3-4.3,1.3c-2.5,0-4.3-0.8-5.4-2.4h0v7.1
			C13.7,237,13.5,237.6,13.1,238z M17.9,227.4c1.9,0,3.1-0.9,3.7-2.7c0.3-0.8,0.4-2,0.4-3.6s-0.1-2.8-0.4-3.6
			c-0.6-1.8-1.8-2.7-3.7-2.7c-1.9,0-3.2,0.9-3.7,2.7c-0.3,0.8-0.4,2-0.4,3.6s0.1,2.8,0.4,3.6C14.7,226.5,16,227.4,17.9,227.4z"/>
		<path class="st8" d="M34.3,213.4c0.5-0.8,1.1-1.5,2-2c0.9-0.5,1.9-0.8,3-0.8c0.9,0,1.8,0.2,2.5,0.5c0.8,0.4,1.2,1.1,1.2,1.9
			c0,0.7-0.2,1.3-0.6,1.7c-0.4,0.4-1,0.7-1.7,0.7c-0.3,0-0.7-0.1-1.1-0.2c-0.8-0.2-1.4-0.3-1.9-0.3c-2.4,0-3.6,1.7-3.6,5.1v8.9
			c0,0.7-0.2,1.3-0.6,1.8c-0.4,0.4-1,0.7-1.7,0.7c-0.7,0-1.3-0.2-1.7-0.7c-0.4-0.4-0.6-1-0.6-1.8v-15.5c0-0.7,0.2-1.3,0.6-1.8
			c0.4-0.4,1-0.7,1.7-0.7c0.7,0,1.3,0.2,1.7,0.7C34.1,212,34.3,212.6,34.3,213.4L34.3,213.4L34.3,213.4z"/>
		<path class="st8" d="M45.3,207.2c-0.5-0.5-0.8-1.2-0.8-2c0-0.8,0.3-1.4,0.8-2c0.5-0.5,1.2-0.8,2-0.8c0.8,0,1.4,0.3,2,0.8
			c0.5,0.5,0.8,1.2,0.8,2c0,0.8-0.3,1.4-0.8,2c-0.5,0.5-1.2,0.8-2,0.8C46.5,208,45.9,207.8,45.3,207.2z M49,230.6
			c-0.4,0.4-1,0.7-1.7,0.7c-0.7,0-1.3-0.2-1.7-0.7c-0.4-0.4-0.6-1-0.6-1.8v-15.5c0-0.7,0.2-1.3,0.6-1.8c0.4-0.4,1-0.7,1.7-0.7
			c0.7,0,1.3,0.2,1.7,0.7c0.4,0.4,0.6,1,0.6,1.8v15.5C49.6,229.6,49.4,230.1,49,230.6z"/>
		<path class="st8" d="M53.6,228.8v-15.5c0-0.7,0.2-1.3,0.6-1.8c0.4-0.4,1-0.7,1.7-0.7c1.3,0,2.1,0.7,2.3,2.1h0
			c1.1-1.5,2.8-2.3,5.3-2.3c2.4,0,4.2,0.9,5.5,2.7h0c1.6-1.8,3.8-2.7,6.4-2.7c2.3,0,4,0.7,5.3,2.1c1.3,1.4,1.9,3.2,1.9,5.3v10.8
			c0,0.7-0.2,1.3-0.6,1.8c-0.4,0.4-1,0.7-1.7,0.7c-0.7,0-1.3-0.2-1.7-0.7c-0.4-0.4-0.6-1-0.6-1.8v-9.7c0-1.3-0.3-2.4-1-3.2
			c-0.6-0.8-1.6-1.2-2.8-1.2c-1.2,0-2.1,0.4-2.8,1.2c-0.7,0.8-1,1.9-1,3.2v9.7c0,0.7-0.2,1.3-0.6,1.8c-0.4,0.4-1,0.7-1.7,0.7
			c-0.7,0-1.3-0.2-1.7-0.7c-0.4-0.4-0.6-1-0.6-1.8v-9.7c0-1.3-0.3-2.4-1-3.2c-0.6-0.8-1.6-1.2-2.8-1.2c-1.2,0-2.1,0.4-2.8,1.2
			c-0.7,0.8-1,1.9-1,3.2v9.7c0,0.7-0.2,1.3-0.6,1.8c-0.4,0.4-1,0.7-1.7,0.7c-0.7,0-1.3-0.2-1.7-0.7
			C53.8,230.1,53.6,229.6,53.6,228.8z"/>
		<path class="st8" d="M94.5,231.5c-2.1,0-3.9-0.5-5.4-1.5c-1.5-1-2.5-2.3-3-4.1c-0.5-1.5-0.7-3.1-0.7-4.9c0-1.9,0.2-3.6,0.7-4.9
			c0.6-1.7,1.6-3.1,3-4.1c1.5-1,3.2-1.5,5.2-1.5c2,0,3.8,0.5,5.2,1.5c1.4,1,2.4,2.3,3,4c0.4,1.4,0.7,3,0.7,4.8
			c0,0.5-0.1,0.9-0.4,1.2c-0.3,0.3-0.7,0.4-1.2,0.4H90.3c-0.2,0-0.2,0.1-0.2,0.2c0,0.5,0.1,1,0.3,1.5c0.7,2,2.2,3,4.5,3
			c1.4,0,2.7-0.5,4.1-1.4c0.6-0.4,1.2-0.7,1.7-0.7c0.6,0,1,0.2,1.4,0.5c0.4,0.4,0.5,0.8,0.5,1.4c0,0.7-0.3,1.3-1,1.8
			C99.7,230.7,97.3,231.5,94.5,231.5z M98.4,218.8c0-0.6-0.1-1.2-0.2-1.7c-0.3-0.8-0.8-1.4-1.5-1.9c-0.7-0.5-1.5-0.7-2.4-0.7
			c-2,0-3.4,0.9-3.9,2.6c-0.2,0.5-0.2,1.1-0.2,1.7c0,0.2,0.1,0.2,0.2,0.2h7.8C98.3,219.1,98.4,219,98.4,218.8z"/>
		<path class="st8" d="M106.3,207.2c-0.5-0.5-0.8-1.2-0.8-2c0-0.8,0.3-1.4,0.8-2c0.5-0.5,1.2-0.8,2-0.8c0.8,0,1.4,0.3,2,0.8
			c0.5,0.5,0.8,1.2,0.8,2c0,0.8-0.3,1.4-0.8,2c-0.5,0.5-1.2,0.8-2,0.8C107.5,208,106.9,207.8,106.3,207.2z M110,230.6
			c-0.4,0.4-1,0.7-1.7,0.7c-0.7,0-1.3-0.2-1.7-0.7c-0.4-0.4-0.6-1-0.6-1.8v-15.5c0-0.7,0.2-1.3,0.6-1.8c0.4-0.4,1-0.7,1.7-0.7
			c0.7,0,1.3,0.2,1.7,0.7c0.4,0.4,0.6,1,0.6,1.8v15.5C110.6,229.6,110.4,230.1,110,230.6z"/>
		<path class="st8" d="M119.3,213.4c0.5-0.8,1.1-1.5,2-2c0.9-0.5,1.9-0.8,3-0.8c0.9,0,1.8,0.2,2.5,0.5c0.8,0.4,1.2,1.1,1.2,1.9
			c0,0.7-0.2,1.3-0.6,1.7c-0.4,0.4-1,0.7-1.7,0.7c-0.3,0-0.7-0.1-1.1-0.2c-0.8-0.2-1.4-0.3-1.9-0.3c-2.4,0-3.6,1.7-3.6,5.1v8.9
			c0,0.7-0.2,1.3-0.6,1.8c-0.4,0.4-1,0.7-1.7,0.7c-0.7,0-1.3-0.2-1.7-0.7c-0.4-0.4-0.6-1-0.6-1.8v-15.5c0-0.7,0.2-1.3,0.6-1.8
			c0.4-0.4,1-0.7,1.7-0.7c0.7,0,1.3,0.2,1.7,0.7C119,212,119.3,212.6,119.3,213.4L119.3,213.4L119.3,213.4z"/>
		<path class="st8" d="M146,227.7c0.2,0.4,0.4,0.9,0.4,1.4c0,0.6-0.2,1.1-0.7,1.5c-0.4,0.4-1,0.6-1.7,0.6c-0.9,0-1.5-0.3-1.9-1
			l-0.7-1h0c-1.2,1.5-3.2,2.2-5.9,2.2c-2.4,0-4.1-0.5-5.4-1.6c-1.2-1.1-1.9-2.5-1.9-4.5c0-2.1,0.7-3.7,2.1-4.8
			c1.4-1.1,3.4-1.6,5.9-1.6h4.1c0.2,0,0.2-0.1,0.2-0.2v-0.5c0-2.5-1.5-3.7-4.5-3.7c-1.3,0-2.5,0.3-3.6,0.8c-0.4,0.2-0.8,0.2-1.2,0.2
			c-0.6,0-1-0.2-1.4-0.5c-0.4-0.3-0.5-0.8-0.5-1.4c0-0.8,0.4-1.4,1.2-1.8c1.6-0.9,3.6-1.4,6.1-1.4c2.8,0,4.9,0.7,6.3,2
			c1.4,1.3,2.1,3.2,2.1,5.8v6.3c0,0.8,0.1,1.5,0.4,2L146,227.7z M136.2,227.7c1.4,0,2.5-0.3,3.2-0.8c0.8-0.5,1.2-1.3,1.2-2.3v-1.8
			c0-0.2-0.1-0.2-0.2-0.2H137c-1.5,0-2.6,0.2-3.3,0.7c-0.7,0.4-1,1.1-1,2C132.7,226.9,133.9,227.7,136.2,227.7z"/>
	</g>
	<g>
		<path class="st9" d="M7.5,191.1c0-1.4,0.1-2.5,0.3-3.2c0.3-0.9,0.8-1.6,1.5-2.1c0.7-0.5,1.6-0.7,2.6-0.7s1.9,0.2,2.6,0.7
			c0.7,0.5,1.2,1.2,1.5,2.1c0.2,0.7,0.3,1.8,0.3,3.2c0,1.4-0.1,2.5-0.3,3.2c-0.3,0.9-0.8,1.6-1.5,2.1c-0.7,0.5-1.6,0.7-2.6,0.7
			s-1.9-0.2-2.6-0.7c-0.7-0.5-1.2-1.2-1.5-2.1C7.6,193.6,7.5,192.5,7.5,191.1z M14.2,191.1c0-1.3-0.1-2.2-0.2-2.7
			c-0.3-1-1-1.5-2.1-1.5c-1.1,0-1.8,0.5-2.1,1.5c-0.2,0.5-0.2,1.4-0.2,2.7c0,1.3,0.1,2.2,0.2,2.7c0.3,1,1,1.5,2.1,1.5
			c1.1,0,1.8-0.5,2.1-1.5C14.2,193.3,14.2,192.4,14.2,191.1z"/>
		<path class="st9" d="M18.5,196v-9.8c0-0.3,0.1-0.5,0.2-0.7c0.2-0.2,0.4-0.2,0.7-0.2H23c1.2,0,2.1,0.3,2.7,0.8
			c0.6,0.6,0.9,1.3,0.9,2.2c0,1.2-0.5,2-1.4,2.5v0c0.4,0.2,0.8,0.5,1.1,1c0.3,0.5,0.4,1,0.4,1.7c0,1.1-0.3,1.9-1,2.5
			c-0.7,0.6-1.6,0.9-2.9,0.9h-3.5c-0.3,0-0.5-0.1-0.7-0.2C18.6,196.5,18.5,196.3,18.5,196z M20.6,190.1H23c0.5,0,0.9-0.1,1.2-0.4
			c0.3-0.3,0.4-0.6,0.4-1.1c0-0.5-0.1-0.8-0.4-1.1c-0.3-0.3-0.7-0.4-1.2-0.4h-2.3c-0.1,0-0.1,0-0.1,0.1v2.9
			C20.5,190.1,20.6,190.1,20.6,190.1z M20.5,195c0,0.1,0,0.1,0.1,0.1h2.4c0.6,0,1-0.1,1.3-0.4c0.3-0.3,0.5-0.7,0.5-1.2
			c0-0.5-0.2-0.9-0.5-1.2c-0.3-0.3-0.7-0.4-1.3-0.4h-2.4c-0.1,0-0.1,0-0.1,0.1V195z"/>
		<path class="st9" d="M32.5,197.1c-1.3,0-2.6-0.3-3.6-1c-0.3-0.2-0.5-0.5-0.5-0.9c0-0.3,0.1-0.5,0.3-0.6c0.2-0.2,0.4-0.3,0.7-0.3
			c0.2,0,0.4,0.1,0.6,0.2c0.9,0.6,1.8,0.8,2.7,0.8c0.7,0,1.3-0.2,1.7-0.5c0.4-0.3,0.6-0.7,0.6-1.2c0-0.4-0.2-0.8-0.5-1.1
			c-0.3-0.3-0.9-0.4-1.6-0.5l-0.6-0.1c-2.3-0.3-3.5-1.4-3.5-3.3c0-1,0.4-1.9,1.1-2.5c0.7-0.6,1.7-1,2.8-1c1.3,0,2.4,0.3,3.2,0.8
			c0.3,0.2,0.5,0.5,0.5,0.8c0,0.3-0.1,0.5-0.2,0.6s-0.4,0.2-0.6,0.2c-0.2,0-0.4-0.1-0.6-0.2c-0.7-0.4-1.5-0.5-2.2-0.5
			c-0.6,0-1,0.1-1.4,0.4c-0.3,0.3-0.5,0.7-0.5,1.1c0,0.4,0.2,0.8,0.5,1s0.9,0.4,1.6,0.5l0.6,0.1c2.3,0.3,3.5,1.5,3.5,3.4
			c0,1.1-0.4,1.9-1.1,2.6C35,196.8,33.9,197.1,32.5,197.1z"/>
		<path class="st9" d="M38.9,196v-9.8c0-0.3,0.1-0.5,0.2-0.7c0.2-0.2,0.4-0.2,0.7-0.2h5.8c0.3,0,0.6,0.1,0.7,0.2
			c0.2,0.2,0.3,0.4,0.3,0.7c0,0.3-0.1,0.5-0.3,0.7c-0.2,0.2-0.4,0.2-0.7,0.2h-4.6c-0.1,0-0.1,0-0.1,0.1v2.8c0,0.1,0,0.1,0.1,0.1h3.7
			c0.3,0,0.6,0.1,0.7,0.2c0.2,0.2,0.3,0.4,0.3,0.7c0,0.3-0.1,0.5-0.3,0.7c-0.2,0.2-0.4,0.2-0.7,0.2h-3.7c-0.1,0-0.1,0-0.1,0.1v2.9
			c0,0.1,0,0.1,0.1,0.1h4.6c0.3,0,0.6,0.1,0.7,0.2c0.2,0.2,0.3,0.4,0.3,0.7s-0.1,0.5-0.3,0.7c-0.2,0.2-0.4,0.2-0.7,0.2h-5.8
			c-0.3,0-0.5-0.1-0.7-0.2C39,196.5,38.9,196.3,38.9,196z"/>
		<path class="st9" d="M56.1,197c-0.4,0-0.8-0.2-1-0.6l-2.1-4.2h-2.2c-0.1,0-0.1,0-0.1,0.1v3.6c0,0.3-0.1,0.6-0.3,0.8
			c-0.2,0.2-0.4,0.3-0.7,0.3c-0.3,0-0.5-0.1-0.7-0.3c-0.2-0.2-0.3-0.4-0.3-0.8v-9.7c0-0.3,0.1-0.5,0.2-0.7c0.2-0.2,0.4-0.2,0.7-0.2
			h3.8c1.1,0,2,0.3,2.7,1c0.7,0.6,1.1,1.5,1.1,2.5c0,0.7-0.2,1.4-0.6,1.9c-0.4,0.5-0.9,1-1.5,1.2l1.9,3.5c0.1,0.2,0.2,0.4,0.2,0.6
			c0,0.3-0.1,0.5-0.3,0.7C56.6,196.9,56.4,197,56.1,197z M53.3,190.4c0.5,0,1-0.2,1.3-0.5c0.3-0.3,0.5-0.7,0.5-1.2
			c0-0.5-0.2-0.9-0.5-1.2c-0.3-0.3-0.8-0.5-1.3-0.5h-2.5c-0.1,0-0.1,0-0.1,0.1v3.1c0,0.1,0,0.1,0.1,0.1H53.3z"/>
		<path class="st9" d="M62.7,197c-0.6,0-1-0.4-1.2-1.2l-3.2-9.3c0-0.1-0.1-0.3-0.1-0.4c0-0.3,0.1-0.5,0.3-0.7
			c0.2-0.2,0.4-0.3,0.7-0.3c0.5,0,0.8,0.3,1,0.8l2.5,7.8h0.1l2.4-7.8c0.2-0.5,0.5-0.8,1-0.8c0.3,0,0.5,0.1,0.7,0.3
			c0.2,0.2,0.3,0.4,0.3,0.7c0,0.1,0,0.2-0.1,0.4l-3.2,9.3C63.7,196.6,63.2,197,62.7,197z"/>
		<path class="st9" d="M67.3,196c0-0.1,0-0.2,0.1-0.4l3.4-9.3c0.3-0.8,0.7-1.1,1.3-1.1c0.6,0,1.1,0.4,1.4,1.1l3.4,9.3
			c0,0.1,0.1,0.3,0.1,0.4c0,0.3-0.1,0.5-0.3,0.7c-0.2,0.2-0.4,0.3-0.7,0.3c-0.5,0-0.8-0.2-1-0.7l-0.6-1.8h-4.4l-0.6,1.8
			c-0.2,0.5-0.5,0.7-1,0.7c-0.3,0-0.5-0.1-0.7-0.3C67.4,196.6,67.3,196.3,67.3,196z M70.5,192.7h3.2l-1.6-4.5H72L70.5,192.7z"/>
		<path class="st9" d="M79.7,187.1h-2.3c-0.3,0-0.6-0.1-0.7-0.2c-0.2-0.2-0.3-0.4-0.3-0.7c0-0.3,0.1-0.5,0.3-0.7
			c0.2-0.2,0.4-0.2,0.7-0.2h6.8c0.3,0,0.6,0.1,0.7,0.2c0.2,0.2,0.3,0.4,0.3,0.7c0,0.3-0.1,0.5-0.3,0.7c-0.2,0.2-0.4,0.2-0.7,0.2
			h-2.3c-0.1,0-0.1,0-0.1,0.1v8.7c0,0.3-0.1,0.6-0.3,0.8c-0.2,0.2-0.4,0.3-0.7,0.3c-0.3,0-0.5-0.1-0.7-0.3c-0.2-0.2-0.3-0.4-0.3-0.8
			v-8.7C79.8,187.1,79.8,187.1,79.7,187.1z"/>
		<path class="st9" d="M86,191.1c0-1.4,0.1-2.5,0.3-3.2c0.3-0.9,0.8-1.6,1.5-2.1c0.7-0.5,1.6-0.7,2.6-0.7s1.9,0.2,2.6,0.7
			c0.7,0.5,1.2,1.2,1.5,2.1c0.2,0.7,0.3,1.8,0.3,3.2c0,1.4-0.1,2.5-0.3,3.2c-0.3,0.9-0.8,1.6-1.5,2.1c-0.7,0.5-1.6,0.7-2.6,0.7
			s-1.9-0.2-2.6-0.7c-0.7-0.5-1.2-1.2-1.5-2.1C86.2,193.6,86,192.5,86,191.1z M92.8,191.1c0-1.3-0.1-2.2-0.2-2.7
			c-0.3-1-1-1.5-2.1-1.5c-1.1,0-1.8,0.5-2.1,1.5c-0.2,0.5-0.2,1.4-0.2,2.7c0,1.3,0.1,2.2,0.2,2.7c0.3,1,1,1.5,2.1,1.5
			c1.1,0,1.8-0.5,2.1-1.5C92.8,193.3,92.8,192.4,92.8,191.1z M89.9,182.8l1-1.1c0.2-0.2,0.4-0.3,0.6-0.3c0.2,0,0.4,0.1,0.5,0.2
			c0.1,0.1,0.2,0.3,0.2,0.5c0,0.2-0.1,0.4-0.2,0.6l-1,1.1c-0.2,0.2-0.4,0.3-0.6,0.3c-0.2,0-0.4-0.1-0.5-0.2s-0.2-0.3-0.2-0.5
			C89.7,183.2,89.8,183,89.9,182.8z"/>
		<path class="st9" d="M104.5,197c-0.4,0-0.8-0.2-1-0.6l-2.1-4.2h-2.2c-0.1,0-0.1,0-0.1,0.1v3.6c0,0.3-0.1,0.6-0.3,0.8
			c-0.2,0.2-0.4,0.3-0.7,0.3s-0.5-0.1-0.7-0.3c-0.2-0.2-0.3-0.4-0.3-0.8v-9.7c0-0.3,0.1-0.5,0.2-0.7c0.2-0.2,0.4-0.2,0.7-0.2h3.8
			c1.1,0,2,0.3,2.7,1c0.7,0.6,1.1,1.5,1.1,2.5c0,0.7-0.2,1.4-0.6,1.9c-0.4,0.5-0.9,1-1.5,1.2l1.9,3.5c0.1,0.2,0.2,0.4,0.2,0.6
			c0,0.3-0.1,0.5-0.3,0.7C105,196.9,104.8,197,104.5,197z M101.7,190.4c0.5,0,1-0.2,1.3-0.5c0.3-0.3,0.5-0.7,0.5-1.2
			c0-0.5-0.2-0.9-0.5-1.2c-0.3-0.3-0.8-0.5-1.3-0.5h-2.5c-0.1,0-0.1,0-0.1,0.1v3.1c0,0.1,0,0.1,0.1,0.1H101.7z"/>
		<path class="st9" d="M107.7,195.9v-9.7c0-0.3,0.1-0.6,0.3-0.8c0.2-0.2,0.4-0.3,0.7-0.3s0.5,0.1,0.7,0.3c0.2,0.2,0.3,0.5,0.3,0.8
			v9.7c0,0.3-0.1,0.6-0.3,0.8c-0.2,0.2-0.4,0.3-0.7,0.3s-0.5-0.1-0.7-0.3C107.8,196.5,107.7,196.2,107.7,195.9z"/>
		<path class="st9" d="M111.9,191.1c0-1.4,0.1-2.5,0.3-3.2c0.3-0.9,0.8-1.6,1.5-2.1c0.7-0.5,1.6-0.7,2.6-0.7c1,0,1.9,0.2,2.6,0.7
			c0.7,0.5,1.2,1.2,1.5,2.1c0.2,0.7,0.3,1.8,0.3,3.2c0,1.4-0.1,2.5-0.3,3.2c-0.3,0.9-0.8,1.6-1.5,2.1c-0.7,0.5-1.6,0.7-2.6,0.7
			c-1,0-1.9-0.2-2.6-0.7c-0.7-0.5-1.2-1.2-1.5-2.1C112.1,193.6,111.9,192.5,111.9,191.1z M118.7,191.1c0-1.3-0.1-2.2-0.2-2.7
			c-0.3-1-1-1.5-2.1-1.5c-1.1,0-1.8,0.5-2.1,1.5c-0.2,0.5-0.2,1.4-0.2,2.7c0,1.3,0.1,2.2,0.2,2.7c0.3,1,1,1.5,2.1,1.5
			c1.1,0,1.8-0.5,2.1-1.5C118.7,193.3,118.7,192.4,118.7,191.1z"/>
		<path class="st9" d="M127.1,196v-9.8c0-0.3,0.1-0.5,0.2-0.7c0.2-0.2,0.4-0.2,0.7-0.2h2.9c2.3,0,3.8,0.9,4.4,2.7
			c0.2,0.7,0.3,1.8,0.3,3.1c0,1.4-0.1,2.4-0.3,3.1c-0.6,1.8-2,2.7-4.4,2.7H128c-0.3,0-0.5-0.1-0.7-0.2
			C127.2,196.5,127.1,196.3,127.1,196z M129.1,195c0,0.1,0,0.1,0.1,0.1h1.5c1.4,0,2.2-0.5,2.6-1.6c0.1-0.5,0.2-1.3,0.2-2.4
			c0-1.1-0.1-1.9-0.2-2.4c-0.3-1-1.2-1.6-2.6-1.6h-1.5c-0.1,0-0.1,0-0.1,0.1V195z"/>
		<path class="st9" d="M136.8,196c0-0.1,0-0.2,0.1-0.4l3.4-9.3c0.3-0.8,0.7-1.1,1.3-1.1c0.6,0,1.1,0.4,1.4,1.1l3.4,9.3
			c0,0.1,0.1,0.3,0.1,0.4c0,0.3-0.1,0.5-0.3,0.7c-0.2,0.2-0.4,0.3-0.7,0.3c-0.5,0-0.8-0.2-1-0.7l-0.6-1.8h-4.4l-0.6,1.8
			c-0.2,0.5-0.5,0.7-1,0.7c-0.3,0-0.5-0.1-0.7-0.3C136.9,196.6,136.8,196.3,136.8,196z M140,192.7h3.2l-1.6-4.5h-0.1L140,192.7z"/>
	</g>
	<g>
		<path class="st10" d="M10.2,246.8c-0.6-0.6-0.9-1.3-0.9-2.2c0-0.9,0.3-1.6,0.9-2.2s1.3-0.9,2.2-0.9c0.9,0,1.6,0.3,2.2,0.9
			c0.6,0.6,0.9,1.3,0.9,2.2c0,0.9-0.3,1.6-0.9,2.2c-0.6,0.6-1.3,0.9-2.2,0.9C11.5,247.7,10.8,247.4,10.2,246.8z M14.2,272.5
			c-0.5,0.5-1.1,0.7-1.8,0.7s-1.4-0.2-1.8-0.7c-0.5-0.5-0.7-1.1-0.7-2v-17.1c0-0.8,0.2-1.5,0.7-2c0.5-0.5,1.1-0.7,1.8-0.7
			s1.4,0.2,1.8,0.7c0.5,0.5,0.7,1.1,0.7,2v17.1C15,271.4,14.7,272,14.2,272.5z"/>
		<path class="st10" d="M24.4,253.1L24.4,253.1c1.3-1.7,3.2-2.6,5.8-2.6c2.3,0,4.2,0.8,5.5,2.3c1.4,1.5,2.1,3.5,2.1,5.9v11.9
			c0,0.8-0.2,1.5-0.7,2c-0.5,0.5-1.1,0.7-1.8,0.7s-1.4-0.2-1.8-0.7c-0.5-0.5-0.7-1.1-0.7-2v-10.7c0-1.5-0.4-2.6-1.1-3.5
			c-0.7-0.9-1.7-1.3-3.1-1.3c-1.3,0-2.3,0.4-3.1,1.3c-0.7,0.9-1.1,2-1.1,3.5v10.7c0,0.8-0.2,1.5-0.7,2c-0.5,0.5-1.1,0.7-1.8,0.7
			s-1.4-0.2-1.8-0.7c-0.5-0.5-0.7-1.1-0.7-2v-17.1c0-0.8,0.2-1.5,0.7-2c0.5-0.5,1.1-0.7,1.8-0.7C23.3,250.8,24.2,251.6,24.4,253.1z"
			/>
		<path class="st10" d="M50,242h0.2c0.8,0,1.4,0.2,1.9,0.6s0.7,1,0.7,1.7c0,0.7-0.2,1.2-0.7,1.6c-0.4,0.4-1,0.6-1.7,0.6
			c-1,0-1.7,0.2-2.1,0.5c-0.4,0.4-0.5,1.1-0.5,2.1v1.6c0,0.2,0.1,0.3,0.3,0.3h2.5c0.6,0,1.1,0.2,1.5,0.5c0.4,0.4,0.6,0.9,0.6,1.5
			c0,0.6-0.2,1.1-0.6,1.4c-0.4,0.3-0.9,0.5-1.5,0.5h-2.5c-0.2,0-0.3,0.1-0.3,0.3v15.3c0,0.8-0.2,1.5-0.7,2c-0.5,0.5-1.1,0.7-1.8,0.7
			c-0.8,0-1.4-0.2-1.8-0.7c-0.5-0.5-0.7-1.1-0.7-2v-15.3c0-0.2-0.1-0.3-0.3-0.3h-0.7c-0.6,0-1.1-0.2-1.5-0.5
			c-0.4-0.3-0.6-0.8-0.6-1.4c0-0.6,0.2-1.1,0.6-1.5c0.4-0.4,0.9-0.5,1.5-0.5h0.7c0.2,0,0.3-0.1,0.3-0.3v-1.5c0-2.6,0.6-4.5,1.7-5.6
			C45.6,242.6,47.5,242,50,242z"/>
		<path class="st10" d="M73.3,269.4c0.3,0.5,0.4,1,0.4,1.5c0,0.7-0.2,1.2-0.7,1.7c-0.5,0.5-1.1,0.7-1.8,0.7c-0.9,0-1.7-0.3-2.1-1
			l-0.7-1.1h0c-1.4,1.6-3.5,2.4-6.5,2.4c-2.6,0-4.6-0.6-5.9-1.7c-1.4-1.2-2.1-2.8-2.1-4.9c0-2.3,0.8-4.1,2.3-5.2
			c1.5-1.2,3.7-1.8,6.5-1.8h4.5c0.2,0,0.3-0.1,0.3-0.3V259c0-2.7-1.6-4.1-4.9-4.1c-1.4,0-2.7,0.3-4,0.9c-0.5,0.2-0.9,0.3-1.3,0.3
			c-0.6,0-1.1-0.2-1.5-0.6c-0.4-0.4-0.6-0.9-0.6-1.5c0-0.9,0.4-1.6,1.3-2c1.7-1,4-1.5,6.7-1.5c3.1,0,5.4,0.7,6.9,2.2
			c1.5,1.5,2.3,3.6,2.3,6.3v6.9c0,0.9,0.2,1.6,0.5,2.2L73.3,269.4z M67.8,248.3c-0.5,0-1-0.2-1.5-0.7l-2.9-3.1h-0.1l-2.9,3.1
			c-0.5,0.5-0.9,0.7-1.5,0.7c-0.4,0-0.8-0.1-1.1-0.4c-0.3-0.3-0.5-0.6-0.5-1.1c0-0.4,0.2-0.9,0.5-1.3l2.9-3.5c0.8-1,1.7-1.5,2.5-1.5
			c0.9,0,1.7,0.5,2.5,1.5l2.9,3.5c0.4,0.5,0.5,0.9,0.5,1.3c0,0.4-0.2,0.8-0.5,1.1C68.6,248.1,68.2,248.3,67.8,248.3z M62.5,269.4
			c1.5,0,2.7-0.3,3.6-0.9c0.9-0.6,1.3-1.5,1.3-2.6v-2c0-0.2-0.1-0.3-0.3-0.3h-3.6c-1.7,0-2.9,0.2-3.6,0.7c-0.7,0.5-1.1,1.2-1.1,2.2
			C58.7,268.5,59.9,269.4,62.5,269.4z"/>
		<path class="st10" d="M81.5,253.1L81.5,253.1c1.3-1.7,3.2-2.6,5.8-2.6c2.3,0,4.2,0.8,5.5,2.3c1.4,1.5,2.1,3.5,2.1,5.9v11.9
			c0,0.8-0.2,1.5-0.7,2c-0.5,0.5-1.1,0.7-1.8,0.7c-0.8,0-1.4-0.2-1.8-0.7c-0.5-0.5-0.7-1.1-0.7-2v-10.7c0-1.5-0.4-2.6-1.1-3.5
			c-0.7-0.9-1.7-1.3-3.1-1.3c-1.3,0-2.3,0.4-3.1,1.3c-0.7,0.9-1.1,2-1.1,3.5v10.7c0,0.8-0.2,1.5-0.7,2c-0.5,0.5-1.1,0.7-1.8,0.7
			c-0.8,0-1.4-0.2-1.8-0.7c-0.5-0.5-0.7-1.1-0.7-2v-17.1c0-0.8,0.2-1.5,0.7-2c0.5-0.5,1.1-0.7,1.8-0.7
			C80.3,250.8,81.2,251.6,81.5,253.1z"/>
		<path class="st10" d="M107.6,273.5c-2.2,0-4.1-0.5-5.7-1.6c-1.6-1-2.7-2.5-3.3-4.5c-0.5-1.4-0.7-3.2-0.7-5.4
			c0-2.3,0.2-4.1,0.7-5.4c0.6-1.9,1.7-3.4,3.3-4.5c1.6-1,3.5-1.6,5.7-1.6c3,0,5.3,0.9,6.9,2.8c0.6,0.6,0.9,1.3,0.9,2
			c0,0.6-0.2,1.2-0.6,1.6c-0.4,0.4-1,0.6-1.6,0.6c-0.7,0-1.4-0.4-2.1-1.1c-0.8-0.9-2-1.4-3.5-1.4c-2.1,0-3.5,1-4.1,2.9
			c-0.3,0.9-0.5,2.3-0.5,4.1c0,1.8,0.2,3.1,0.5,4.1c0.6,1.9,2,2.9,4.1,2.9c1.5,0,2.6-0.5,3.5-1.4c0.7-0.7,1.4-1.1,2.1-1.1
			c0.6,0,1.2,0.2,1.6,0.6c0.4,0.4,0.6,1,0.6,1.6c0,0.7-0.3,1.4-0.9,2C112.9,272.6,110.6,273.5,107.6,273.5z"/>
		<path class="st10" d="M118.9,246.8c-0.6-0.6-0.9-1.3-0.9-2.2c0-0.9,0.3-1.6,0.9-2.2c0.6-0.6,1.3-0.9,2.2-0.9
			c0.9,0,1.6,0.3,2.2,0.9c0.6,0.6,0.9,1.3,0.9,2.2c0,0.9-0.3,1.6-0.9,2.2c-0.6,0.6-1.3,0.9-2.2,0.9
			C120.2,247.7,119.5,247.4,118.9,246.8z M122.9,272.5c-0.5,0.5-1.1,0.7-1.8,0.7c-0.8,0-1.4-0.2-1.8-0.7c-0.5-0.5-0.7-1.1-0.7-2
			v-17.1c0-0.8,0.2-1.5,0.7-2c0.5-0.5,1.1-0.7,1.8-0.7c0.8,0,1.4,0.2,1.8,0.7c0.5,0.5,0.7,1.1,0.7,2v17.1
			C123.6,271.4,123.4,272,122.9,272.5z"/>
		<path class="st10" d="M146.5,269.4c0.3,0.5,0.4,1,0.4,1.5c0,0.7-0.2,1.2-0.7,1.7c-0.5,0.5-1.1,0.7-1.8,0.7c-0.9,0-1.7-0.3-2.1-1
			l-0.7-1.1h0c-1.4,1.6-3.5,2.4-6.5,2.4c-2.6,0-4.6-0.6-5.9-1.7c-1.4-1.2-2.1-2.8-2.1-4.9c0-2.3,0.8-4.1,2.3-5.2
			c1.5-1.2,3.7-1.8,6.5-1.8h4.5c0.2,0,0.3-0.1,0.3-0.3V259c0-2.7-1.6-4.1-4.9-4.1c-1.4,0-2.7,0.3-4,0.9c-0.5,0.2-0.9,0.3-1.3,0.3
			c-0.6,0-1.1-0.2-1.5-0.6c-0.4-0.4-0.6-0.9-0.6-1.5c0-0.9,0.4-1.6,1.3-2c1.7-1,4-1.5,6.7-1.5c3.1,0,5.4,0.7,6.9,2.2
			c1.5,1.5,2.3,3.6,2.3,6.3v6.9c0,0.9,0.2,1.6,0.5,2.2L146.5,269.4z M135.7,269.4c1.5,0,2.7-0.3,3.6-0.9c0.9-0.6,1.3-1.5,1.3-2.6v-2
			c0-0.2-0.1-0.3-0.3-0.3h-3.6c-1.7,0-2.9,0.2-3.6,0.7c-0.7,0.5-1.1,1.2-1.1,2.2C131.9,268.5,133.2,269.4,135.7,269.4z"/>
	</g>
</g>
</svg>
