<?xml version="1.0" encoding="utf-8"?>
<!-- Generator: Adobe Illustrator 21.1.0, SVG Export Plug-In . SVG Version: 6.00 Build 0)  -->
<svg version="1.1" id="Layer_1" xmlns="http://www.w3.org/2000/svg" xmlns:xlink="http://www.w3.org/1999/xlink" x="0px" y="0px"
	 viewBox="0 0 355 420" style="enable-background:new 0 0 355 420;" xml:space="preserve">
<style type="text/css">
	.st0{fill:#3b6123;}
</style>
<g>
	<path class="st0" d="M267.4,271.2c0-3.8-3.1-6.8-6.8-6.8c-3.8,0-6.8,3.1-6.8,6.8v13.7c0,3.8,3.1,6.8,6.8,6.8c3.8,0,6.8-3.1,6.8-6.8
		V271.2z M267.4,271.2"/>
	<path class="st0" d="M260.6,346.3c-3.8,0-6.8,3.1-6.8,6.8v27.3c0,3.8,3.1,6.8,6.8,6.8c3.8,0,6.8-3.1,6.8-6.8v-27.3
		C267.4,349.4,264.4,346.3,260.6,346.3L260.6,346.3z M260.6,346.3"/>
	<path class="st0" d="M294.7,189.3c0-3.8-3.1-6.8-6.8-6.8c-3.8,0-6.8,3.1-6.8,6.8V203c0,3.8,3.1,6.8,6.8,6.8c3.8,0,6.8-3.1,6.8-6.8
		V189.3z M294.7,189.3"/>
	<path class="st0" d="M267.4,230.3c0-3.8-3.1-6.8-6.8-6.8c-3.8,0-6.8,3.1-6.8,6.8v13.7c0,3.8,3.1,6.8,6.8,6.8c3.8,0,6.8-3.1,6.8-6.8
		V230.3z M267.4,230.3"/>
	<path class="st0" d="M267.4,312.2c0-3.8-3.1-6.8-6.8-6.8c-3.8,0-6.8,3.1-6.8,6.8v13.7c0,3.8,3.1,6.8,6.8,6.8c3.8,0,6.8-3.1,6.8-6.8
		V312.2z M267.4,312.2"/>
	<path class="st0" d="M294.7,230.3c0-3.8-3.1-6.8-6.8-6.8c-3.8,0-6.8,3.1-6.8,6.8v13.7c0,3.8,3.1,6.8,6.8,6.8c3.8,0,6.8-3.1,6.8-6.8
		V230.3z M294.7,230.3"/>
	<path class="st0" d="M240.1,189.3c0-3.8-3.1-6.8-6.8-6.8c-3.8,0-6.8,3.1-6.8,6.8V203c0,3.8,3.1,6.8,6.8,6.8c3.8,0,6.8-3.1,6.8-6.8
		V189.3z M240.1,189.3"/>
	<path class="st0" d="M267.4,189.3c0-3.8-3.1-6.8-6.8-6.8c-3.8,0-6.8,3.1-6.8,6.8V203c0,3.8,3.1,6.8,6.8,6.8c3.8,0,6.8-3.1,6.8-6.8
		V189.3z M267.4,189.3"/>
	<path class="st0" d="M240.1,230.3c0-3.8-3.1-6.8-6.8-6.8c-3.8,0-6.8,3.1-6.8,6.8v13.7c0,3.8,3.1,6.8,6.8,6.8c3.8,0,6.8-3.1,6.8-6.8
		V230.3z M240.1,230.3"/>
	<path class="st0" d="M233.3,264.4c-3.8,0-6.8,3.1-6.8,6.8v13.7c0,3.8,3.1,6.8,6.8,6.8c3.8,0,6.8-3.1,6.8-6.8v-13.7
		C240.1,267.5,237,264.4,233.3,264.4L233.3,264.4z M233.3,264.4"/>
	<path class="st0" d="M294.7,312.2c0-3.8-3.1-6.8-6.8-6.8c-3.8,0-6.8,3.1-6.8,6.8v13.7c0,3.8,3.1,6.8,6.8,6.8c3.8,0,6.8-3.1,6.8-6.8
		V312.2z M294.7,312.2"/>
	<path class="st0" d="M287.9,346.3c-3.8,0-6.8,3.1-6.8,6.8v27.3c0,3.8,3.1,6.8,6.8,6.8c3.8,0,6.8-3.1,6.8-6.8v-27.3
		C294.7,349.4,291.7,346.3,287.9,346.3L287.9,346.3z M287.9,346.3"/>
	<path class="st0" d="M294.7,271.2c0-3.8-3.1-6.8-6.8-6.8c-3.8,0-6.8,3.1-6.8,6.8v13.7c0,3.8,3.1,6.8,6.8,6.8c3.8,0,6.8-3.1,6.8-6.8
		V271.2z M294.7,271.2"/>
	<path class="st0" d="M158.2,148.4c0-3.8-3.1-6.8-6.8-6.8c-3.8,0-6.8,3.1-6.8,6.8V162c0,3.8,3.1,6.8,6.8,6.8c3.8,0,6.8-3.1,6.8-6.8
		V148.4z M158.2,148.4"/>
	<path class="st0" d="M158.2,107.4c0-3.8-3.1-6.8-6.8-6.8c-3.8,0-6.8,3.1-6.8,6.8v13.7c0,3.8,3.1,6.8,6.8,6.8c3.8,0,6.8-3.1,6.8-6.8
		V107.4z M158.2,107.4"/>
	<path class="st0" d="M103.6,312.2c0-3.8-3.1-6.8-6.8-6.8c-3.8,0-6.8,3.1-6.8,6.8v13.7c0,3.8,3.1,6.8,6.8,6.8c3.8,0,6.8-3.1,6.8-6.8
		V312.2z M103.6,312.2"/>
	<path class="st0" d="M42.1,250.8c3.8,0,6.8-3.1,6.8-6.8v-34.1h68.3v170.7c0,3.8,3.1,6.8,6.8,6.8c3.8,0,6.8-3.1,6.8-6.8V203
		c0-3.8-3.1-6.8-6.8-6.8H42.1c-3.8,0-6.8,3.1-6.8,6.8v41C35.3,247.7,38.4,250.8,42.1,250.8L42.1,250.8z M42.1,250.8"/>
	<path class="st0" d="M117.2,148.4V162c0,3.8,3.1,6.8,6.8,6.8c3.8,0,6.8-3.1,6.8-6.8v-13.7c0-3.8-3.1-6.8-6.8-6.8
		C120.3,141.5,117.2,144.6,117.2,148.4L117.2,148.4z M117.2,148.4"/>
	<path class="st0" d="M158.2,66.4c0-3.8-3.1-6.8-6.8-6.8c-3.8,0-6.8,3.1-6.8,6.8v13.7c0,3.8,3.1,6.8,6.8,6.8c3.8,0,6.8-3.1,6.8-6.8
		V66.4z M158.2,66.4"/>
	<path class="st0" d="M96.7,346.3c-3.8,0-6.8,3.1-6.8,6.8v27.3c0,3.8,3.1,6.8,6.8,6.8c3.8,0,6.8-3.1,6.8-6.8v-27.3
		C103.6,349.4,100.5,346.3,96.7,346.3L96.7,346.3z M96.7,346.3"/>
	<path class="st0" d="M340.8,400.9h-13.7H322V162c0-3.1-2.1-5.9-5.2-6.6l-109.2-27.3c-2-0.5-4.2-0.1-5.9,1.2
		c-1.7,1.3-2.6,3.3-2.6,5.4v150.2c0,3.8,3.1,6.8,6.8,6.8c3.8,0,6.8-3.1,6.8-6.8V143.5l95.6,23.9v233.6h-95.6v-28
		c15.6-3.2,27.3-17,27.3-33.4c0-18.8-15.3-34.1-34.1-34.1c-18.8,0-34.1,15.3-34.1,34.1c0,16.5,11.8,30.3,27.3,33.4v28H49v-69
		c15.6-3.2,27.3-17,27.3-33.4c0-18.8-15.3-34.1-34.1-34.1C23.3,264.4,8,279.7,8,298.5C8,315,19.8,328.8,35.3,332v69H14.8
		c-3.8,0-6.8,3.1-6.8,6.8c0,3.8,3.1,6.8,6.8,6.8h325.9c3.8,0,6.8-3.1,6.8-6.8C347.6,404,344.5,400.9,340.8,400.9z M21.7,298.5
		c0-11.3,9.2-20.5,20.5-20.5c11.3,0,20.5,9.2,20.5,20.5c0,11.3-9.2,20.5-20.5,20.5C30.8,319,21.7,309.8,21.7,298.5z M185.5,339.5
		c0-11.3,9.2-20.5,20.5-20.5c11.3,0,20.5,9.2,20.5,20.5c0,11.3-9.2,20.5-20.5,20.5C194.7,360,185.5,350.8,185.5,339.5z"/>
	<path class="st0" d="M62.6,353.2v27.3c0,3.8,3.1,6.8,6.8,6.8c3.8,0,6.8-3.1,6.8-6.8v-27.3c0-3.8-3.1-6.8-6.8-6.8
		C65.7,346.3,62.6,349.4,62.6,353.2L62.6,353.2z M62.6,353.2"/>
	<path class="st0" d="M103.6,230.3c0-3.8-3.1-6.8-6.8-6.8c-3.8,0-6.8,3.1-6.8,6.8v13.7c0,3.8,3.1,6.8,6.8,6.8c3.8,0,6.8-3.1,6.8-6.8
		V230.3z M103.6,230.3"/>
	<path class="st0" d="M103.6,271.2c0-3.8-3.1-6.8-6.8-6.8c-3.8,0-6.8,3.1-6.8,6.8v13.7c0,3.8,3.1,6.8,6.8,6.8c3.8,0,6.8-3.1,6.8-6.8
		V271.2z M103.6,271.2"/>
	<path class="st0" d="M62.6,230.3v13.7c0,3.8,3.1,6.8,6.8,6.8c3.8,0,6.8-3.1,6.8-6.8v-13.7c0-3.8-3.1-6.8-6.8-6.8
		C65.7,223.5,62.6,226.5,62.6,230.3L62.6,230.3z M62.6,230.3"/>
	<path class="st0" d="M158.2,271.2c0-3.8-3.1-6.8-6.8-6.8c-3.8,0-6.8,3.1-6.8,6.8v13.7c0,3.8,3.1,6.8,6.8,6.8c3.8,0,6.8-3.1,6.8-6.8
		V271.2z M158.2,271.2"/>
	<path class="st0" d="M185.5,189.3c0-3.8-3.1-6.8-6.8-6.8c-3.8,0-6.8,3.1-6.8,6.8V203c0,3.8,3.1,6.8,6.8,6.8c3.8,0,6.8-3.1,6.8-6.8
		V189.3z M185.5,189.3"/>
	<path class="st0" d="M185.5,148.4c0-3.8-3.1-6.8-6.8-6.8c-3.8,0-6.8,3.1-6.8,6.8V162c0,3.8,3.1,6.8,6.8,6.8c3.8,0,6.8-3.1,6.8-6.8
		V148.4z M185.5,148.4"/>
	<path class="st0" d="M185.5,230.3c0-3.8-3.1-6.8-6.8-6.8c-3.8,0-6.8,3.1-6.8,6.8v13.7c0,3.8,3.1,6.8,6.8,6.8c3.8,0,6.8-3.1,6.8-6.8
		V230.3z M185.5,230.3"/>
	<path class="st0" d="M178.7,264.4c-3.8,0-6.8,3.1-6.8,6.8v13.7c0,3.8,3.1,6.8,6.8,6.8c3.8,0,6.8-3.1,6.8-6.8v-13.7
		C185.5,267.5,182.4,264.4,178.7,264.4L178.7,264.4z M178.7,264.4"/>
	<path class="st0" d="M185.5,107.4c0-3.8-3.1-6.8-6.8-6.8c-3.8,0-6.8,3.1-6.8,6.8v13.7c0,3.8,3.1,6.8,6.8,6.8c3.8,0,6.8-3.1,6.8-6.8
		V107.4z M185.5,107.4"/>
	<path class="st0" d="M158.2,312.2c0-3.8-3.1-6.8-6.8-6.8c-3.8,0-6.8,3.1-6.8,6.8v13.7c0,3.8,3.1,6.8,6.8,6.8c3.8,0,6.8-3.1,6.8-6.8
		V312.2z M158.2,312.2"/>
	<path class="st0" d="M96.7,182.5c3.8,0,6.8-3.1,6.8-6.8v-50.4l23.5-11.8c2.3-1.2,3.8-3.5,3.8-6.1V50.2L165,33.1l34.1,17.1v57.2
		c0,3.8,3.1,6.8,6.8,6.8c3.8,0,6.8-3.1,6.8-6.8V46c0-2.6-1.5-4.9-3.8-6.1l-37.2-18.6v-9.4c0-3.8-3.1-6.8-6.8-6.8
		c-3.8,0-6.8,3.1-6.8,6.8v9.4L121,39.8c-2.3,1.2-3.8,3.5-3.8,6.1v57.2l-23.5,11.8c-2.3,1.2-3.8,3.5-3.8,6.1v54.6
		C89.9,179.4,93,182.5,96.7,182.5L96.7,182.5z M96.7,182.5"/>
	<path class="st0" d="M158.2,230.3c0-3.8-3.1-6.8-6.8-6.8c-3.8,0-6.8,3.1-6.8,6.8v13.7c0,3.8,3.1,6.8,6.8,6.8c3.8,0,6.8-3.1,6.8-6.8
		V230.3z M158.2,230.3"/>
	<path class="st0" d="M151.4,346.3c-3.8,0-6.8,3.1-6.8,6.8v27.3c0,3.8,3.1,6.8,6.8,6.8c3.8,0,6.8-3.1,6.8-6.8v-27.3
		C158.2,349.4,155.1,346.3,151.4,346.3L151.4,346.3z M151.4,346.3"/>
	<path class="st0" d="M185.5,66.4c0-3.8-3.1-6.8-6.8-6.8c-3.8,0-6.8,3.1-6.8,6.8v13.7c0,3.8,3.1,6.8,6.8,6.8c3.8,0,6.8-3.1,6.8-6.8
		V66.4z M185.5,66.4"/>
	<path class="st0" d="M158.2,189.3c0-3.8-3.1-6.8-6.8-6.8c-3.8,0-6.8,3.1-6.8,6.8V203c0,3.8,3.1,6.8,6.8,6.8c3.8,0,6.8-3.1,6.8-6.8
		V189.3z M158.2,189.3"/>
</g>
</svg>
