<?xml version="1.0" encoding="utf-8"?>
<!-- Generator: Adobe Illustrator 21.1.0, SVG Export Plug-In . SVG Version: 6.00 Build 0)  -->
<svg version="1.1" id="Layer_1" xmlns="http://www.w3.org/2000/svg" xmlns:xlink="http://www.w3.org/1999/xlink" x="0px" y="0px"
	 viewBox="0 0 49.7 49.7" style="enable-background:new 0 0 49.7 49.7;" xml:space="preserve">
<style type="text/css">
	.st0{fill:#3b6123;}
</style>
<g>
	<path class="st0" d="M24.8,21.6c3.1,0,5.6-2.5,5.6-5.6c0-3.1-2.5-5.6-5.6-5.6s-5.6,2.5-5.6,5.6C19.2,19.1,21.7,21.6,24.8,21.6
		L24.8,21.6z M24.8,12.7c1.8,0,3.3,1.5,3.3,3.3c0,1.8-1.5,3.3-3.3,3.3c-1.8,0-3.3-1.5-3.3-3.3C21.5,14.2,23,12.7,24.8,12.7
		L24.8,12.7z M24.8,12.7"/>
	<path class="st0" d="M24.7,44.6L37,26.9c4.6-6.1,3.9-16.2-1.4-21.6c-2.9-2.9-6.7-4.5-10.8-4.5c-4.1,0-8,1.6-10.8,4.5
		c-5.4,5.4-6,15.4-1.4,21.6L24.7,44.6z M15.5,7.3c2.5-2.5,5.7-3.8,9.2-3.8c3.5,0,6.7,1.4,9.2,3.8c4.6,4.6,5.2,13.2,1.2,18.5
		l-10.4,15l-10.4-15C10.3,20.5,10.9,11.9,15.5,7.3L15.5,7.3z M15,6.5"/>
	<path class="st0" d="M34.5,35.2c-0.4-0.1-0.8,0.3-0.9,0.7c-0.1,0.4,0.3,1.8,0.7,1.9c8.4,1,11.9,2.7,11.9,4.2
		c0,2.2-7.5,4.2-21.4,4.2c-13.9,0-21.4-2-21.4-4.2c0-1.5,3.5-3.2,11.9-4.2c0.4-0.1,0.8-0.5,0.7-0.9c-0.1-0.4-0.4-1.8-0.9-1.7
		C6.7,36.2,0.8,39,0.8,42c0,3.4,8.2,6.8,24,6.8s24-3.4,24-6.8C48.8,39,43,36.2,34.5,35.2L34.5,35.2z M34.5,35.2"/>
</g>
</svg>
