<?xml version="1.0" encoding="UTF-8" standalone="no"?>
<!-- Generator: Adobe Illustrator 19.2.0, SVG Export Plug-In . SVG Version: 6.00 Build 0)  -->

<svg
   xmlns:dc="http://purl.org/dc/elements/1.1/"
   xmlns:cc="http://creativecommons.org/ns#"
   xmlns:rdf="http://www.w3.org/1999/02/22-rdf-syntax-ns#"
   xmlns:svg="http://www.w3.org/2000/svg"
   xmlns="http://www.w3.org/2000/svg"
   xmlns:sodipodi="http://sodipodi.sourceforge.net/DTD/sodipodi-0.dtd"
   xmlns:inkscape="http://www.inkscape.org/namespaces/inkscape"
   version="1.1"
   id="Layer_1"
   x="0px"
   y="0px"
   viewBox="0 0 529.99998 820"
   xml:space="preserve"
   sodipodi:docname="mapa_distritos_de_sp.svg"
   inkscape:version="0.92.2 (unknown)"
   width="530"
   height="820"><metadata
     id="metadata832"><rdf:RDF><cc:Work
         rdf:about=""><dc:format>image/svg+xml</dc:format><dc:type
           rdf:resource="http://purl.org/dc/dcmitype/StillImage" /><dc:title></dc:title></cc:Work></rdf:RDF></metadata><defs
     id="defs830" /><sodipodi:namedview
     pagecolor="#ffffff"
     bordercolor="#666666"
     borderopacity="1"
     objecttolerance="10"
     gridtolerance="10"
     guidetolerance="10"
     inkscape:pageopacity="0"
     inkscape:pageshadow="2"
     inkscape:window-width="2495"
     inkscape:window-height="1416"
     id="namedview828"
     showgrid="false"
     inkscape:zoom="1.049139"
     inkscape:cx="309.99543"
     inkscape:cy="516.03314"
     inkscape:window-x="65"
     inkscape:window-y="24"
     inkscape:window-maximized="1"
     inkscape:current-layer="Layer_1"
     showguides="false" /><style
     type="text/css"
     id="style441">
	.st0{fill:#D6E5CB;}
	.st1{fill:none;stroke:#FFFFFF;stroke-width:0.5;stroke-miterlimit:10;}
	.st2{fill:#D2D9C5;}
	.st3{fill:#D6E2AE;}
	.st4{fill:#BAD1BE;}
	.st5{fill:#A7CEE8;}
	.st6{fill:#A6CAEB;}
	.st7{fill:#A8D2F1;}
	.st8{fill:#CEE5F7;}
	.st9{fill:#BEDDF4;}
	.st10{fill:#C7DFF3;}
	.st11{fill:#C4D5E0;}
	.st12{fill:#EBEBDE;}
	.st13{fill:#D7D8D3;}
	.st14{fill:#C3D0DE;}
	.st15{fill:#C6CFCC;}
	.st16{fill:#DFE5DD;}
	.st17{fill:#D8DEE3;}
	.st18{fill:#CDD9EE;}
	.st19{fill:#E0E1F1;}
	.st20{fill:#C4D0E0;}
	.st21{fill:#C1C6E2;}
	.st22{fill:#D7D4E8;}
	.st23{fill:#C7E0E2;}
	.st24{fill:#DBEAE6;}
	.st25{fill:#D6E9F3;}
	.st26{fill:#B6D5DE;}
	.st27{fill:#B7D8E9;}
</style><polygon
     class="st0"
     points="356.8,389.2 356.4,389.1 353.8,393.4 378,415.5 386.8,415.5 386.2,404.5 387.1,393 387,393 "
     id="polygon443"
     transform="translate(-155.90259,-189.22595)"
     style="fill:#d6e5cb" /><polygon
     class="st1"
     points="386.2,404.5 387.1,393 387,393 356.8,389.2 356.4,389.1 345,407.7 337.3,427.3 330.9,427.3 337.3,441 362.8,454.6 378.7,468.4 398.9,459.9 404.1,450.1 400,440.4 385.1,441.4 387.5,427.3 "
     id="polygon445"
     transform="translate(-155.90259,-189.22595)"
     style="fill:none;stroke:#ffffff;stroke-width:0.5;stroke-miterlimit:10" /><path
     class="st2"
     d="m 229.19741,252.07405 0.1,-0.3 -0.9,0.5 0.8,-0.1 z m 19,8.8 -4.1,-9.6 -14.8,1 3.8,14.3 -4.2,10.2 -1.8,0.8 16.1,-6.7 z"
     id="path447"
     inkscape:connector-curvature="0"
     style="fill:#d2d9c5" /><path
     class="st1"
     d="m 229.19741,252.07405 0.1,-0.3 -0.9,0.5 0.8,-0.1 z m 19,8.8 -4.1,-9.6 -14.8,1 3.8,14.3 -4.2,10.2 -1.8,0.8 16.1,-6.7 z"
     id="path449"
     inkscape:connector-curvature="0"
     style="fill:none;stroke:#ffffff;stroke-width:0.5;stroke-miterlimit:10" /><polygon
     class="st3"
     points="345,407.7 343,412.9 356.2,424.3 372.8,410.7 353.8,393.4 354.7,392 "
     id="polygon451"
     transform="translate(-155.90259,-189.22595)"
     style="fill:#d6e2ae" /><polygon
     class="st1"
     points="345,407.7 343,412.9 356.2,424.3 372.8,410.7 353.8,393.4 354.7,392 "
     id="polygon453"
     transform="translate(-155.90259,-189.22595)"
     style="fill:none;stroke:#ffffff;stroke-width:0.5;stroke-miterlimit:10" /><polygon
     class="st4"
     points="344.6,444.9 356.7,438.2 356.3,424.2 356.2,424.3 343,412.9 343.8,410.8 337.3,427.3 330.9,427.3 337.3,441 "
     id="polygon455"
     transform="translate(-155.90259,-189.22595)"
     style="fill:#bad1be" /><polygon
     class="st1"
     points="344.6,444.9 356.7,438.2 356.3,424.2 356.2,424.3 343,412.9 343.8,410.8 337.3,427.3 330.9,427.3 337.3,441 "
     id="polygon457"
     transform="translate(-155.90259,-189.22595)"
     style="fill:none;stroke:#ffffff;stroke-width:0.5;stroke-miterlimit:10" /><polygon
     class="st1"
     points="356.8,389.2 356.4,389.1 353.8,393.4 378,415.5 386.8,415.5 386.2,404.5 387.1,393 387,393 "
     id="polygon459"
     transform="translate(-155.90259,-189.22595)"
     style="fill:none;stroke:#ffffff;stroke-width:0.5;stroke-miterlimit:10" /><path
     class="st4"
     d="m 208.59741,254.27405 z m 23,-17.1 -0.7,-11.5 v 0.6 h -8.5 l -7.9,15.9 -5.2,12.1 19.8,-2 z"
     id="path461"
     inkscape:connector-curvature="0"
     style="fill:#bad1be" /><path
     class="st1"
     d="m 208.59741,254.27405 z m 23,-17.1 -0.7,-11.5 v 0.6 h -8.5 l -7.9,15.9 -5.2,12.1 19.8,-2 z"
     id="path463"
     inkscape:connector-curvature="0"
     style="fill:none;stroke:#ffffff;stroke-width:0.5;stroke-miterlimit:10" /><polygon
     class="st0"
     points="356.7,438 356.7,438.2 344.6,444.9 362.8,454.6 365.6,457 364.9,443.9 "
     id="polygon465"
     transform="translate(-155.90259,-189.22595)"
     style="fill:#d6e5cb" /><polygon
     class="st1"
     points="356.7,438 356.7,438.2 344.6,444.9 362.8,454.6 365.6,457 364.9,443.9 "
     id="polygon467"
     transform="translate(-155.90259,-189.22595)"
     style="fill:none;stroke:#ffffff;stroke-width:0.5;stroke-miterlimit:10" /><path
     class="st2"
     d="m 196.39741,231.67405 3.9,3.4 z m 26.1,-5.4 h -0.4 l -9.2,-8.4 4,3.6 -16.5,13.4 0.4,13.8 8.4,6 5.4,-12.6 z"
     id="path469"
     inkscape:connector-curvature="0"
     style="fill:#d2d9c5" /><path
     class="st1"
     d="m 196.39741,231.67405 3.9,3.4 z m 26.1,-5.4 h -0.4 l -9.2,-8.4 4,3.6 -16.5,13.4 0.4,13.8 8.4,6 5.4,-12.6 z"
     id="path471"
     inkscape:connector-curvature="0"
     style="fill:none;stroke:#ffffff;stroke-width:0.5;stroke-miterlimit:10" /><polygon
     class="st3"
     points="385.1,441.4 365.3,443.5 365.6,442.8 365.1,444 364.9,443.9 365.6,457 362.8,454.6 378.7,468.4 384.7,465.9 388.9,455.8 385.1,441.3 "
     id="polygon473"
     transform="translate(-155.90259,-189.22595)"
     style="fill:#d6e2ae" /><polygon
     class="st1"
     points="385.1,441.4 365.3,443.5 365.6,442.8 365.1,444 364.9,443.9 365.6,457 362.8,454.6 378.7,468.4 384.7,465.9 388.9,455.8 385.1,441.3 "
     id="polygon475"
     transform="translate(-155.90259,-189.22595)"
     style="fill:none;stroke:#ffffff;stroke-width:0.5;stroke-miterlimit:10" /><path
     class="st5"
     d="m 159.39741,430.17405 19.4,-11.4 v -23.2 l -10.1,-6.2 -3.8,-20.8 1.3,-0.6 -36,16.8 2.3,5.1 15.3,18.7 2.7,7.1 -3.4,6.6 0.1,0.1 3.4,-6.4 8.1,14.2 z m 22.4,-12.4 v 0 l -2.9,0.9 z"
     id="path477"
     inkscape:connector-curvature="0"
     style="fill:#a7cee8" /><path
     class="st1"
     d="m 159.39741,430.17405 19.4,-11.4 v -23.2 l -10.1,-6.2 -3.8,-20.8 1.3,-0.6 -36,16.8 2.3,5.1 15.3,18.7 2.7,7.1 -3.4,6.6 0.1,0.1 3.4,-6.4 8.1,14.2 z m 22.4,-12.4 v 0 l -2.9,0.9 z"
     id="path479"
     inkscape:connector-curvature="0"
     style="fill:none;stroke:#ffffff;stroke-width:0.5;stroke-miterlimit:10" /><path
     class="st6"
     d="m 188.59741,652.37405 -130.600004,-13.6 1.2,29.1 -27.2,-9.9 -10.7,16.2 4.6,45.6 19.2,11.8 31.4,19.7 10.8,13.9 -14.1,13.9 -16.2,21.8 1.9,2.2 c 4.8,1.4 9.6,2.8 14.5,4.2 l 21.500004,-14.3 h 27 l 51.9,-8.3 26,13 22.7,-4.7 -1.1,-22.4 23.8,-19.3 6.5,-55.6 -7.1,-30.3 -28.3,28.3 z"
     id="path481"
     inkscape:connector-curvature="0"
     style="fill:#a6caeb" /><path
     class="st1"
     d="m 188.59741,652.37405 -130.600004,-13.6 1.2,29.1 -27.2,-9.9 -10.7,16.2 4.6,45.6 19.2,11.8 31.4,19.7 10.8,13.9 -14.1,13.9 -16.2,21.8 1.9,2.2 c 4.8,1.4 9.6,2.8 14.5,4.2 l 21.500004,-14.3 h 27 l 51.9,-8.3 26,13 22.7,-4.7 -1.1,-22.4 23.8,-19.3 6.5,-55.6 -7.1,-30.3 -28.3,28.3 z"
     id="path483"
     inkscape:connector-curvature="0"
     style="fill:none;stroke:#ffffff;stroke-width:0.5;stroke-miterlimit:10" /><polygon
     class="st5"
     points="372.3,882.9 400.6,854.6 391.5,815.4 367.8,806.1 352.9,806.1 352.9,805.7 347.5,807 332.1,797.3 306.4,801.3 302.2,752 287.3,701 272.5,698.1 268.1,672 239.1,670.4 232.4,676.5 204.3,718.2 187.9,746 200,755.2 231.3,773.7 233.5,787.6 214.3,787.6 212.9,806.1 215.1,857.1 213.9,828 344.5,841.6 "
     id="polygon485"
     transform="translate(-155.90259,-189.22595)"
     style="fill:#a7cee8" /><polygon
     class="st1"
     points="372.3,882.9 400.6,854.6 391.5,815.4 367.8,806.1 352.9,806.1 352.9,805.7 347.5,807 332.1,797.3 306.4,801.3 302.2,752 287.3,701 272.5,698.1 268.1,672 239.1,670.4 232.4,676.5 204.3,718.2 187.9,746 200,755.2 231.3,773.7 233.5,787.6 214.3,787.6 212.9,806.1 215.1,857.1 213.9,828 344.5,841.6 "
     id="polygon487"
     transform="translate(-155.90259,-189.22595)"
     style="fill:none;stroke:#ffffff;stroke-width:0.5;stroke-miterlimit:10" /><polygon
     class="st7"
     points="361.3,648.7 340.6,643.1 319.6,661.3 314.5,658.4 303.2,668.1 287.6,702.2 302.2,752 306.4,801.3 332.1,797.3 347.5,807 352.9,805.7 352.9,796.3 382,767.1 383.9,718.2 367.8,711.9 361.2,648.7 "
     id="polygon489"
     transform="translate(-155.90259,-189.22595)"
     style="fill:#a8d2f1" /><polygon
     class="st1"
     points="361.3,648.7 340.6,643.1 319.6,661.3 314.5,658.4 303.2,668.1 287.6,702.2 302.2,752 306.4,801.3 332.1,797.3 347.5,807 352.9,805.7 352.9,796.3 382,767.1 383.9,718.2 367.8,711.9 361.2,648.7 "
     id="polygon491"
     transform="translate(-155.90259,-189.22595)"
     style="fill:none;stroke:#ffffff;stroke-width:0.5;stroke-miterlimit:10" /><polygon
     class="st8"
     points="406.9,511.3 413.7,500.3 439.9,511.6 438.6,518.6 442.6,497 442.1,496.7 424.5,482.9 413.7,465.7 407.8,459.2 399.2,459.4 395.7,460.9 391.6,489.5 "
     id="polygon493"
     transform="translate(-155.90259,-189.22595)"
     style="fill:#cee5f7" /><polygon
     class="st1"
     points="406.9,511.3 413.7,500.3 439.9,511.6 438.6,518.6 442.6,497 442.1,496.7 424.5,482.9 413.7,465.7 407.8,459.2 399.2,459.4 395.7,460.9 391.6,489.5 "
     id="polygon495"
     transform="translate(-155.90259,-189.22595)"
     style="fill:none;stroke:#ffffff;stroke-width:0.5;stroke-miterlimit:10" /><polygon
     class="st7"
     points="439.9,511.6 413.7,500.3 400.1,522.4 398,566.5 432.6,551.5 "
     id="polygon497"
     transform="translate(-155.90259,-189.22595)"
     style="fill:#a8d2f1" /><polygon
     class="st1"
     points="439.9,511.6 413.7,500.3 400.1,522.4 398,566.5 432.6,551.5 "
     id="polygon499"
     transform="translate(-155.90259,-189.22595)"
     style="fill:none;stroke:#ffffff;stroke-width:0.5;stroke-miterlimit:10" /><polygon
     class="st7"
     points="383.1,495.2 391.6,489.4 395.7,460.9 399.2,459.4 378.5,468.1 362.3,454.1 358.8,452.3 350.5,458.5 358.1,481.6 356.4,495.2 "
     id="polygon501"
     transform="translate(-155.90259,-189.22595)"
     style="fill:#a8d2f1" /><polygon
     class="st1"
     points="383.1,495.2 391.6,489.4 395.7,460.9 399.2,459.4 378.5,468.1 362.3,454.1 358.8,452.3 350.5,458.5 358.1,481.6 356.4,495.2 "
     id="polygon503"
     transform="translate(-155.90259,-189.22595)"
     style="fill:none;stroke:#ffffff;stroke-width:0.5;stroke-miterlimit:10" /><polygon
     class="st9"
     points="334.1,475.9 323.3,501.1 337.8,512.6 356.6,494.3 358.1,481.6 350.5,458.5 352.7,456.8 346,461.8 "
     id="polygon505"
     transform="translate(-155.90259,-189.22595)"
     style="fill:#beddf4" /><polygon
     class="st1"
     points="334.1,475.9 323.3,501.1 337.8,512.6 356.6,494.3 358.1,481.6 350.5,458.5 352.7,456.8 346,461.8 "
     id="polygon507"
     transform="translate(-155.90259,-189.22595)"
     style="fill:none;stroke:#ffffff;stroke-width:0.5;stroke-miterlimit:10" /><polygon
     class="st10"
     points="377.4,544.5 383.7,554.1 373,563.8 383.1,584.1 387.4,571.1 398,566.5 400.1,522.4 407.6,510.2 406.9,511.3 391.6,489.5 392.3,484.5 391.6,489.4 383.1,495.2 382.9,495.2 378,529.2 "
     id="polygon509"
     transform="translate(-155.90259,-189.22595)"
     style="fill:#c7dff3" /><polygon
     class="st1"
     points="377.4,544.5 383.7,554.1 373,563.8 383.1,584.1 387.4,571.1 398,566.5 400.1,522.4 407.6,510.2 406.9,511.3 391.6,489.5 392.3,484.5 391.6,489.4 383.1,495.2 382.9,495.2 378,529.2 "
     id="polygon511"
     transform="translate(-155.90259,-189.22595)"
     style="fill:none;stroke:#ffffff;stroke-width:0.5;stroke-miterlimit:10" /><path
     class="st6"
     d="m 226.99741,305.97405 h -26.5 l 0.1,-0.9 -18.8,18.4 21.3,17 18.8,0.8 v -1.2 z m 2.9,-1.9 v 0 l -2.7,1.9 z"
     id="path513"
     inkscape:connector-curvature="0"
     style="fill:#a6caeb" /><path
     class="st1"
     d="m 226.99741,305.97405 h -26.5 l 0.1,-0.9 -18.8,18.4 21.3,17 18.8,0.8 v -1.2 z m 2.9,-1.9 v 0 l -2.7,1.9 z"
     id="path515"
     inkscape:connector-curvature="0"
     style="fill:none;stroke:#ffffff;stroke-width:0.5;stroke-miterlimit:10" /><path
     class="st7"
     d="m 79.797406,320.07405 2.1,-2.1 z m 65.700004,8.5 -16.7,-8 h -31.7 l -13.500004,-2.3 16.100004,30.8 -7.800004,8.2 20.900004,3.7 z"
     id="path517"
     inkscape:connector-curvature="0"
     style="fill:#a8d2f1" /><path
     class="st1"
     d="m 79.797406,320.07405 2.1,-2.1 z m 65.700004,8.5 -16.7,-8 h -31.7 l -13.500004,-2.3 16.100004,30.8 -7.800004,8.2 20.900004,3.7 z"
     id="path519"
     inkscape:connector-curvature="0"
     style="fill:none;stroke:#ffffff;stroke-width:0.5;stroke-miterlimit:10" /><polygon
     class="st5"
     points="237.8,507.2 202.1,542.1 198.6,554.8 234,560.8 255.5,538.2 239.5,507.5 "
     id="polygon521"
     transform="translate(-155.90259,-189.22595)"
     style="fill:#a7cee8" /><polygon
     class="st1"
     points="237.8,507.2 202.1,542.1 198.6,554.8 234,560.8 255.5,538.2 239.5,507.5 "
     id="polygon523"
     transform="translate(-155.90259,-189.22595)"
     style="fill:none;stroke:#ffffff;stroke-width:0.5;stroke-miterlimit:10" /><polygon
     class="st7"
     points="195.3,613.4 228.9,584.7 229,584.8 234.6,560.9 198.6,554.8 187.9,593.1 196.5,616.6 "
     id="polygon525"
     transform="translate(-155.90259,-189.22595)"
     style="fill:#a8d2f1" /><polygon
     class="st1"
     points="195.3,613.4 228.9,584.7 229,584.8 234.6,560.9 198.6,554.8 187.9,593.1 196.5,616.6 "
     id="polygon527"
     transform="translate(-155.90259,-189.22595)"
     style="fill:none;stroke:#ffffff;stroke-width:0.5;stroke-miterlimit:10" /><polygon
     class="st6"
     points="246.5,591 228.9,584.7 195.3,613.4 198.1,620.9 187.9,655.6 217.3,676.5 236.8,670.3 239,670.5 232.4,676.5 239.1,670.4 268.1,672 269.1,677.5 268.2,672.2 270.8,651.1 260.6,649.9 241.4,618.7 "
     id="polygon529"
     transform="translate(-155.90259,-189.22595)"
     style="fill:#a6caeb" /><polygon
     class="st1"
     points="246.5,591 228.9,584.7 195.3,613.4 198.1,620.9 187.9,655.6 217.3,676.5 236.8,670.3 239,670.5 232.4,676.5 239.1,670.4 268.1,672 269.1,677.5 268.2,672.2 270.8,651.1 260.6,649.9 241.4,618.7 "
     id="polygon531"
     transform="translate(-155.90259,-189.22595)"
     style="fill:none;stroke:#ffffff;stroke-width:0.5;stroke-miterlimit:10" /><polygon
     class="st10"
     points="279,564.5 268.1,550.1 268.6,550.1 247.7,546.4 255.5,538.2 234,560.8 224.4,559.2 234.6,560.9 229,584.8 228.9,584.7 246.5,591 241.4,618.7 260.6,649.9 270.8,651.1 272.5,636.9 279.2,633.2 272,587.6 "
     id="polygon533"
     transform="translate(-155.90259,-189.22595)"
     style="fill:#c7dff3" /><polygon
     class="st1"
     points="279,564.5 268.1,550.1 268.6,550.1 247.7,546.4 255.5,538.2 234,560.8 224.4,559.2 234.6,560.9 229,584.8 228.9,584.7 246.5,591 241.4,618.7 260.6,649.9 270.8,651.1 272.5,636.9 279.2,633.2 272,587.6 "
     id="polygon535"
     transform="translate(-155.90259,-189.22595)"
     style="fill:none;stroke:#ffffff;stroke-width:0.5;stroke-miterlimit:10" /><path
     class="st5"
     d="m 174.09741,362.27405 v 0 l -3.8,-6.4 z m 43,12.3 10.6,-9.6 -6.2,-9.6 0.5,-14.1 -18.8,-0.8 -1.4,-1.1 1.6,1.2 -5.1,14.7 -23.1,8.2 20.8,23.5 29.9,12 5.6,-17.1 -4.3,13 z"
     id="path537"
     inkscape:connector-curvature="0"
     style="fill:#a7cee8" /><path
     class="st1"
     d="m 174.09741,362.27405 v 0 l -3.8,-6.4 z m 43,12.3 10.6,-9.6 -6.2,-9.6 0.5,-14.1 -18.8,-0.8 -1.4,-1.1 1.6,1.2 -5.1,14.7 -23.1,8.2 20.8,23.5 29.9,12 5.6,-17.1 -4.3,13 z"
     id="path539"
     inkscape:connector-curvature="0"
     style="fill:none;stroke:#ffffff;stroke-width:0.5;stroke-miterlimit:10" /><path
     class="st8"
     d="m 150.69741,331.07405 -0.7,-0.3 z m 52.7,9.4 -36,-28.6 -9.7,22.6 -0.3,-0.1 17.6,29.3 23.3,-8.3 z"
     id="path541"
     inkscape:connector-curvature="0"
     style="fill:#cee5f7" /><path
     class="st1"
     d="m 150.69741,331.07405 -0.7,-0.3 z m 52.7,9.4 -36,-28.6 -9.7,22.6 -0.3,-0.1 17.6,29.3 23.3,-8.3 z"
     id="path543"
     inkscape:connector-curvature="0"
     style="fill:none;stroke:#ffffff;stroke-width:0.5;stroke-miterlimit:10" /><path
     class="st7"
     d="m 173.59741,361.27405 -0.8,-1.4 -1.9,-3.2 z m 22.4,25.7 -20.8,-23.5 8.7,-3.1 -9,3.2 -0.8,-1.3 0.9,1.5 -10.1,4.7 3.8,20.8 10.1,6.2 v 23.3 l 19.4,-6.2 13.2,6.8 10.1,-7.2 v 0.1 l 4.4,-13.2 z"
     id="path545"
     inkscape:connector-curvature="0"
     style="fill:#a8d2f1" /><path
     class="st1"
     d="m 173.59741,361.27405 -0.8,-1.4 -1.9,-3.2 z m 22.4,25.7 -20.8,-23.5 8.7,-3.1 -9,3.2 -0.8,-1.3 0.9,1.5 -10.1,4.7 3.8,20.8 10.1,6.2 v 23.3 l 19.4,-6.2 13.2,6.8 10.1,-7.2 v 0.1 l 4.4,-13.2 z"
     id="path547"
     inkscape:connector-curvature="0"
     style="fill:none;stroke:#ffffff;stroke-width:0.5;stroke-miterlimit:10" /><polygon
     class="st6"
     points="268.1,550.1 286.1,574 330.9,553 313.3,523.5 297.2,515.8 301.4,517.8 268.6,550.1 "
     id="polygon549"
     transform="translate(-155.90259,-189.22595)"
     style="fill:#a6caeb" /><polygon
     class="st1"
     points="268.1,550.1 286.1,574 330.9,553 313.3,523.5 297.2,515.8 301.4,517.8 268.6,550.1 "
     id="polygon551"
     transform="translate(-155.90259,-189.22595)"
     style="fill:none;stroke:#ffffff;stroke-width:0.5;stroke-miterlimit:10" /><polygon
     class="st7"
     points="279,564.5 272,587.6 279.2,633.2 296.9,623.3 306.4,604.9 303.7,597.8 288.4,579.1 286.1,574 "
     id="polygon553"
     transform="translate(-155.90259,-189.22595)"
     style="fill:#a8d2f1" /><polygon
     class="st1"
     points="279,564.5 272,587.6 279.2,633.2 296.9,623.3 306.4,604.9 303.7,597.8 288.4,579.1 286.1,574 "
     id="polygon555"
     transform="translate(-155.90259,-189.22595)"
     style="fill:none;stroke:#ffffff;stroke-width:0.5;stroke-miterlimit:10" /><polygon
     class="st8"
     points="314.5,619.3 306.4,605.1 296.9,623.3 272.5,636.9 268.2,672.2 272.5,698.1 287.3,701 287.6,702.2 303.2,668.1 314.5,658.4 319.6,661.3 340.5,643.2 330.5,621 "
     id="polygon557"
     transform="translate(-155.90259,-189.22595)"
     style="fill:#cee5f7" /><polygon
     class="st1"
     points="314.5,619.3 306.4,605.1 296.9,623.3 272.5,636.9 268.2,672.2 272.5,698.1 287.3,701 287.6,702.2 303.2,668.1 314.5,658.4 319.6,661.3 340.5,643.2 330.5,621 "
     id="polygon559"
     transform="translate(-155.90259,-189.22595)"
     style="fill:none;stroke:#ffffff;stroke-width:0.5;stroke-miterlimit:10" /><path
     class="st6"
     d="m 205.99741,466.87405 -0.8,-7.4 z m 15.5,-54.6 v 0 l -10,7.1 -13.2,-6.8 -19.4,6.2 -19.4,11.4 15.2,1.6 10,22.2 h 0.1 l 20.7,5.5 h -0.1 l 34.6,-20.1 z"
     id="path561"
     inkscape:connector-curvature="0"
     style="fill:#a6caeb" /><path
     class="st1"
     d="m 205.99741,466.87405 -0.8,-7.4 z m 15.5,-54.6 v 0 l -10,7.1 -13.2,-6.8 -19.4,6.2 -19.4,11.4 15.2,1.6 10,22.2 h 0.1 l 20.7,5.5 h -0.1 l 34.6,-20.1 z"
     id="path563"
     inkscape:connector-curvature="0"
     style="fill:none;stroke:#ffffff;stroke-width:0.5;stroke-miterlimit:10" /><path
     class="st11"
     d="m 231.09741,203.77405 v 0 l -0.5,-0.1 z m 13.1,21.4 6,-16.9 -15.8,-4 -3.3,-0.5 -0.9,11.6 0.8,14 -0.1,-1.4 9.8,-9.5 z"
     id="path565"
     inkscape:connector-curvature="0"
     style="fill:#c4d5e0" /><path
     class="st1"
     d="m 231.09741,203.77405 v 0 l -0.5,-0.1 z m 13.1,21.4 6,-16.9 -15.8,-4 -3.3,-0.5 -0.9,11.6 0.8,14 -0.1,-1.4 9.8,-9.5 z"
     id="path567"
     inkscape:connector-curvature="0"
     style="fill:none;stroke:#ffffff;stroke-width:0.5;stroke-miterlimit:10" /><polygon
     class="st12"
     points="385.1,441.4 399.8,440.5 407.2,428.8 396.7,407.6 386.9,417.1 387.5,427.3 "
     id="polygon569"
     transform="translate(-155.90259,-189.22595)"
     style="fill:#ebebde" /><polygon
     class="st1"
     points="385.1,441.4 399.8,440.5 407.2,428.8 396.7,407.6 386.9,417.1 387.5,427.3 "
     id="polygon571"
     transform="translate(-155.90259,-189.22595)"
     style="fill:none;stroke:#ffffff;stroke-width:0.5;stroke-miterlimit:10" /><polygon
     class="st13"
     points="645.6,399.6 669.6,403 678.8,375.2 659.9,351.9 643.3,365.6 631.4,365.6 631.1,375.5 636.7,384 639.1,390.8 645.4,399.8 "
     id="polygon573"
     transform="translate(-155.90259,-189.22595)"
     style="fill:#d7d8d3" /><polygon
     class="st1"
     points="645.6,399.6 669.6,403 678.8,375.2 659.9,351.9 643.3,365.6 631.4,365.6 631.1,375.5 636.7,384 639.1,390.8 645.4,399.8 "
     id="polygon575"
     transform="translate(-155.90259,-189.22595)"
     style="fill:none;stroke:#ffffff;stroke-width:0.5;stroke-miterlimit:10" /><polygon
     class="st14"
     points="606.7,397.5 631,408.4 645.6,399.6 645.4,399.8 639.1,390.8 636.7,384 631.1,375.5 631.4,365.7 627.4,363.6 614.4,363.1 603.5,362.8 602.2,380.1 604.2,392.8 "
     id="polygon577"
     transform="translate(-155.90259,-189.22595)"
     style="fill:#c3d0de" /><polygon
     class="st1"
     points="606.7,397.5 631,408.4 645.6,399.6 645.4,399.8 639.1,390.8 636.7,384 631.1,375.5 631.4,365.7 627.4,363.6 614.4,363.1 603.5,362.8 602.2,380.1 604.2,392.8 "
     id="polygon579"
     transform="translate(-155.90259,-189.22595)"
     style="fill:none;stroke:#ffffff;stroke-width:0.5;stroke-miterlimit:10" /><polygon
     class="st11"
     points="636.9,350.4 636.9,336.3 598.4,344.2 591.9,348.1 603.3,362.8 614.4,363.1 627.4,363.6 631.4,365.7 631.4,365.6 643.3,365.6 659.9,351.9 664.8,358 656.9,348.2 "
     id="polygon581"
     transform="translate(-155.90259,-189.22595)"
     style="fill:#c4d5e0" /><polygon
     class="st1"
     points="636.9,350.4 636.9,336.3 598.4,344.2 591.9,348.1 603.3,362.8 614.4,363.1 627.4,363.6 631.4,365.7 631.4,365.6 643.3,365.6 659.9,351.9 664.8,358 656.9,348.2 "
     id="polygon583"
     transform="translate(-155.90259,-189.22595)"
     style="fill:none;stroke:#ffffff;stroke-width:0.5;stroke-miterlimit:10" /><polygon
     class="st15"
     points="431.3,438.4 421.1,427.4 407,428.5 407.2,428.8 399.8,440.5 397,440.6 400,440.4 404.1,450.1 399.2,459.4 407.8,459.2 413.7,465.7 420,475.7 429,473 431.3,461.1 426.5,452.1 "
     id="polygon585"
     transform="translate(-155.90259,-189.22595)"
     style="fill:#c6cfcc" /><polygon
     class="st1"
     points="431.3,438.4 421.1,427.4 407,428.5 407.2,428.8 399.8,440.5 397,440.6 400,440.4 404.1,450.1 399.2,459.4 407.8,459.2 413.7,465.7 420,475.7 429,473 431.3,461.1 426.5,452.1 "
     id="polygon587"
     transform="translate(-155.90259,-189.22595)"
     style="fill:none;stroke:#ffffff;stroke-width:0.5;stroke-miterlimit:10" /><polygon
     class="st13"
     points="449.1,474.5 431,460.5 431.3,461.1 429,473 420,475.7 424.5,482.9 442.1,496.7 456.9,503.8 466.6,506.4 468.1,496 461.6,489.2 "
     id="polygon589"
     transform="translate(-155.90259,-189.22595)"
     style="fill:#d7d8d3" /><polygon
     class="st1"
     points="449.1,474.5 431,460.5 431.3,461.1 429,473 420,475.7 424.5,482.9 442.1,496.7 456.9,503.8 466.6,506.4 468.1,496 461.6,489.2 "
     id="polygon591"
     transform="translate(-155.90259,-189.22595)"
     style="fill:none;stroke:#ffffff;stroke-width:0.5;stroke-miterlimit:10" /><polygon
     class="st14"
     points="406.1,397.4 400.1,414.4 407,428.5 421.1,427.4 431.6,438.7 436.4,435.3 433,398.3 418.5,400.6 "
     id="polygon593"
     transform="translate(-155.90259,-189.22595)"
     style="fill:#c3d0de" /><polygon
     class="st1"
     points="406.1,397.4 400.1,414.4 407,428.5 421.1,427.4 431.6,438.7 436.4,435.3 433,398.3 418.5,400.6 "
     id="polygon595"
     transform="translate(-155.90259,-189.22595)"
     style="fill:none;stroke:#ffffff;stroke-width:0.5;stroke-miterlimit:10" /><polygon
     class="st16"
     points="451.1,440.4 436.3,434.9 436.4,435.3 431.6,438.7 431.3,438.4 426.5,452.1 431.3,461.1 431,460.5 449.1,474.5 449.6,475 460.5,470.8 467.8,466 467.9,466 467,457.5 453.1,447.3 451.4,440.4 "
     id="polygon597"
     transform="translate(-155.90259,-189.22595)"
     style="fill:#dfe5dd" /><polygon
     class="st1"
     points="451.1,440.4 436.3,434.9 436.4,435.3 431.6,438.7 431.3,438.4 426.5,452.1 431.3,461.1 431,460.5 449.1,474.5 449.6,475 460.5,470.8 467.8,466 467.9,466 467,457.5 453.1,447.3 451.4,440.4 "
     id="polygon599"
     transform="translate(-155.90259,-189.22595)"
     style="fill:none;stroke:#ffffff;stroke-width:0.5;stroke-miterlimit:10" /><path
     class="st15"
     d="m 325.59741,321.37405 19.4,4.1 0.7,-9 -13.7,-13 1.4,-13.9 -21.5,-12.8 -7.4,4.8 -10.8,4.3 12,14.2 6.5,6.8 -1.5,10.4 z m -24.6,-6.8 -4.4,-2.1 z"
     id="path601"
     inkscape:connector-curvature="0"
     style="fill:#c6cfcc" /><path
     class="st1"
     d="m 325.59741,321.37405 19.4,4.1 0.7,-9 -13.7,-13 1.4,-13.9 -21.5,-12.8 -7.4,4.8 -10.8,4.3 12,14.2 6.5,6.8 -1.5,10.4 z m -24.6,-6.8 -4.4,-2.1 z"
     id="path603"
     inkscape:connector-curvature="0"
     style="fill:none;stroke:#ffffff;stroke-width:0.5;stroke-miterlimit:10" /><polygon
     class="st11"
     points="545.6,524.2 546.9,524.4 556.2,538.3 609.1,548 607.9,530 580.1,511.3 568.6,517.3 557.4,514.7 "
     id="polygon605"
     transform="translate(-155.90259,-189.22595)"
     style="fill:#c4d5e0" /><polygon
     class="st1"
     points="545.6,524.2 546.9,524.4 556.2,538.3 609.1,548 607.9,530 580.1,511.3 568.6,517.3 557.4,514.7 "
     id="polygon607"
     transform="translate(-155.90259,-189.22595)"
     style="fill:none;stroke:#ffffff;stroke-width:0.5;stroke-miterlimit:10" /><polygon
     class="st14"
     points="636.2,452.6 613.5,451.5 612.1,461.7 624.9,477.9 617.1,488.3 617.8,488.4 645.4,513.7 641.2,517.7 654.7,504.8 666.5,470.1 644.2,463.4 "
     id="polygon609"
     transform="translate(-155.90259,-189.22595)"
     style="fill:#c3d0de" /><polygon
     class="st1"
     points="636.2,452.6 613.5,451.5 612.1,461.7 624.9,477.9 617.1,488.3 617.8,488.4 645.4,513.7 641.2,517.7 654.7,504.8 666.5,470.1 644.2,463.4 "
     id="polygon611"
     transform="translate(-155.90259,-189.22595)"
     style="fill:none;stroke:#ffffff;stroke-width:0.5;stroke-miterlimit:10" /><path
     class="st13"
     d="m 507.49741,290.17405 v 0 l 2.1,-6.2 z m 3.2,-9.5 -9.7,-28.4 -19.8,-11.5 -23.5,-7.1 -3.1,22.7 4,6 21.8,1.1 7.9,10.8 22.4,6.7 z"
     id="path613"
     inkscape:connector-curvature="0"
     style="fill:#d7d8d3" /><path
     class="st1"
     d="m 507.49741,290.17405 v 0 l 2.1,-6.2 z m 3.2,-9.5 -9.7,-28.4 -19.8,-11.5 -23.5,-7.1 -3.1,22.7 4,6 21.8,1.1 7.9,10.8 22.4,6.7 z"
     id="path615"
     inkscape:connector-curvature="0"
     style="fill:none;stroke:#ffffff;stroke-width:0.5;stroke-miterlimit:10" /><polygon
     class="st16"
     points="614.1,423 637.1,430 657,441.5 656.9,441.3 669.6,403 645.6,399.6 631,408.4 606.5,397.4 605.5,410.7 "
     id="polygon617"
     transform="translate(-155.90259,-189.22595)"
     style="fill:#dfe5dd" /><polygon
     class="st1"
     points="614.1,423 637.1,430 657,441.5 656.9,441.3 669.6,403 645.6,399.6 631,408.4 606.5,397.4 605.5,410.7 "
     id="polygon619"
     transform="translate(-155.90259,-189.22595)"
     style="fill:none;stroke:#ffffff;stroke-width:0.5;stroke-miterlimit:10" /><path
     class="st13"
     d="m 435.99741,158.87405 -7.5,4.4 -10.2,-2.6 4,19.1 7.9,10.5 0.3,27.2 19.4,4.4 -0.3,-0.4 1.3,-13.2 -2.6,-4.7 -2,-12.8 1.3,-17.3 h -0.2 z m 5.9,-3.5 v 0 l -3.6,2.1 z"
     id="path621"
     inkscape:connector-curvature="0"
     style="fill:#d7d8d3" /><path
     class="st1"
     d="m 435.99741,158.87405 -7.5,4.4 -10.2,-2.6 4,19.1 7.9,10.5 0.3,27.2 19.4,4.4 -0.3,-0.4 1.3,-13.2 -2.6,-4.7 -2,-12.8 1.3,-17.3 h -0.2 z m 5.9,-3.5 v 0 l -3.6,2.1 z"
     id="path623"
     inkscape:connector-curvature="0"
     style="fill:none;stroke:#ffffff;stroke-width:0.5;stroke-miterlimit:10" /><polygon
     class="st16"
     points="570.5,492.3 580.1,511.3 607.9,530 609.1,548 609.3,548 645.4,513.7 617.8,488.4 575.7,487.8 "
     id="polygon625"
     transform="translate(-155.90259,-189.22595)"
     style="fill:#dfe5dd" /><polygon
     class="st1"
     points="570.5,492.3 580.1,511.3 607.9,530 609.1,548 609.3,548 645.4,513.7 617.8,488.4 575.7,487.8 "
     id="polygon627"
     transform="translate(-155.90259,-189.22595)"
     style="fill:none;stroke:#ffffff;stroke-width:0.5;stroke-miterlimit:10" /><polygon
     class="st17"
     points="617.1,488.3 624.9,477.9 612.1,461.7 613.5,451.5 614.4,451.5 610.4,445.5 613.5,422.9 614.1,423 605.6,410.8 605.8,411.1 605.4,411 587,428.8 585.6,456.3 590.6,468.8 590.8,488 "
     id="polygon629"
     transform="translate(-155.90259,-189.22595)"
     style="fill:#d8dee3" /><polygon
     class="st1"
     points="617.1,488.3 624.9,477.9 612.1,461.7 613.5,451.5 614.4,451.5 610.4,445.5 613.5,422.9 614.1,423 605.6,410.8 605.8,411.1 605.4,411 587,428.8 585.6,456.3 590.6,468.8 590.8,488 "
     id="polygon631"
     transform="translate(-155.90259,-189.22595)"
     style="fill:none;stroke:#ffffff;stroke-width:0.5;stroke-miterlimit:10" /><path
     class="st12"
     d="m 326.19741,321.47405 v 0 l 0.9,0.2 z m 63.4,-1.7 -15.9,-1.7 0.8,-14.2 -14.2,-13.6 -27.1,-0.9 v 0 l -1.4,13.9 13.7,13 -0.7,9 45.6,9.7 z"
     id="path633"
     inkscape:connector-curvature="0"
     style="fill:#ebebde" /><path
     class="st1"
     d="m 326.19741,321.47405 v 0 l 0.9,0.2 z m 63.4,-1.7 -15.9,-1.7 0.8,-14.2 -14.2,-13.6 -27.1,-0.9 v 0 l -1.4,13.9 13.7,13 -0.7,9 45.6,9.7 z"
     id="path635"
     inkscape:connector-curvature="0"
     style="fill:none;stroke:#ffffff;stroke-width:0.5;stroke-miterlimit:10" /><polygon
     class="st11"
     points="491.7,464.5 485.7,451.5 461.9,438.1 461.9,438.2 451.1,440.4 451.4,440.4 453.1,447.3 467,457.5 467.9,466 467.8,466 489.2,478.7 498.6,479 500.2,467.1 "
     id="polygon637"
     transform="translate(-155.90259,-189.22595)"
     style="fill:#c4d5e0" /><polygon
     class="st1"
     points="491.7,464.5 485.7,451.5 461.9,438.1 461.9,438.2 451.1,440.4 451.4,440.4 453.1,447.3 467,457.5 467.9,466 467.8,466 489.2,478.7 498.6,479 500.2,467.1 "
     id="polygon639"
     transform="translate(-155.90259,-189.22595)"
     style="fill:none;stroke:#ffffff;stroke-width:0.5;stroke-miterlimit:10" /><polygon
     class="st17"
     points="457.7,394.5 428.8,399 433,398.3 436.3,434.9 451.1,440.4 461.9,438.2 460.8,424.9 461.9,416.4 468.6,413.4 458.3,393.2 460.2,389 "
     id="polygon641"
     transform="translate(-155.90259,-189.22595)"
     style="fill:#d8dee3" /><polygon
     class="st1"
     points="457.7,394.5 428.8,399 433,398.3 436.3,434.9 451.1,440.4 461.9,438.2 460.8,424.9 461.9,416.4 468.6,413.4 458.3,393.2 460.2,389 "
     id="polygon643"
     transform="translate(-155.90259,-189.22595)"
     style="fill:none;stroke:#ffffff;stroke-width:0.5;stroke-miterlimit:10" /><polygon
     class="st16"
     points="532.5,380.9 516.6,359.7 515.9,335.7 464.2,379 464,380.7 475.1,388.6 502.7,390.3 "
     id="polygon645"
     transform="translate(-155.90259,-189.22595)"
     style="fill:#dfe5dd" /><polygon
     class="st1"
     points="532.5,380.9 516.6,359.7 515.9,335.7 464.2,379 464,380.7 475.1,388.6 502.7,390.3 "
     id="polygon647"
     transform="translate(-155.90259,-189.22595)"
     style="fill:none;stroke:#ffffff;stroke-width:0.5;stroke-miterlimit:10" /><polygon
     class="st13"
     points="516.6,359.7 532.5,380.9 551.6,383.9 563,372.4 560.5,346.5 566.4,348 516.5,335.3 515.9,335.7 "
     id="polygon649"
     transform="translate(-155.90259,-189.22595)"
     style="fill:#d7d8d3" /><polygon
     class="st1"
     points="516.6,359.7 532.5,380.9 551.6,383.9 563,372.4 560.5,346.5 566.4,348 516.5,335.3 515.9,335.7 "
     id="polygon651"
     transform="translate(-155.90259,-189.22595)"
     style="fill:none;stroke:#ffffff;stroke-width:0.5;stroke-miterlimit:10" /><path
     class="st15"
     d="m 376.59741,191.67405 -29.8,9.4 0.5,-0.2 8,8.4 26.4,7.1 v 0 l 15.4,-1.4 0.6,-5.5 4.1,-1.2 -4.6,1.4 -1.6,-14.7 2.4,-2.4 -2.2,2.2 z m -3.5,-4.7 3.5,4.7 z"
     id="path653"
     inkscape:connector-curvature="0"
     style="fill:#c6cfcc" /><path
     class="st1"
     d="m 376.59741,191.67405 -29.8,9.4 0.5,-0.2 8,8.4 26.4,7.1 v 0 l 15.4,-1.4 0.6,-5.5 4.1,-1.2 -4.6,1.4 -1.6,-14.7 2.4,-2.4 -2.2,2.2 z m -3.5,-4.7 3.5,4.7 z"
     id="path655"
     inkscape:connector-curvature="0"
     style="fill:none;stroke:#ffffff;stroke-width:0.5;stroke-miterlimit:10" /><polygon
     class="st12"
     points="553,398.8 586.2,389 586.1,379.5 578.1,369 574.2,349.9 584.1,352.5 560.5,346.5 563,372.4 551.5,384 "
     id="polygon657"
     transform="translate(-155.90259,-189.22595)"
     style="fill:#ebebde" /><polygon
     class="st1"
     points="553,398.8 586.2,389 586.1,379.5 578.1,369 574.2,349.9 584.1,352.5 560.5,346.5 563,372.4 551.5,384 "
     id="polygon659"
     transform="translate(-155.90259,-189.22595)"
     style="fill:none;stroke:#ffffff;stroke-width:0.5;stroke-miterlimit:10" /><polygon
     class="st13"
     points="511.2,398.5 503.2,390.1 502.7,390.3 475.1,388.6 464,380.7 464.2,379 464,380.7 458.3,393.2 468.7,413.5 518.6,408.4 531.1,414.4 537.6,405.6 "
     id="polygon661"
     transform="translate(-155.90259,-189.22595)"
     style="fill:#d7d8d3" /><polygon
     class="st1"
     points="511.2,398.5 503.2,390.1 502.7,390.3 475.1,388.6 464,380.7 464.2,379 464,380.7 458.3,393.2 468.7,413.5 518.6,408.4 531.1,414.4 537.6,405.6 "
     id="polygon663"
     transform="translate(-155.90259,-189.22595)"
     style="fill:none;stroke:#ffffff;stroke-width:0.5;stroke-miterlimit:10" /><polygon
     class="st15"
     points="526.4,466.4 526.5,466.2 543.7,476.4 540.8,474.7 545,459.2 568.4,436 570.4,437 565.4,434.5 550.6,429.8 544.7,438.5 531.1,440.4 520.9,430.9 504.9,441.4 503.1,439 505.5,442.2 505,441.6 "
     id="polygon665"
     transform="translate(-155.90259,-189.22595)"
     style="fill:#c6cfcc" /><polygon
     class="st1"
     points="526.4,466.4 526.5,466.2 543.7,476.4 540.8,474.7 545,459.2 568.4,436 570.4,437 565.4,434.5 550.6,429.8 544.7,438.5 531.1,440.4 520.9,430.9 504.9,441.4 503.1,439 505.5,442.2 505,441.6 "
     id="polygon667"
     transform="translate(-155.90259,-189.22595)"
     style="fill:none;stroke:#ffffff;stroke-width:0.5;stroke-miterlimit:10" /><polygon
     class="st13"
     points="590.8,488 590.6,468.8 585.6,456.3 586.2,445 568.4,436 545,459.2 540.8,474.7 570.6,492.2 575.7,487.8 "
     id="polygon669"
     transform="translate(-155.90259,-189.22595)"
     style="fill:#d7d8d3" /><polygon
     class="st1"
     points="590.8,488 590.6,468.8 585.6,456.3 586.2,445 568.4,436 545,459.2 540.8,474.7 570.6,492.2 575.7,487.8 "
     id="polygon671"
     transform="translate(-155.90259,-189.22595)"
     style="fill:none;stroke:#ffffff;stroke-width:0.5;stroke-miterlimit:10" /><path
     class="st14"
     d="m 378.99741,332.67405 v 0 l 7.9,1.7 z m 35.7,-29.7 -44.1,-26 -11.1,13.3 h 0.9 l 14.2,13.6 -0.9,14.2 15.9,1.7 1,14.4 10.9,-8.7 11.2,2.6 11.5,-6 v 0 l -9.6,-19 z"
     id="path673"
     inkscape:connector-curvature="0"
     style="fill:#c3d0de" /><path
     class="st1"
     d="m 378.99741,332.67405 v 0 l 7.9,1.7 z m 35.7,-29.7 -44.1,-26 -11.1,13.3 h 0.9 l 14.2,13.6 -0.9,14.2 15.9,1.7 1,14.4 10.9,-8.7 11.2,2.6 11.5,-6 v 0 l -9.6,-19 z"
     id="path675"
     inkscape:connector-curvature="0"
     style="fill:none;stroke:#ffffff;stroke-width:0.5;stroke-miterlimit:10" /><polygon
     class="st13"
     points="500.2,467.1 498.6,479 516.3,479.6 515.4,479.5 526.4,466.4 505,441.6 491.1,463.4 491.7,464.5 "
     id="polygon677"
     transform="translate(-155.90259,-189.22595)"
     style="fill:#d7d8d3" /><polygon
     class="st1"
     points="500.2,467.1 498.6,479 516.3,479.6 515.4,479.5 526.4,466.4 505,441.6 491.1,463.4 491.7,464.5 "
     id="polygon679"
     transform="translate(-155.90259,-189.22595)"
     style="fill:none;stroke:#ffffff;stroke-width:0.5;stroke-miterlimit:10" /><polygon
     class="st14"
     points="468.6,413.2 468.6,413.4 461.9,416.4 460.8,424.9 461.9,438.2 461.9,438.1 485.7,451.5 491.1,463.4 505,441.6 505.5,442.2 492.5,424.9 "
     id="polygon681"
     transform="translate(-155.90259,-189.22595)"
     style="fill:#c3d0de" /><polygon
     class="st1"
     points="468.6,413.2 468.6,413.4 461.9,416.4 460.8,424.9 461.9,438.2 461.9,438.1 485.7,451.5 491.1,463.4 505,441.6 505.5,442.2 492.5,424.9 "
     id="polygon683"
     transform="translate(-155.90259,-189.22595)"
     style="fill:none;stroke:#ffffff;stroke-width:0.5;stroke-miterlimit:10" /><polygon
     class="st11"
     points="531.1,414.4 518.6,408.4 518.2,408.5 531.1,424.3 520.9,430.9 531.1,440.4 544.7,438.5 550.6,429.8 550.3,429.7 553.3,400.6 552.9,404.2 537.6,405.6 "
     id="polygon685"
     transform="translate(-155.90259,-189.22595)"
     style="fill:#c4d5e0" /><polygon
     class="st1"
     points="531.1,414.4 518.6,408.4 518.2,408.5 531.1,424.3 520.9,430.9 531.1,440.4 544.7,438.5 550.6,429.8 550.3,429.7 553.3,400.6 552.9,404.2 537.6,405.6 "
     id="polygon687"
     transform="translate(-155.90259,-189.22595)"
     style="fill:none;stroke:#ffffff;stroke-width:0.5;stroke-miterlimit:10" /><path
     class="st16"
     d="m 312.69741,224.07405 -3.6,-7 z m 36.3,28.1 26.1,-17.1 -12.8,-15.8 -49.2,5 23.5,11.4 z"
     id="path689"
     inkscape:connector-curvature="0"
     style="fill:#dfe5dd" /><path
     class="st1"
     d="m 312.69741,224.07405 -3.6,-7 z m 36.3,28.1 26.1,-17.1 -12.8,-15.8 -49.2,5 23.5,11.4 z"
     id="path691"
     inkscape:connector-curvature="0"
     style="fill:none;stroke:#ffffff;stroke-width:0.5;stroke-miterlimit:10" /><path
     class="st14"
     d="m 449.69741,221.57405 v 0 l -0.1,-0.2 z m -52.1,-12.2 -3.2,31 15,4.8 20.9,10.5 0.8,-16.2 18.3,-17.8 0.4,0.1 -19.4,-4.4 -0.2,-21.2 v 3.4 z"
     id="path693"
     inkscape:connector-curvature="0"
     style="fill:#c3d0de" /><path
     class="st1"
     d="m 449.69741,221.57405 v 0 l -0.1,-0.2 z m -52.1,-12.2 -3.2,31 15,4.8 20.9,10.5 0.8,-16.2 18.3,-17.8 0.4,0.1 -19.4,-4.4 -0.2,-21.2 v 3.4 z"
     id="path695"
     inkscape:connector-curvature="0"
     style="fill:none;stroke:#ffffff;stroke-width:0.5;stroke-miterlimit:10" /><polygon
     class="st18"
     points="242.8,473.9 261.2,481.5 267.4,476.2 272,474.7 278.1,478.7 286.7,475.6 294.1,464.8 298.1,464.5 298.1,448.4 298.7,447.4 263.9,431.9 249.9,446.4 255,463.1 "
     id="polygon697"
     transform="translate(-155.90259,-189.22595)"
     style="fill:#cdd9ee" /><polygon
     class="st1"
     points="242.8,473.9 261.2,481.5 267.4,476.2 272,474.7 278.1,478.7 286.7,475.6 294.1,464.8 298.1,464.5 298.1,448.4 298.7,447.4 263.9,431.9 249.9,446.4 255,463.1 "
     id="polygon699"
     transform="translate(-155.90259,-189.22595)"
     style="fill:none;stroke:#ffffff;stroke-width:0.5;stroke-miterlimit:10" /><polygon
     class="st19"
     points="249.3,391.7 246,394.3 248.8,392.2 272.4,395.7 272.5,396 270.4,381.3 235.5,374.7 236.4,386.1 "
     id="polygon701"
     transform="translate(-155.90259,-189.22595)"
     style="fill:#e0e1f1" /><polygon
     class="st1"
     points="249.3,391.7 246,394.3 248.8,392.2 272.4,395.7 272.5,396 270.4,381.3 235.5,374.7 236.4,386.1 "
     id="polygon703"
     transform="translate(-155.90259,-189.22595)"
     style="fill:none;stroke:#ffffff;stroke-width:0.5;stroke-miterlimit:10" /><polygon
     class="st20"
     points="315.5,403.7 341.6,416.4 345,407.7 356.4,389.1 356.8,389.2 304.2,382.6 307.4,383 315.6,403.6 "
     id="polygon705"
     transform="translate(-155.90259,-189.22595)"
     style="fill:#c4d0e0" /><polygon
     class="st1"
     points="315.5,403.7 341.6,416.4 345,407.7 356.4,389.1 356.8,389.2 304.2,382.6 307.4,383 315.6,403.6 "
     id="polygon707"
     transform="translate(-155.90259,-189.22595)"
     style="fill:none;stroke:#ffffff;stroke-width:0.5;stroke-miterlimit:10" /><polygon
     class="st20"
     points="206.4,455.9 178.3,470 184.8,510.7 232.9,488.9 234.3,478.4 216.4,478.1 "
     id="polygon709"
     transform="translate(-155.90259,-189.22595)"
     style="fill:#c4d0e0" /><polygon
     class="st1"
     points="206.4,455.9 178.3,470 184.8,510.7 232.9,488.9 234.3,478.4 216.4,478.1 "
     id="polygon711"
     transform="translate(-155.90259,-189.22595)"
     style="fill:none;stroke:#ffffff;stroke-width:0.5;stroke-miterlimit:10" /><polygon
     class="st18"
     points="332.5,430.7 333,431.9 324.1,438.2 323.8,438 321.6,445.3 334.9,474.9 346,461.8 358.4,452.6 337.6,441.5 337.3,441 "
     id="polygon713"
     transform="translate(-155.90259,-189.22595)"
     style="fill:#cdd9ee" /><polygon
     class="st1"
     points="332.5,430.7 333,431.9 324.1,438.2 323.8,438 321.6,445.3 334.9,474.9 346,461.8 358.4,452.6 337.6,441.5 337.3,441 "
     id="polygon715"
     transform="translate(-155.90259,-189.22595)"
     style="fill:none;stroke:#ffffff;stroke-width:0.5;stroke-miterlimit:10" /><polygon
     class="st19"
     points="298,516.2 313.6,523.7 334.1,475.9 334.9,474.9 331.6,467.6 311.1,480.1 "
     id="polygon717"
     transform="translate(-155.90259,-189.22595)"
     style="fill:#e0e1f1" /><polygon
     class="st1"
     points="298,516.2 313.6,523.7 334.1,475.9 334.9,474.9 331.6,467.6 311.1,480.1 "
     id="polygon719"
     transform="translate(-155.90259,-189.22595)"
     style="fill:none;stroke:#ffffff;stroke-width:0.5;stroke-miterlimit:10" /><polygon
     class="st21"
     points="238.9,409.1 238.6,400.7 238.9,400.7 262.2,429.8 280.9,415.5 272.4,395.7 248.8,392.2 238.6,400 "
     id="polygon721"
     transform="translate(-155.90259,-189.22595)"
     style="fill:#c1c6e2" /><polygon
     class="st1"
     points="238.9,409.1 238.6,400.7 238.9,400.7 262.2,429.8 280.9,415.5 272.4,395.7 248.8,392.2 238.6,400 "
     id="polygon723"
     transform="translate(-155.90259,-189.22595)"
     style="fill:none;stroke:#ffffff;stroke-width:0.5;stroke-miterlimit:10" /><path
     class="st18"
     d="m 106.69741,204.97405 v 0 l 9.8,1.4 z m 53,9.4 -8.2,-20.6 -11.9,-1.5 -11.7,4.7 h -0.1 l -1.6,0.6 -10.8,-5.2 -4.8,-0.9 3.9,0.7 2.1,14.7 8.4,19.5 -0.1,0.1 20.1,8.4 3.7,-10.5 z"
     id="path725"
     inkscape:connector-curvature="0"
     style="fill:#cdd9ee" /><path
     class="st1"
     d="m 106.69741,204.97405 v 0 l 9.8,1.4 z m 53,9.4 -8.2,-20.6 -11.9,-1.5 -11.7,4.7 h -0.1 l -1.6,0.6 -10.8,-5.2 -4.8,-0.9 3.9,0.7 2.1,14.7 8.4,19.5 -0.1,0.1 20.1,8.4 3.7,-10.5 z"
     id="path727"
     inkscape:connector-curvature="0"
     style="fill:none;stroke:#ffffff;stroke-width:0.5;stroke-miterlimit:10" /><path
     class="st22"
     d="m 159.69741,214.37405 -2.4,-6 z m -11,9.9 -3.6,10.2 23.2,14.4 8.9,-6.3 -2.1,-4.6 h 6.4 l 4.3,-10.9 -26.1,-12.7 z"
     id="path729"
     inkscape:connector-curvature="0"
     style="fill:#d7d4e8" /><path
     class="st1"
     d="m 159.69741,214.37405 -2.4,-6 z m -11,9.9 -3.6,10.2 23.2,14.4 8.9,-6.3 -2.1,-4.6 h 6.4 l 4.3,-10.9 -26.1,-12.7 z"
     id="path731"
     inkscape:connector-curvature="0"
     style="fill:none;stroke:#ffffff;stroke-width:0.5;stroke-miterlimit:10" /><path
     class="st20"
     d="m 123.89741,223.77405 1.1,2.5 z m -17.6,16.8 1.7,2.2 34.8,15.5 3.6,-5.3 6.2,-13.7 -7.5,-4.7 -0.1,0.3 -20.1,-8.4 0.1,-0.1 z"
     id="path733"
     inkscape:connector-curvature="0"
     style="fill:#c4d0e0" /><path
     class="st1"
     d="m 123.89741,223.77405 1.1,2.5 z m -17.6,16.8 1.7,2.2 34.8,15.5 3.6,-5.3 6.2,-13.7 -7.5,-4.7 -0.1,0.3 -20.1,-8.4 0.1,-0.1 z"
     id="path735"
     inkscape:connector-curvature="0"
     style="fill:none;stroke:#ffffff;stroke-width:0.5;stroke-miterlimit:10" /><path
     class="st21"
     d="m 76.997406,289.17405 h -2.3 z m 45.200004,0.3 -6.1,-4 -4.5,1.4 -6.2,5.4 -18.400004,-7.7 v 0 l -9.2,4.5 h 0.7 l -1.4,10.5 0.3,-0.1 15.300004,8.1 -8.600004,7.7 -2.1,2.7 15.100004,2.6 h 18.5 l 0.2,-4.1 4,-7.1 z"
     id="path737"
     inkscape:connector-curvature="0"
     style="fill:#c1c6e2" /><path
     class="st1"
     d="m 76.997406,289.17405 h -2.3 z m 45.200004,0.3 -6.1,-4 -4.5,1.4 -6.2,5.4 -18.400004,-7.7 v 0 l -9.2,4.5 h 0.7 l -1.4,10.5 0.3,-0.1 15.300004,8.1 -8.600004,7.7 -2.1,2.7 15.100004,2.6 h 18.5 l 0.2,-4.1 4,-7.1 z"
     id="path739"
     inkscape:connector-curvature="0"
     style="fill:none;stroke:#ffffff;stroke-width:0.5;stroke-miterlimit:10" /><polygon
     class="st22"
     points="206.4,455.9 216.4,478.1 233.6,478.4 242.8,473.9 255,463.1 249.9,446.1 233.9,434.4 222.4,447.8 201.4,458.4 "
     id="polygon741"
     transform="translate(-155.90259,-189.22595)"
     style="fill:#d7d4e8" /><polygon
     class="st1"
     points="206.4,455.9 216.4,478.1 233.6,478.4 242.8,473.9 255,463.1 249.9,446.1 233.9,434.4 222.4,447.8 201.4,458.4 "
     id="polygon743"
     transform="translate(-155.90259,-189.22595)"
     style="fill:none;stroke:#ffffff;stroke-width:0.5;stroke-miterlimit:10" /><polygon
     class="st22"
     points="284.6,509.8 300.5,517.4 298,516.2 311.1,480.1 311.5,479.9 298.1,464.5 294.1,464.8 286.7,475.6 278.1,478.7 275.7,498.6 271.7,505.6 271.5,509.8 "
     id="polygon745"
     transform="translate(-155.90259,-189.22595)"
     style="fill:#d7d4e8" /><polygon
     class="st1"
     points="284.6,509.8 300.5,517.4 298,516.2 311.1,480.1 311.5,479.9 298.1,464.5 294.1,464.8 286.7,475.6 278.1,478.7 275.7,498.6 271.7,505.6 271.5,509.8 "
     id="polygon747"
     transform="translate(-155.90259,-189.22595)"
     style="fill:none;stroke:#ffffff;stroke-width:0.5;stroke-miterlimit:10" /><path
     class="st21"
     d="m 153.69741,294.97405 1.5,-4.1 z m 22,-16.6 -10.1,-22.3 2.2,-7.3 0.3,0.2 -15.6,-9.8 -6.2,13.7 -4.3,6.2 v 16.2 l 13.5,15.3 -0.4,0.3 z"
     id="path749"
     inkscape:connector-curvature="0"
     style="fill:#c1c6e2" /><path
     class="st1"
     d="m 153.69741,294.97405 1.5,-4.1 z m 22,-16.6 -10.1,-22.3 2.2,-7.3 0.3,0.2 -15.6,-9.8 -6.2,13.7 -4.3,6.2 v 16.2 l 13.5,15.3 -0.4,0.3 z"
     id="path751"
     inkscape:connector-curvature="0"
     style="fill:none;stroke:#ffffff;stroke-width:0.5;stroke-miterlimit:10" /><polygon
     class="st19"
     points="263.9,431.9 238.9,400.7 238.6,400.7 239.7,427.6 233.9,434.4 249.9,446.1 249.9,446.4 "
     id="polygon753"
     transform="translate(-155.90259,-189.22595)"
     style="fill:#e0e1f1" /><polygon
     class="st1"
     points="263.9,431.9 238.9,400.7 238.6,400.7 239.7,427.6 233.9,434.4 249.9,446.1 249.9,446.4 "
     id="polygon755"
     transform="translate(-155.90259,-189.22595)"
     style="fill:none;stroke:#ffffff;stroke-width:0.5;stroke-miterlimit:10" /><polygon
     class="st23"
     points="449.6,377.8 440.4,369.9 429.7,369.9 419.9,375.4 419.9,375 417.4,400.3 415.6,399.8 418.5,400.6 457.7,394.5 464,380.7 463.1,381.5 465.3,365.7 464.6,370.2 "
     id="polygon757"
     transform="translate(-155.90259,-189.22595)"
     style="fill:#c7e0e2" /><polygon
     class="st1"
     points="449.6,377.8 440.4,369.9 429.7,369.9 419.9,375.4 419.9,375 417.4,400.3 415.6,399.8 418.5,400.6 457.7,394.5 464,380.7 463.1,381.5 465.3,365.7 464.6,370.2 "
     id="polygon759"
     transform="translate(-155.90259,-189.22595)"
     style="fill:none;stroke:#ffffff;stroke-width:0.5;stroke-miterlimit:10" /><polygon
     class="st24"
     points="466,360.5 467.2,351.3 452.3,317.4 454.8,298.1 433.5,312.6 431.3,322.2 422.2,330.8 432.3,345.2 444.9,342.1 466.2,358.6 "
     id="polygon761"
     transform="translate(-155.90259,-189.22595)"
     style="fill:#dbeae6" /><polygon
     class="st1"
     points="466,360.5 467.2,351.3 452.3,317.4 454.8,298.1 433.5,312.6 431.3,322.2 422.2,330.8 432.3,345.2 444.9,342.1 466.2,358.6 "
     id="polygon763"
     transform="translate(-155.90259,-189.22595)"
     style="fill:none;stroke:#ffffff;stroke-width:0.5;stroke-miterlimit:10" /><polygon
     class="st25"
     points="279.9,283.1 304.4,275.4 262.9,234.3 228,229.3 209,247.9 230,279.2 232.7,289.4 246.5,289.9 252.6,276.3 264,279.2 "
     id="polygon765"
     onclick="f(2)"
     transform="translate(-155.90259,-189.22595)"
     style="fill:#d6e9f3" /><polygon
     class="st1"
     points="279.9,283.1 304.4,275.4 262.9,234.3 228,229.3 209,247.9 230,279.2 232.7,289.4 246.5,289.9 252.6,276.3 264,279.2 "
     id="polygon767"
     transform="translate(-155.90259,-189.22595)"
     style="fill:none;stroke:#ffffff;stroke-width:0.5;stroke-miterlimit:10" /><polygon
     class="st23"
     points="209.7,331.4 233,289.4 232.7,289.4 230,279.2 209,247.9 217.1,240 208.8,248.1 162,248.1 162,275.9 173.9,289.7 187.8,331.3 209.6,331.3 "
     id="polygon769"
     onclick="f(1)"
     transform="translate(-155.90259,-189.22595)"
     style="fill:#c7e0e2"><title
       id="title834">1</title></polygon><polygon
     class="st1"
     points="209.7,331.4 233,289.4 232.7,289.4 230,279.2 209,247.9 217.1,240 208.8,248.1 162,248.1 162,275.9 173.9,289.7 187.8,331.3 209.6,331.3 "
     id="polygon771"
     onclick="f(11)"
     transform="translate(-155.90259,-189.22595)"
     style="fill:none;stroke:#ffffff;stroke-width:0.5;stroke-miterlimit:10"><title
       id="title836">1</title></polygon><polygon
     class="st26"
     points="239.7,341 219.2,344 214.5,337.8 241,372.9 233.4,372.9 233.5,374.4 271.3,381.5 277.9,384.7 258.9,355.7 239.8,351.7 "
     id="polygon773"
     transform="translate(-155.90259,-189.22595)"
     style="fill:#b6d5de" /><polygon
     class="st1"
     points="239.7,341 219.2,344 214.5,337.8 241,372.9 233.4,372.9 233.5,374.4 271.3,381.5 277.9,384.7 258.9,355.7 239.8,351.7 "
     id="polygon775"
     transform="translate(-155.90259,-189.22595)"
     style="fill:none;stroke:#ffffff;stroke-width:0.5;stroke-miterlimit:10" /><path
     class="st23"
     d="m 106.79741,190.67405 8.6,1.6 z m 30.8,-8.3 -6.8,-13 2.8,-2.8 v -12.5 l -9.1,-19.8 -3.7,-3.7 -23.6,15.6 -7.800004,-1.1 -5.2,6.8 -6,0.9 5.5,-0.8 0.1,10.7 19.100004,4 19,29 -6.6,-3.2 10.8,5.2 13.3,-5.2 0.9,0.1 z"
     id="path777"
     inkscape:connector-curvature="0"
     style="fill:#c7e0e2" /><path
     class="st1"
     d="m 106.79741,190.67405 8.6,1.6 z m 30.8,-8.3 -6.8,-13 2.8,-2.8 v -12.5 l -9.1,-19.8 -3.7,-3.7 -23.6,15.6 -7.800004,-1.1 -5.2,6.8 -6,0.9 5.5,-0.8 0.1,10.7 19.100004,4 19,29 -6.6,-3.2 10.8,5.2 13.3,-5.2 0.9,0.1 z"
     id="path779"
     inkscape:connector-curvature="0"
     style="fill:none;stroke:#ffffff;stroke-width:0.5;stroke-miterlimit:10" /><path
     class="st27"
     d="m 72.197406,87.17405 1.9,2.8 z m 76.100004,-0.9 -24.2,7.6 -15.9,-4 -11.5,-2.8 -6.100004,13.6 -13.7,-0.6 h 0.3 l -23.3,42 -0.1,-0.1 9.6,12.7 21,-3 5.2,-6.8 7.800004,1.1 30,-19.8 10.2,-3.4 0.1,-5.7 -5.2,-6.8 8.5,-2.3 z"
     id="path781"
     inkscape:connector-curvature="0"
     style="fill:#b7d8e9" /><path
     class="st1"
     d="m 72.197406,87.17405 1.9,2.8 z m 76.100004,-0.9 -24.2,7.6 -15.9,-4 -11.5,-2.8 -6.100004,13.6 -13.7,-0.6 h 0.3 l -23.3,42 -0.1,-0.1 9.6,12.7 21,-3 5.2,-6.8 7.800004,1.1 30,-19.8 10.2,-3.4 0.1,-5.7 -5.2,-6.8 8.5,-2.3 z"
     id="path783"
     onclick="f(3)"
     inkscape:connector-curvature="0"
     style="fill:none;stroke:#ffffff;stroke-width:0.5;stroke-miterlimit:10" /><polygon
     class="st24"
     points="328.5,308.8 340.4,285.9 331.6,266.3 330.8,266 320,275.9 304.9,275.9 294.6,265.7 300.8,271.8 304.2,275.2 304.4,275.4 304.2,275.5 296.9,297.3 288.4,299.6 293.7,306.4 293.5,312 283.3,315.4 277.9,319 278,319.4 290.4,319.4 299.1,324.9 302.8,341.9 324.3,347.9 334.5,338.2 "
     id="polygon785"
     onclick="f(4)"
     transform="translate(-155.90259,-189.22595)"
     style="fill:#dbeae6" /><polygon
     class="st1"
     points="328.5,308.8 340.4,285.9 331.6,266.3 330.8,266 320,275.9 304.9,275.9 294.6,265.7 300.8,271.8 304.2,275.2 304.4,275.4 304.2,275.5 296.9,297.3 288.4,299.6 293.7,306.4 293.5,312 283.3,315.4 277.9,319 278,319.4 290.4,319.4 299.1,324.9 302.8,341.9 324.3,347.9 334.5,338.2 "
     id="polygon787"
     transform="translate(-155.90259,-189.22595)"
     style="fill:none;stroke:#ffffff;stroke-width:0.5;stroke-miterlimit:10" /><path
     class="st25"
     d="m 132.69741,124.47405 -5.3,1.8 z m 0.9,29.5 v 12.5 l -2.8,2.8 6.8,13 2.7,10 h -0.4 l 16.3,2.1 6.2,-11.5 1.1,-12.5 4.5,-11.8 -21.3,-5.9 -3.7,-17 -8.7,-5.5 h -12.2 l -0.1,-0.4 5.4,-3.6 -6.5,4.3 3.7,3.7 z"
     id="path789"
     inkscape:connector-curvature="0"
     style="fill:#d6e9f3" /><path
     class="st1"
     d="m 132.69741,124.47405 -5.3,1.8 z m 0.9,29.5 v 12.5 l -2.8,2.8 6.8,13 2.7,10 h -0.4 l 16.3,2.1 6.2,-11.5 1.1,-12.5 4.5,-11.8 -21.3,-5.9 -3.7,-17 -8.7,-5.5 h -12.2 l -0.1,-0.4 5.4,-3.6 -6.5,4.3 3.7,3.7 z"
     id="path791"
     inkscape:connector-curvature="0"
     style="fill:none;stroke:#ffffff;stroke-width:0.5;stroke-miterlimit:10" /><path
     class="st26"
     d="m 167.39741,83.57405 7.5,-6.8 z m 35,16.3 1.4,-9.9 -28.2,-12.9 8.9,19.6 -11.9,23 6,29.4 -5.6,5.4 0.1,0.2 24.3,4.6 3.7,-9.6 6.4,-10.6 -6,-16.5 z"
     id="path793"
     inkscape:connector-curvature="0"
     style="fill:#b6d5de" /><path
     class="st1"
     d="m 167.39741,83.57405 7.5,-6.8 z m 35,16.3 1.4,-9.9 -28.2,-12.9 8.9,19.6 -11.9,23 6,29.4 -5.6,5.4 0.1,0.2 24.3,4.6 3.7,-9.6 6.4,-10.6 -6,-16.5 z"
     id="path795"
     inkscape:connector-curvature="0"
     style="fill:none;stroke:#ffffff;stroke-width:0.5;stroke-miterlimit:10" /><path
     class="st27"
     d="m 165.39741,157.77405 -2.9,-0.8 z m 7.5,-3.4 2.8,-2.7 -7.3,7 -0.2,-0.1 -4.5,11.8 -1.1,12.5 -6.2,11.5 -2.4,-0.3 v 0 l 24,3 6.7,-15.6 2.4,-13.3 1.6,-10.7 -15.5,-2.9 z"
     id="path797"
     inkscape:connector-curvature="0"
     style="fill:#b7d8e9" /><path
     class="st1"
     d="m 165.39741,157.77405 -2.9,-0.8 z m 7.5,-3.4 2.8,-2.7 -7.3,7 -0.2,-0.1 -4.5,11.8 -1.1,12.5 -6.2,11.5 -2.4,-0.3 v 0 l 24,3 6.7,-15.6 2.4,-13.3 1.6,-10.7 -15.5,-2.9 z"
     id="path799"
     inkscape:connector-curvature="0"
     style="fill:none;stroke:#ffffff;stroke-width:0.5;stroke-miterlimit:10" /><polygon
     class="st23"
     points="340.4,370.7 333.8,386.3 356.3,389.1 366.7,378.4 359.8,361.4 360.1,358.3 359.3,358.5 352.5,352.9 352.5,348.2 353.3,348.3 344.4,346.7 342.8,357.4 "
     id="polygon801"
     transform="translate(-155.90259,-189.22595)"
     style="fill:#c7e0e2" /><polygon
     class="st1"
     points="340.4,370.7 333.8,386.3 356.3,389.1 366.7,378.4 359.8,361.4 360.1,358.3 359.3,358.5 352.5,352.9 352.5,348.2 353.3,348.3 344.4,346.7 342.8,357.4 "
     id="polygon803"
     transform="translate(-155.90259,-189.22595)"
     style="fill:none;stroke:#ffffff;stroke-width:0.5;stroke-miterlimit:10" /><polygon
     class="st25"
     points="377.3,325.4 372.3,310.3 376.3,292.8 379.6,274 362.2,280.3 356.9,277.9 359.7,279.2 358.3,289.1 357.4,311.6 363.4,328.1 357,338.7 353.3,348.3 352.5,348.2 352.5,352.9 359.3,358.5 396.1,349.5 380.1,338.7 "
     id="polygon805"
     transform="translate(-155.90259,-189.22595)"
     style="fill:#d6e9f3" /><polygon
     class="st1"
     points="377.3,325.4 372.3,310.3 376.3,292.8 379.6,274 362.2,280.3 356.9,277.9 359.7,279.2 358.3,289.1 357.4,311.6 363.4,328.1 357,338.7 353.3,348.3 352.5,348.2 352.5,352.9 359.3,358.5 396.1,349.5 380.1,338.7 "
     id="polygon807"
     transform="translate(-155.90259,-189.22595)"
     style="fill:none;stroke:#ffffff;stroke-width:0.5;stroke-miterlimit:10" /><polygon
     class="st27"
     points="471.5,195.8 442.8,213.1 414.4,234.3 395.8,268.1 379.6,274 376.3,292.8 372.3,310.3 377.3,325.4 377.9,328.3 413.1,329 421.6,331.3 431.3,322.2 433.5,312.6 454.8,298.1 457.7,275.9 470.4,243.3 491,206.6 "
     id="polygon809"
     transform="translate(-155.90259,-189.22595)"
     style="fill:#b7d8e9" /><path
     class="st26"
     d="m 228.49741,163.17405 v 0 l 11.8,-2.9 z m 48.2,-6.9 -10.4,-14.7 -0.6,0.5 -8.5,-2.3 -35.2,-0.8 2.2,10.4 16,10.8 7.8,14.2 10.4,1.2 z"
     id="path811"
     inkscape:connector-curvature="0"
     style="fill:#b6d5de" /><path
     class="st1"
     d="m 228.49741,163.17405 v 0 l 11.8,-2.9 z m 48.2,-6.9 -10.4,-14.7 -0.6,0.5 -8.5,-2.3 -35.2,-0.8 2.2,10.4 16,10.8 7.8,14.2 10.4,1.2 z"
     id="path813"
     inkscape:connector-curvature="0"
     style="fill:none;stroke:#ffffff;stroke-width:0.5;stroke-miterlimit:10" /><path
     class="st25"
     d="m 251.39741,174.77405 7,0.8 z m 58.9,-5.4 -21.3,-16.5 -12.6,3.1 0.2,0.3 -18.1,19.1 5.5,10.4 v 0.4 l 9.8,-5.5 h 10.6 l 9.2,7.9 15.1,-7.6 z"
     id="path815"
     inkscape:connector-curvature="0"
     style="fill:#d6e9f3" /><path
     class="st1"
     d="m 251.39741,174.77405 7,0.8 z m 58.9,-5.4 -21.3,-16.5 -12.6,3.1 0.2,0.3 -18.1,19.1 5.5,10.4 v 0.4 l 9.8,-5.5 h 10.6 l 9.2,7.9 15.1,-7.6 z"
     id="path817"
     inkscape:connector-curvature="0"
     style="fill:none;stroke:#ffffff;stroke-width:0.5;stroke-miterlimit:10" /><polygon
     class="st25"
     points="387,393 381.6,392.3 390.3,393.4 417.4,400.3 419.9,375 414.4,364.6 414.3,364.8 403.9,363.6 402,360.1 404.2,364.2 396.1,376.7 392.9,386.3 "
     id="polygon819"
     transform="translate(-155.90259,-189.22595)"
     style="fill:#d6e9f3" /><polygon
     class="st1"
     points="387,393 381.6,392.3 390.3,393.4 417.4,400.3 419.9,375 414.4,364.6 414.3,364.8 403.9,363.6 402,360.1 404.2,364.2 396.1,376.7 392.9,386.3 "
     id="polygon821"
     transform="translate(-155.90259,-189.22595)"
     style="fill:none;stroke:#ffffff;stroke-width:0.5;stroke-miterlimit:10" /><path
     class="st24"
     d="m 203.09741,169.07405 0.2,0.2 z m 45.2,5.9 -8.1,-14.7 -36.9,9.1 0.8,-0.2 -0.2,3 6.8,17 -10.3,10.8 30.7,3.8 5.8,-6.7 3.3,-9.6 z"
     id="path823"
     inkscape:connector-curvature="0"
     style="fill:#dbeae6" /><path
     class="st1"
     d="m 203.09741,169.07405 0.2,0.2 z m 45.2,5.9 -8.1,-14.7 -36.9,9.1 0.8,-0.2 -0.2,3 6.8,17 -10.3,10.8 30.7,3.8 5.8,-6.7 3.3,-9.6 z"
     id="path825"
     inkscape:connector-curvature="0"
     style="fill:none;stroke:#ffffff;stroke-width:0.5;stroke-miterlimit:10" /></svg>