<?xml version="1.0" encoding="UTF-8" standalone="no"?>
<!-- Generator: Adobe Illustrator 19.2.0, SVG Export Plug-In . SVG Version: 6.00 Build 0)  -->

<svg
   xmlns:dc="http://purl.org/dc/elements/1.1/"
   xmlns:cc="http://creativecommons.org/ns#"
   xmlns:rdf="http://www.w3.org/1999/02/22-rdf-syntax-ns#"
   xmlns:svg="http://www.w3.org/2000/svg"
   xmlns="http://www.w3.org/2000/svg"
   xmlns:sodipodi="http://sodipodi.sourceforge.net/DTD/sodipodi-0.dtd"
   xmlns:inkscape="http://www.inkscape.org/namespaces/inkscape"
   version="1.1"
   id="Layer_1"
   x="0px"
   y="0px"
   viewBox="0 0 841.9 1190.5"
   style="enable-background:new 0 0 841.9 1190.5;"
   xml:space="preserve"
   sodipodi:docname="mapa_distritos_de_sp.svg"
   inkscape:version="0.92.2 (unknown)"><metadata
     id="metadata832"><rdf:RDF><cc:Work
         rdf:about=""><dc:format>image/svg+xml</dc:format><dc:type
           rdf:resource="http://purl.org/dc/dcmitype/StillImage" /></cc:Work></rdf:RDF></metadata><defs
     id="defs830" /><sodipodi:namedview
     pagecolor="#ffffff"
     bordercolor="#666666"
     borderopacity="1"
     objecttolerance="10"
     gridtolerance="10"
     guidetolerance="10"
     inkscape:pageopacity="0"
     inkscape:pageshadow="2"
     inkscape:window-width="2495"
     inkscape:window-height="1416"
     id="namedview828"
     showgrid="false"
     inkscape:zoom="1.049139"
     inkscape:cx="425.71582"
     inkscape:cy="595.25"
     inkscape:window-x="65"
     inkscape:window-y="24"
     inkscape:window-maximized="1"
     inkscape:current-layer="Layer_1" /><style
     type="text/css"
     id="style441">
	.st0{fill:#D6E5CB;}
	.st1{fill:none;stroke:#FFFFFF;stroke-width:0.5;stroke-miterlimit:10;}
	.st2{fill:#D2D9C5;}
	.st3{fill:#D6E2AE;}
	.st4{fill:#BAD1BE;}
	.st5{fill:#A7CEE8;}
	.st6{fill:#A6CAEB;}
	.st7{fill:#A8D2F1;}
	.st8{fill:#CEE5F7;}
	.st9{fill:#BEDDF4;}
	.st10{fill:#C7DFF3;}
	.st11{fill:#C4D5E0;}
	.st12{fill:#EBEBDE;}
	.st13{fill:#D7D8D3;}
	.st14{fill:#C3D0DE;}
	.st15{fill:#C6CFCC;}
	.st16{fill:#DFE5DD;}
	.st17{fill:#D8DEE3;}
	.st18{fill:#CDD9EE;}
	.st19{fill:#E0E1F1;}
	.st20{fill:#C4D0E0;}
	.st21{fill:#C1C6E2;}
	.st22{fill:#D7D4E8;}
	.st23{fill:#C7E0E2;}
	.st24{fill:#DBEAE6;}
	.st25{fill:#D6E9F3;}
	.st26{fill:#B6D5DE;}
	.st27{fill:#B7D8E9;}
</style><polygon
     class="st0"
     points="386.8,415.5 386.2,404.5 387.1,393 387,393 356.8,389.2 356.4,389.1 353.8,393.4 378,415.5 "
     id="polygon443" /><polygon
     class="st1"
     points="404.1,450.1 400,440.4 385.1,441.4 387.5,427.3 386.2,404.5 387.1,393 387,393 356.8,389.2  356.4,389.1 345,407.7 337.3,427.3 330.9,427.3 337.3,441 362.8,454.6 378.7,468.4 398.9,459.9 "
     id="polygon445" /><path
     class="st2"
     d="M385.1,441.3l0.1-0.3l-0.9,0.5l0.8-0.1L385.1,441.3L385.1,441.3z M404.1,450.1l-4.1-9.6l-14.8,1l3.8,14.3  l-4.2,10.2l-1.8,0.8l16.1-6.7L404.1,450.1z"
     id="path447" /><path
     class="st1"
     d="M385.1,441.3l0.1-0.3l-0.9,0.5l0.8-0.1L385.1,441.3L385.1,441.3z M404.1,450.1l-4.1-9.6l-14.8,1l3.8,14.3  l-4.2,10.2l-1.8,0.8l16.1-6.7L404.1,450.1z"
     id="path449" /><polygon
     class="st3"
     points="354.7,392 354.7,392 345,407.7 343,412.9 356.2,424.3 372.8,410.7 353.8,393.4 "
     id="polygon451" /><polygon
     class="st1"
     points="354.7,392 354.7,392 345,407.7 343,412.9 356.2,424.3 372.8,410.7 353.8,393.4 "
     id="polygon453" /><polygon
     class="st4"
     points="343.8,410.8 343.8,410.8 337.3,427.3 330.9,427.3 337.3,441 344.6,444.9 356.7,438.2 356.3,424.2  356.2,424.3 343,412.9 "
     id="polygon455" /><polygon
     class="st1"
     points="343.8,410.8 343.8,410.8 337.3,427.3 330.9,427.3 337.3,441 344.6,444.9 356.7,438.2 356.3,424.2  356.2,424.3 343,412.9 "
     id="polygon457" /><polygon
     class="st1"
     points="386.8,415.5 386.2,404.5 387.1,393 387,393 356.8,389.2 356.4,389.1 353.8,393.4 378,415.5 "
     id="polygon459" /><path
     class="st4"
     d="M364.5,443.5L364.5,443.5L364.5,443.5L364.5,443.5z M387.5,426.4l-0.7-11.5l0,0.6h-8.5l-7.9,15.9l-5.2,12.1  l19.8-2L387.5,426.4z"
     id="path461" /><path
     class="st1"
     d="M364.5,443.5L364.5,443.5L364.5,443.5L364.5,443.5z M387.5,426.4l-0.7-11.5l0,0.6h-8.5l-7.9,15.9l-5.2,12.1  l19.8-2L387.5,426.4z"
     id="path463" /><polygon
     class="st0"
     points="365.6,457 364.9,443.9 356.7,438 356.7,438.2 344.6,444.9 362.8,454.6 "
     id="polygon465" /><polygon
     class="st1"
     points="365.6,457 364.9,443.9 356.7,438 356.7,438.2 344.6,444.9 362.8,454.6 "
     id="polygon467" /><path
     class="st2"
     d="M352.3,420.9l3.9,3.4L352.3,420.9z M378.4,415.5H378l-9.2-8.4l4,3.6l-16.5,13.4l0.4,13.8l8.4,6l5.4-12.6  L378.4,415.5z"
     id="path469" /><path
     class="st1"
     d="M352.3,420.9l3.9,3.4L352.3,420.9z M378.4,415.5H378l-9.2-8.4l4,3.6l-16.5,13.4l0.4,13.8l8.4,6l5.4-12.6  L378.4,415.5z"
     id="path471" /><polygon
     class="st3"
     points="388.9,455.8 385.1,441.3 385.1,441.4 365.3,443.5 365.6,442.8 365.1,444 364.9,443.9 365.6,457  362.8,454.6 378.7,468.4 384.7,465.9 "
     id="polygon473" /><polygon
     class="st1"
     points="388.9,455.8 385.1,441.3 385.1,441.4 365.3,443.5 365.6,442.8 365.1,444 364.9,443.9 365.6,457  362.8,454.6 378.7,468.4 384.7,465.9 "
     id="polygon475" /><path
     class="st5"
     d="M315.3,619.4l19.4-11.4v-23.2l-10.1-6.2l-3.8-20.8l1.3-0.6L286.1,574l2.3,5.1l15.3,18.7l2.7,7.1l-3.4,6.6  l0.1,0.1l3.4-6.4l8.1,14.2L315.3,619.4z M337.7,607L337.7,607l-2.9,0.9L337.7,607z"
     id="path477" /><path
     class="st1"
     d="M315.3,619.4l19.4-11.4v-23.2l-10.1-6.2l-3.8-20.8l1.3-0.6L286.1,574l2.3,5.1l15.3,18.7l2.7,7.1l-3.4,6.6  l0.1,0.1l3.4-6.4l8.1,14.2L315.3,619.4z M337.7,607L337.7,607l-2.9,0.9L337.7,607z"
     id="path479" /><path
     class="st6"
     d="M344.5,841.6L213.9,828l1.2,29.1l-27.2-9.9l-10.7,16.2l4.6,45.6l19.2,11.8l31.4,19.7l10.8,13.9l-14.1,13.9  l-16.2,21.8l1.9,2.2c4.8,1.4,9.6,2.8,14.5,4.2l21.5-14.3l27,0l51.9-8.3l26,13l22.7-4.7l-1.1-22.4l23.8-19.3l6.5-55.6l-7.1-30.3  l-28.3,28.3L344.5,841.6z"
     id="path481" /><path
     class="st1"
     d="M344.5,841.6L213.9,828l1.2,29.1l-27.2-9.9l-10.7,16.2l4.6,45.6l19.2,11.8l31.4,19.7l10.8,13.9l-14.1,13.9  l-16.2,21.8l1.9,2.2c4.8,1.4,9.6,2.8,14.5,4.2l21.5-14.3l27,0l51.9-8.3l26,13l22.7-4.7l-1.1-22.4l23.8-19.3l6.5-55.6l-7.1-30.3  l-28.3,28.3L344.5,841.6z"
     id="path483" /><polygon
     class="st5"
     points="332.1,797.3 306.4,801.3 302.2,752 287.3,701 272.5,698.1 268.1,672 239.1,670.4 232.4,676.5  204.3,718.2 187.9,746 200,755.2 231.3,773.7 233.5,787.6 214.3,787.6 212.9,806.1 215.1,857.1 213.9,828 344.5,841.6 372.3,882.9  400.6,854.6 391.5,815.4 367.8,806.1 352.9,806.1 352.9,805.7 347.5,807 "
     id="polygon485" /><polygon
     class="st1"
     points="332.1,797.3 306.4,801.3 302.2,752 287.3,701 272.5,698.1 268.1,672 239.1,670.4 232.4,676.5  204.3,718.2 187.9,746 200,755.2 231.3,773.7 233.5,787.6 214.3,787.6 212.9,806.1 215.1,857.1 213.9,828 344.5,841.6 372.3,882.9  400.6,854.6 391.5,815.4 367.8,806.1 352.9,806.1 352.9,805.7 347.5,807 "
     id="polygon487" /><polygon
     class="st7"
     points="382,767.1 383.9,718.2 367.8,711.9 361.2,648.7 361.3,648.7 340.6,643.1 319.6,661.3 314.5,658.4  303.2,668.1 287.6,702.2 302.2,752 306.4,801.3 332.1,797.3 347.5,807 352.9,805.7 352.9,796.3 "
     id="polygon489" /><polygon
     class="st1"
     points="382,767.1 383.9,718.2 367.8,711.9 361.2,648.7 361.3,648.7 340.6,643.1 319.6,661.3 314.5,658.4  303.2,668.1 287.6,702.2 302.2,752 306.4,801.3 332.1,797.3 347.5,807 352.9,805.7 352.9,796.3 "
     id="polygon491" /><polygon
     class="st8"
     points="442.6,497 442.1,496.7 424.5,482.9 413.7,465.7 407.8,459.2 399.2,459.4 395.7,460.9 391.6,489.5  406.9,511.3 413.7,500.3 439.9,511.6 438.6,518.6 "
     id="polygon493" /><polygon
     class="st1"
     points="442.6,497 442.1,496.7 424.5,482.9 413.7,465.7 407.8,459.2 399.2,459.4 395.7,460.9 391.6,489.5  406.9,511.3 413.7,500.3 439.9,511.6 438.6,518.6 "
     id="polygon495" /><polygon
     class="st7"
     points="400.1,522.4 398,566.5 432.6,551.5 439.9,511.6 413.7,500.3 "
     id="polygon497" /><polygon
     class="st1"
     points="400.1,522.4 398,566.5 432.6,551.5 439.9,511.6 413.7,500.3 "
     id="polygon499" /><polygon
     class="st7"
     points="395.7,460.9 399.2,459.4 378.5,468.1 362.3,454.1 358.8,452.3 350.5,458.5 358.1,481.6 356.4,495.2  383.1,495.2 391.6,489.4 "
     id="polygon501" /><polygon
     class="st1"
     points="395.7,460.9 399.2,459.4 378.5,468.1 362.3,454.1 358.8,452.3 350.5,458.5 358.1,481.6 356.4,495.2  383.1,495.2 391.6,489.4 "
     id="polygon503" /><polygon
     class="st9"
     points="358.1,481.6 350.5,458.5 352.7,456.8 346,461.8 334.1,475.9 323.3,501.1 337.8,512.6 356.6,494.3 "
     id="polygon505" /><polygon
     class="st1"
     points="358.1,481.6 350.5,458.5 352.7,456.8 346,461.8 334.1,475.9 323.3,501.1 337.8,512.6 356.6,494.3 "
     id="polygon507" /><polygon
     class="st10"
     points="407.6,510.2 406.9,511.3 391.6,489.5 392.3,484.5 391.6,489.4 383.1,495.2 382.9,495.2 378,529.2  377.4,544.5 383.7,554.1 373,563.8 383.1,584.1 387.4,571.1 398,566.5 400.1,522.4 "
     id="polygon509" /><polygon
     class="st1"
     points="407.6,510.2 406.9,511.3 391.6,489.5 392.3,484.5 391.6,489.4 383.1,495.2 382.9,495.2 378,529.2  377.4,544.5 383.7,554.1 373,563.8 383.1,584.1 387.4,571.1 398,566.5 400.1,522.4 "
     id="polygon511" /><path
     class="st6"
     d="M382.9,495.2h-26.5l0.1-0.9l-18.8,18.4l21.3,17l18.8,0.8l0-1.2L382.9,495.2z M385.8,493.3L385.8,493.3l-2.7,1.9  L385.8,493.3z"
     id="path513" /><path
     class="st1"
     d="M382.9,495.2h-26.5l0.1-0.9l-18.8,18.4l21.3,17l18.8,0.8l0-1.2L382.9,495.2z M385.8,493.3L385.8,493.3l-2.7,1.9  L385.8,493.3z"
     id="path515" /><path
     class="st7"
     d="M235.7,509.3l2.1-2.1L235.7,509.3z M301.4,517.8l-16.7-8H253l-13.5-2.3l16.1,30.8l-7.8,8.2l20.9,3.7  L301.4,517.8z"
     id="path517" /><path
     class="st1"
     d="M235.7,509.3l2.1-2.1L235.7,509.3z M301.4,517.8l-16.7-8H253l-13.5-2.3l16.1,30.8l-7.8,8.2l20.9,3.7  L301.4,517.8z"
     id="path519" /><polygon
     class="st5"
     points="255.5,538.2 239.5,507.5 237.8,507.2 202.1,542.1 198.6,554.8 234,560.8 "
     id="polygon521" /><polygon
     class="st1"
     points="255.5,538.2 239.5,507.5 237.8,507.2 202.1,542.1 198.6,554.8 234,560.8 "
     id="polygon523" /><polygon
     class="st7"
     points="229,584.8 234.6,560.9 198.6,554.8 187.9,593.1 196.5,616.6 195.3,613.4 228.9,584.7 "
     id="polygon525" /><polygon
     class="st1"
     points="229,584.8 234.6,560.9 198.6,554.8 187.9,593.1 196.5,616.6 195.3,613.4 228.9,584.7 "
     id="polygon527" /><polygon
     class="st6"
     points="268.2,672.2 270.8,651.1 260.6,649.9 241.4,618.7 246.5,591 228.9,584.7 195.3,613.4 198.1,620.9  187.9,655.6 217.3,676.5 236.8,670.3 239,670.5 232.4,676.5 239.1,670.4 268.1,672 269.1,677.5 "
     id="polygon529" /><polygon
     class="st1"
     points="268.2,672.2 270.8,651.1 260.6,649.9 241.4,618.7 246.5,591 228.9,584.7 195.3,613.4 198.1,620.9  187.9,655.6 217.3,676.5 236.8,670.3 239,670.5 232.4,676.5 239.1,670.4 268.1,672 269.1,677.5 "
     id="polygon531" /><polygon
     class="st10"
     points="279,564.5 268.1,550.1 268.6,550.1 247.7,546.4 255.5,538.2 234,560.8 224.4,559.2 234.6,560.9  229,584.8 228.9,584.7 246.5,591 241.4,618.7 260.6,649.9 270.8,651.1 272.5,636.9 279.2,633.2 272,587.6 "
     id="polygon533" /><polygon
     class="st1"
     points="279,564.5 268.1,550.1 268.6,550.1 247.7,546.4 255.5,538.2 234,560.8 224.4,559.2 234.6,560.9  229,584.8 228.9,584.7 246.5,591 241.4,618.7 260.6,649.9 270.8,651.1 272.5,636.9 279.2,633.2 272,587.6 "
     id="polygon535" /><path
     class="st5"
     d="M330,551.5L330,551.5l-3.8-6.4L330,551.5z M373,563.8l10.6-9.6l-6.2-9.6l0.5-14.1l-18.8-0.8l-1.4-1.1l1.6,1.2  l-5.1,14.7l-23.1,8.2l20.8,23.5l29.9,12l5.6-17.1l-4.3,13L373,563.8z"
     id="path537" /><path
     class="st1"
     d="M330,551.5L330,551.5l-3.8-6.4L330,551.5z M373,563.8l10.6-9.6l-6.2-9.6l0.5-14.1l-18.8-0.8l-1.4-1.1l1.6,1.2  l-5.1,14.7l-23.1,8.2l20.8,23.5l29.9,12l5.6-17.1l-4.3,13L373,563.8z"
     id="path539" /><path
     class="st8"
     d="M306.6,520.3l-0.7-0.3L306.6,520.3z M359.3,529.7l-36-28.6l-9.7,22.6l-0.3-0.1l17.6,29.3l23.3-8.3L359.3,529.7z  "
     id="path541" /><path
     class="st1"
     d="M306.6,520.3l-0.7-0.3L306.6,520.3z M359.3,529.7l-36-28.6l-9.7,22.6l-0.3-0.1l17.6,29.3l23.3-8.3L359.3,529.7z  "
     id="path543" /><path
     class="st7"
     d="M329.5,550.5l-0.8-1.4l-1.9-3.2L329.5,550.5z M351.9,576.2l-20.8-23.5l8.7-3.1l-9,3.2l-0.8-1.3l0.9,1.5  l-10.1,4.7l3.8,20.8l10.1,6.2V608l19.4-6.2l13.2,6.8l10.1-7.2l0,0.1l4.4-13.2L351.9,576.2z"
     id="path545" /><path
     class="st1"
     d="M329.5,550.5l-0.8-1.4l-1.9-3.2L329.5,550.5z M351.9,576.2l-20.8-23.5l8.7-3.1l-9,3.2l-0.8-1.3l0.9,1.5  l-10.1,4.7l3.8,20.8l10.1,6.2V608l19.4-6.2l13.2,6.8l10.1-7.2l0,0.1l4.4-13.2L351.9,576.2z"
     id="path547" /><polygon
     class="st6"
     points="330.9,553 313.3,523.5 297.2,515.8 301.4,517.8 268.6,550.1 268.1,550.1 286.1,574 "
     id="polygon549" /><polygon
     class="st1"
     points="330.9,553 313.3,523.5 297.2,515.8 301.4,517.8 268.6,550.1 268.1,550.1 286.1,574 "
     id="polygon551" /><polygon
     class="st7"
     points="306.4,604.9 303.7,597.8 288.4,579.1 286.1,574 279,564.5 272,587.6 279.2,633.2 296.9,623.3 "
     id="polygon553" /><polygon
     class="st1"
     points="306.4,604.9 303.7,597.8 288.4,579.1 286.1,574 279,564.5 272,587.6 279.2,633.2 296.9,623.3 "
     id="polygon555" /><polygon
     class="st8"
     points="319.6,661.3 340.5,643.2 330.5,621 314.5,619.3 306.4,605.1 296.9,623.3 272.5,636.9 268.2,672.2  272.5,698.1 287.3,701 287.6,702.2 303.2,668.1 314.5,658.4 "
     id="polygon557" /><polygon
     class="st1"
     points="319.6,661.3 340.5,643.2 330.5,621 314.5,619.3 306.4,605.1 296.9,623.3 272.5,636.9 268.2,672.2  272.5,698.1 287.3,701 287.6,702.2 303.2,668.1 314.5,658.4 "
     id="polygon559" /><path
     class="st6"
     d="M361.9,656.1l-0.8-7.4L361.9,656.1z M377.4,601.5L377.4,601.5l-10,7.1l-13.2-6.8l-19.4,6.2l-19.4,11.4l15.2,1.6  l10,22.2l0.1,0l20.7,5.5l-0.1,0l34.6-20.1L377.4,601.5z"
     id="path561" /><path
     class="st1"
     d="M361.9,656.1l-0.8-7.4L361.9,656.1z M377.4,601.5L377.4,601.5l-10,7.1l-13.2-6.8l-19.4,6.2l-19.4,11.4l15.2,1.6  l10,22.2l0.1,0l20.7,5.5l-0.1,0l34.6-20.1L377.4,601.5z"
     id="path563" /><path
     class="st11"
     d="M387,393L387,393l-0.5-0.1L387,393z M400.1,414.4l6-16.9l-15.8-4L387,393l-0.9,11.6l0.8,14l-0.1-1.4l9.8-9.5  L400.1,414.4L400.1,414.4z"
     id="path565" /><path
     class="st1"
     d="M387,393L387,393l-0.5-0.1L387,393z M400.1,414.4l6-16.9l-15.8-4L387,393l-0.9,11.6l0.8,14l-0.1-1.4l9.8-9.5  L400.1,414.4L400.1,414.4z"
     id="path567" /><polygon
     class="st12"
     points="386.9,417.1 387.5,427.3 385.1,441.4 399.8,440.5 407.2,428.8 396.7,407.6 "
     id="polygon569" /><polygon
     class="st1"
     points="386.9,417.1 387.5,427.3 385.1,441.4 399.8,440.5 407.2,428.8 396.7,407.6 "
     id="polygon571" /><polygon
     class="st13"
     points="678.8,375.2 659.9,351.9 643.3,365.6 631.4,365.6 631.1,375.5 636.7,384 639.1,390.8 645.4,399.8  645.6,399.6 669.6,403 "
     id="polygon573" /><polygon
     class="st1"
     points="678.8,375.2 659.9,351.9 643.3,365.6 631.4,365.6 631.1,375.5 636.7,384 639.1,390.8 645.4,399.8  645.6,399.6 669.6,403 "
     id="polygon575" /><polygon
     class="st14"
     points="603.5,362.8 602.2,380.1 604.2,392.8 606.7,397.5 631,408.4 645.6,399.6 645.4,399.8 639.1,390.8  636.7,384 631.1,375.5 631.4,365.7 627.4,363.6 614.4,363.1 "
     id="polygon577" /><polygon
     class="st1"
     points="603.5,362.8 602.2,380.1 604.2,392.8 606.7,397.5 631,408.4 645.6,399.6 645.4,399.8 639.1,390.8  636.7,384 631.1,375.5 631.4,365.7 627.4,363.6 614.4,363.1 "
     id="polygon579" /><polygon
     class="st11"
     points="664.8,358 664.8,358 656.9,348.2 636.9,350.4 636.9,336.3 598.4,344.2 591.9,348.1 603.3,362.8  614.4,363.1 627.4,363.6 631.4,365.7 631.4,365.6 643.3,365.6 659.9,351.9 "
     id="polygon581" /><polygon
     class="st1"
     points="664.8,358 664.8,358 656.9,348.2 636.9,350.4 636.9,336.3 598.4,344.2 591.9,348.1 603.3,362.8  614.4,363.1 627.4,363.6 631.4,365.7 631.4,365.6 643.3,365.6 659.9,351.9 "
     id="polygon583" /><polygon
     class="st15"
     points="404.1,450.1 399.2,459.4 407.8,459.2 413.7,465.7 420,475.7 429,473 431.3,461.1 426.5,452.1  431.3,438.4 421.1,427.4 407,428.5 407.2,428.8 399.8,440.5 397,440.6 400,440.4 "
     id="polygon585" /><polygon
     class="st1"
     points="404.1,450.1 399.2,459.4 407.8,459.2 413.7,465.7 420,475.7 429,473 431.3,461.1 426.5,452.1  431.3,438.4 421.1,427.4 407,428.5 407.2,428.8 399.8,440.5 397,440.6 400,440.4 "
     id="polygon587" /><polygon
     class="st13"
     points="468.1,496 461.6,489.2 449.1,474.5 431,460.5 431.3,461.1 429,473 420,475.7 424.5,482.9 442.1,496.7  456.9,503.8 466.6,506.4 "
     id="polygon589" /><polygon
     class="st1"
     points="468.1,496 461.6,489.2 449.1,474.5 431,460.5 431.3,461.1 429,473 420,475.7 424.5,482.9 442.1,496.7  456.9,503.8 466.6,506.4 "
     id="polygon591" /><polygon
     class="st14"
     points="436.4,435.3 433,398.3 418.5,400.6 406.1,397.4 400.1,414.4 400.1,414.4 407,428.5 421.1,427.4  431.6,438.7 "
     id="polygon593" /><polygon
     class="st1"
     points="436.4,435.3 433,398.3 418.5,400.6 406.1,397.4 400.1,414.4 400.1,414.4 407,428.5 421.1,427.4  431.6,438.7 "
     id="polygon595" /><polygon
     class="st16"
     points="467.9,466 467,457.5 453.1,447.3 451.4,440.4 451.1,440.4 436.3,434.9 436.4,435.3 431.6,438.7  431.3,438.4 426.5,452.1 431.3,461.1 431,460.5 449.1,474.5 449.6,475 460.5,470.8 467.8,466 "
     id="polygon597" /><polygon
     class="st1"
     points="467.9,466 467,457.5 453.1,447.3 451.4,440.4 451.1,440.4 436.3,434.9 436.4,435.3 431.6,438.7  431.3,438.4 426.5,452.1 431.3,461.1 431,460.5 449.1,474.5 449.6,475 460.5,470.8 467.8,466 "
     id="polygon599" /><path
     class="st15"
     d="M481.5,510.6l19.4,4.1l0.7-9l-13.7-13l1.4-13.9L467.8,466l-7.4,4.8l-10.8,4.3l12,14.2l6.5,6.8l-1.5,10.4  L481.5,510.6z M456.9,503.8l-4.4-2.1L456.9,503.8z"
     id="path601" /><path
     class="st1"
     d="M481.5,510.6l19.4,4.1l0.7-9l-13.7-13l1.4-13.9L467.8,466l-7.4,4.8l-10.8,4.3l12,14.2l6.5,6.8l-1.5,10.4  L481.5,510.6z M456.9,503.8l-4.4-2.1L456.9,503.8z"
     id="path603" /><polygon
     class="st11"
     points="607.9,530 580.1,511.3 568.6,517.3 557.4,514.7 545.6,524.2 546.9,524.4 556.2,538.3 609.1,548 "
     id="polygon605" /><polygon
     class="st1"
     points="607.9,530 580.1,511.3 568.6,517.3 557.4,514.7 545.6,524.2 546.9,524.4 556.2,538.3 609.1,548 "
     id="polygon607" /><polygon
     class="st14"
     points="666.5,470.1 644.2,463.4 636.2,452.6 613.5,451.5 612.1,461.7 624.9,477.9 617.1,488.3 617.8,488.4  645.4,513.7 641.2,517.7 654.7,504.8 "
     id="polygon609" /><polygon
     class="st1"
     points="666.5,470.1 644.2,463.4 636.2,452.6 613.5,451.5 612.1,461.7 624.9,477.9 617.1,488.3 617.8,488.4  645.4,513.7 641.2,517.7 654.7,504.8 "
     id="polygon611" /><path
     class="st13"
     d="M663.4,479.4L663.4,479.4l2.1-6.2L663.4,479.4z M666.6,469.9l-9.7-28.4L637.1,430l-23.5-7.1l-3.1,22.7l4,6  l21.8,1.1l7.9,10.8l22.4,6.7L666.6,469.9z"
     id="path613" /><path
     class="st1"
     d="M663.4,479.4L663.4,479.4l2.1-6.2L663.4,479.4z M666.6,469.9l-9.7-28.4L637.1,430l-23.5-7.1l-3.1,22.7l4,6  l21.8,1.1l7.9,10.8l22.4,6.7L666.6,469.9z"
     id="path615" /><polygon
     class="st16"
     points="669.6,403 645.6,399.6 631,408.4 606.5,397.4 605.5,410.7 614.1,423 637.1,430 657,441.5 656.9,441.3  "
     id="polygon617" /><polygon
     class="st1"
     points="669.6,403 645.6,399.6 631,408.4 606.5,397.4 605.5,410.7 614.1,423 637.1,430 657,441.5 656.9,441.3  "
     id="polygon619" /><path
     class="st13"
     d="M591.9,348.1l-7.5,4.4l-10.2-2.6l4,19.1l7.9,10.5l0.3,27.2l19.4,4.4l-0.3-0.4l1.3-13.2l-2.6-4.7l-2-12.8  l1.3-17.3l-0.2,0L591.9,348.1z M597.8,344.6L597.8,344.6l-3.6,2.1L597.8,344.6z"
     id="path621" /><path
     class="st1"
     d="M591.9,348.1l-7.5,4.4l-10.2-2.6l4,19.1l7.9,10.5l0.3,27.2l19.4,4.4l-0.3-0.4l1.3-13.2l-2.6-4.7l-2-12.8  l1.3-17.3l-0.2,0L591.9,348.1z M597.8,344.6L597.8,344.6l-3.6,2.1L597.8,344.6z"
     id="path623" /><polygon
     class="st16"
     points="645.4,513.7 617.8,488.4 575.7,487.8 570.5,492.3 580.1,511.3 580.1,511.3 607.9,530 609.1,548  609.3,548 "
     id="polygon625" /><polygon
     class="st1"
     points="645.4,513.7 617.8,488.4 575.7,487.8 570.5,492.3 580.1,511.3 580.1,511.3 607.9,530 609.1,548  609.3,548 "
     id="polygon627" /><polygon
     class="st17"
     points="614.1,423 605.6,410.8 605.8,411.1 605.4,411 587,428.8 585.6,456.3 590.6,468.8 590.8,488  617.1,488.3 624.9,477.9 612.1,461.7 613.5,451.5 614.4,451.5 610.4,445.5 613.5,422.9 "
     id="polygon629" /><polygon
     class="st1"
     points="614.1,423 605.6,410.8 605.8,411.1 605.4,411 587,428.8 585.6,456.3 590.6,468.8 590.8,488  617.1,488.3 624.9,477.9 612.1,461.7 613.5,451.5 614.4,451.5 610.4,445.5 613.5,422.9 "
     id="polygon631" /><path
     class="st12"
     d="M482.1,510.7L482.1,510.7l0.9,0.2L482.1,510.7z M545.5,509l-15.9-1.7l0.8-14.2l-14.2-13.6l-27.1-0.9l0,0  l-1.4,13.9l13.7,13l-0.7,9l45.6,9.7L545.5,509z"
     id="path633" /><path
     class="st1"
     d="M482.1,510.7L482.1,510.7l0.9,0.2L482.1,510.7z M545.5,509l-15.9-1.7l0.8-14.2l-14.2-13.6l-27.1-0.9l0,0  l-1.4,13.9l13.7,13l-0.7,9l45.6,9.7L545.5,509z"
     id="path635" /><polygon
     class="st11"
     points="498.6,479 500.2,467.1 491.7,464.5 485.7,451.5 461.9,438.1 461.9,438.2 451.1,440.4 451.4,440.4  453.1,447.3 467,457.5 467.9,466 467.8,466 489.2,478.7 489.2,478.7 "
     id="polygon637" /><polygon
     class="st1"
     points="498.6,479 500.2,467.1 491.7,464.5 485.7,451.5 461.9,438.1 461.9,438.2 451.1,440.4 451.4,440.4  453.1,447.3 467,457.5 467.9,466 467.8,466 489.2,478.7 489.2,478.7 "
     id="polygon639" /><polygon
     class="st17"
     points="458.3,393.2 460.2,389 457.7,394.5 428.8,399 433,398.3 436.3,434.9 451.1,440.4 461.9,438.2  460.8,424.9 461.9,416.4 468.6,413.4 "
     id="polygon641" /><polygon
     class="st1"
     points="458.3,393.2 460.2,389 457.7,394.5 428.8,399 433,398.3 436.3,434.9 451.1,440.4 461.9,438.2  460.8,424.9 461.9,416.4 468.6,413.4 "
     id="polygon643" /><polygon
     class="st16"
     points="515.9,335.7 464.2,379 464,380.7 475.1,388.6 502.7,390.3 532.5,380.9 516.6,359.7 "
     id="polygon645" /><polygon
     class="st1"
     points="515.9,335.7 464.2,379 464,380.7 475.1,388.6 502.7,390.3 532.5,380.9 516.6,359.7 "
     id="polygon647" /><polygon
     class="st13"
     points="566.4,348 566.4,348 516.5,335.3 515.9,335.7 516.6,359.7 532.5,380.9 551.6,383.9 563,372.4  560.5,346.5 "
     id="polygon649" /><polygon
     class="st1"
     points="566.4,348 566.4,348 516.5,335.3 515.9,335.7 516.6,359.7 532.5,380.9 551.6,383.9 563,372.4  560.5,346.5 "
     id="polygon651" /><path
     class="st15"
     d="M532.5,380.9l-29.8,9.4l0.5-0.2l8,8.4l26.4,7.1l0,0l15.4-1.4l0.6-5.5l4.1-1.2l-4.6,1.4l-1.6-14.7l2.4-2.4  l-2.2,2.2L532.5,380.9z M529,376.2l3.5,4.7L529,376.2z"
     id="path653" /><path
     class="st1"
     d="M532.5,380.9l-29.8,9.4l0.5-0.2l8,8.4l26.4,7.1l0,0l15.4-1.4l0.6-5.5l4.1-1.2l-4.6,1.4l-1.6-14.7l2.4-2.4  l-2.2,2.2L532.5,380.9z M529,376.2l3.5,4.7L529,376.2z"
     id="path655" /><polygon
     class="st12"
     points="584.1,352.5 584.1,352.5 560.5,346.5 563,372.4 551.5,384 553,398.8 586.2,389 586.1,379.5 578.1,369  574.2,349.9 "
     id="polygon657" /><polygon
     class="st1"
     points="584.1,352.5 584.1,352.5 560.5,346.5 563,372.4 551.5,384 553,398.8 586.2,389 586.1,379.5 578.1,369  574.2,349.9 "
     id="polygon659" /><polygon
     class="st13"
     points="464,380.7 464.2,379 464,380.7 458.3,393.2 468.7,413.5 518.6,408.4 531.1,414.4 537.6,405.6  511.2,398.5 503.2,390.1 502.7,390.3 475.1,388.6 "
     id="polygon661" /><polygon
     class="st1"
     points="464,380.7 464.2,379 464,380.7 458.3,393.2 468.7,413.5 518.6,408.4 531.1,414.4 537.6,405.6  511.2,398.5 503.2,390.1 502.7,390.3 475.1,388.6 "
     id="polygon663" /><polygon
     class="st15"
     points="504.9,441.4 503.1,439 505.5,442.2 505,441.6 526.4,466.4 526.5,466.2 543.7,476.4 540.8,474.7  545,459.2 568.4,436 570.4,437 565.4,434.5 550.6,429.8 544.7,438.5 531.1,440.4 520.9,430.9 "
     id="polygon665" /><polygon
     class="st1"
     points="504.9,441.4 503.1,439 505.5,442.2 505,441.6 526.4,466.4 526.5,466.2 543.7,476.4 540.8,474.7  545,459.2 568.4,436 570.4,437 565.4,434.5 550.6,429.8 544.7,438.5 531.1,440.4 520.9,430.9 "
     id="polygon667" /><polygon
     class="st13"
     points="568.4,436 545,459.2 540.8,474.7 570.6,492.2 575.7,487.8 590.8,488 590.6,468.8 585.6,456.3  586.2,445 "
     id="polygon669" /><polygon
     class="st1"
     points="568.4,436 545,459.2 540.8,474.7 570.6,492.2 575.7,487.8 590.8,488 590.6,468.8 585.6,456.3  586.2,445 "
     id="polygon671" /><path
     class="st14"
     d="M534.9,521.9L534.9,521.9l7.9,1.7L534.9,521.9z M570.6,492.2l-44.1-26l-11.1,13.3l0.9,0l14.2,13.6l-0.9,14.2  l15.9,1.7l1,14.4l10.9-8.7l11.2,2.6l11.5-6l0,0l-9.6-19L570.6,492.2z"
     id="path673" /><path
     class="st1"
     d="M534.9,521.9L534.9,521.9l7.9,1.7L534.9,521.9z M570.6,492.2l-44.1-26l-11.1,13.3l0.9,0l14.2,13.6l-0.9,14.2  l15.9,1.7l1,14.4l10.9-8.7l11.2,2.6l11.5-6l0,0l-9.6-19L570.6,492.2z"
     id="path675" /><polygon
     class="st13"
     points="526.4,466.4 505,441.6 491.1,463.4 491.7,464.5 500.2,467.1 498.6,479 516.3,479.6 515.4,479.5 "
     id="polygon677" /><polygon
     class="st1"
     points="526.4,466.4 505,441.6 491.1,463.4 491.7,464.5 500.2,467.1 498.6,479 516.3,479.6 515.4,479.5 "
     id="polygon679" /><polygon
     class="st14"
     points="505.5,442.2 492.5,424.9 468.6,413.2 468.6,413.4 461.9,416.4 460.8,424.9 461.9,438.2 461.9,438.1  485.7,451.5 491.1,463.4 505,441.6 "
     id="polygon681" /><polygon
     class="st1"
     points="505.5,442.2 492.5,424.9 468.6,413.2 468.6,413.4 461.9,416.4 460.8,424.9 461.9,438.2 461.9,438.1  485.7,451.5 491.1,463.4 505,441.6 "
     id="polygon683" /><polygon
     class="st11"
     points="520.9,430.9 531.1,440.4 544.7,438.5 550.6,429.8 550.3,429.7 553.3,400.6 552.9,404.2 537.6,405.6  531.1,414.4 518.6,408.4 518.2,408.5 531.1,424.3 "
     id="polygon685" /><polygon
     class="st1"
     points="520.9,430.9 531.1,440.4 544.7,438.5 550.6,429.8 550.3,429.7 553.3,400.6 552.9,404.2 537.6,405.6  531.1,414.4 518.6,408.4 518.2,408.5 531.1,424.3 "
     id="polygon687" /><path
     class="st16"
     d="M468.6,413.3l-3.6-7L468.6,413.3L468.6,413.3z M504.9,441.4l26.1-17.1l-12.8-15.8l-49.2,5l23.5,11.4  L504.9,441.4z"
     id="path689" /><path
     class="st1"
     d="M468.6,413.3l-3.6-7L468.6,413.3L468.6,413.3z M504.9,441.4l26.1-17.1l-12.8-15.8l-49.2,5l23.5,11.4  L504.9,441.4z"
     id="path691" /><path
     class="st14"
     d="M605.6,410.8L605.6,410.8l-0.1-0.2L605.6,410.8z M553.5,398.6l-3.2,31l15,4.8l20.9,10.5l0.8-16.2l18.3-17.8  l0.4,0.1l-19.4-4.4l-0.2-21.2l0,3.4L553.5,398.6z"
     id="path693" /><path
     class="st1"
     d="M605.6,410.8L605.6,410.8l-0.1-0.2L605.6,410.8z M553.5,398.6l-3.2,31l15,4.8l20.9,10.5l0.8-16.2l18.3-17.8  l0.4,0.1l-19.4-4.4l-0.2-21.2l0,3.4L553.5,398.6z"
     id="path695" /><polygon
     class="st18"
     points="263.9,431.9 249.9,446.4 255,463.1 242.8,473.9 261.2,481.5 267.4,476.2 272,474.7 278.1,478.7  286.7,475.6 294.1,464.8 298.1,464.5 298.1,448.4 298.7,447.4 "
     id="polygon697" /><polygon
     class="st1"
     points="263.9,431.9 249.9,446.4 255,463.1 242.8,473.9 261.2,481.5 267.4,476.2 272,474.7 278.1,478.7  286.7,475.6 294.1,464.8 298.1,464.5 298.1,448.4 298.7,447.4 "
     id="polygon699" /><polygon
     class="st19"
     points="272.5,396 270.4,381.3 235.5,374.7 236.4,386.1 249.3,391.7 246,394.3 248.8,392.2 272.4,395.7 "
     id="polygon701" /><polygon
     class="st1"
     points="272.5,396 270.4,381.3 235.5,374.7 236.4,386.1 249.3,391.7 246,394.3 248.8,392.2 272.4,395.7 "
     id="polygon703" /><polygon
     class="st20"
     points="356.8,389.2 304.2,382.6 307.4,383 315.6,403.6 315.5,403.7 341.6,416.4 345,407.7 356.4,389.1 "
     id="polygon705" /><polygon
     class="st1"
     points="356.8,389.2 304.2,382.6 307.4,383 315.6,403.6 315.5,403.7 341.6,416.4 345,407.7 356.4,389.1 "
     id="polygon707" /><polygon
     class="st20"
     points="234.3,478.4 216.4,478.1 206.4,455.9 178.3,470 184.8,510.7 232.9,488.9 "
     id="polygon709" /><polygon
     class="st1"
     points="234.3,478.4 216.4,478.1 206.4,455.9 178.3,470 184.8,510.7 232.9,488.9 "
     id="polygon711" /><polygon
     class="st18"
     points="323.8,438 321.6,445.3 334.9,474.9 346,461.8 358.4,452.6 337.6,441.5 337.3,441 337.3,441  332.5,430.7 333,431.9 324.1,438.2 "
     id="polygon713" /><polygon
     class="st1"
     points="323.8,438 321.6,445.3 334.9,474.9 346,461.8 358.4,452.6 337.6,441.5 337.3,441 337.3,441  332.5,430.7 333,431.9 324.1,438.2 "
     id="polygon715" /><polygon
     class="st19"
     points="331.6,467.6 311.1,480.1 298,516.2 313.6,523.7 334.1,475.9 334.9,474.9 "
     id="polygon717" /><polygon
     class="st1"
     points="331.6,467.6 311.1,480.1 298,516.2 313.6,523.7 334.1,475.9 334.9,474.9 "
     id="polygon719" /><polygon
     class="st21"
     points="280.9,415.5 272.4,395.7 248.8,392.2 238.6,400 238.9,409.1 238.6,400.7 238.9,400.7 262.2,429.8 "
     id="polygon721" /><polygon
     class="st1"
     points="280.9,415.5 272.4,395.7 248.8,392.2 238.6,400 238.9,409.1 238.6,400.7 238.9,400.7 262.2,429.8 "
     id="polygon723" /><path
     class="st18"
     d="M262.6,394.2L262.6,394.2l9.8,1.4L262.6,394.2z M315.6,403.6l-8.2-20.6l-11.9-1.5l-11.7,4.7l-0.1,0l-1.6,0.6  l-10.8-5.2l-4.8-0.9l3.9,0.7l2.1,14.7l8.4,19.5l-0.1,0.1l20.1,8.4l3.7-10.5L315.6,403.6z"
     id="path725" /><path
     class="st1"
     d="M262.6,394.2L262.6,394.2l9.8,1.4L262.6,394.2z M315.6,403.6l-8.2-20.6l-11.9-1.5l-11.7,4.7l-0.1,0l-1.6,0.6  l-10.8-5.2l-4.8-0.9l3.9,0.7l2.1,14.7l8.4,19.5l-0.1,0.1l20.1,8.4l3.7-10.5L315.6,403.6z"
     id="path727" /><path
     class="st22"
     d="M315.6,403.6l-2.4-6L315.6,403.6z M304.6,413.5l-3.6,10.2l23.2,14.4l8.9-6.3l-2.1-4.6h6.4l4.3-10.9l-26.1-12.7  L304.6,413.5z"
     id="path729" /><path
     class="st1"
     d="M315.6,403.6l-2.4-6L315.6,403.6z M304.6,413.5l-3.6,10.2l23.2,14.4l8.9-6.3l-2.1-4.6h6.4l4.3-10.9l-26.1-12.7  L304.6,413.5z"
     id="path731" /><path
     class="st20"
     d="M279.8,413l1.1,2.5L279.8,413z M262.2,429.8l1.7,2.2l34.8,15.5l3.6-5.3l6.2-13.7l-7.5-4.7l-0.1,0.3l-20.1-8.4  l0.1-0.1L262.2,429.8z"
     id="path733" /><path
     class="st1"
     d="M279.8,413l1.1,2.5L279.8,413z M262.2,429.8l1.7,2.2l34.8,15.5l3.6-5.3l6.2-13.7l-7.5-4.7l-0.1,0.3l-20.1-8.4  l0.1-0.1L262.2,429.8z"
     id="path735" /><path
     class="st21"
     d="M232.9,478.4l-2.3,0L232.9,478.4z M278.1,478.7l-6.1-4l-4.5,1.4l-6.2,5.4l-18.4-7.7l0,0l-9.2,4.5l0.7,0  l-1.4,10.5l0.3-0.1l15.3,8.1l-8.6,7.7l-2.1,2.7l15.1,2.6h18.5l0.2-4.1l4-7.1L278.1,478.7L278.1,478.7z"
     id="path737" /><path
     class="st1"
     d="M232.9,478.4l-2.3,0L232.9,478.4z M278.1,478.7l-6.1-4l-4.5,1.4l-6.2,5.4l-18.4-7.7l0,0l-9.2,4.5l0.7,0  l-1.4,10.5l0.3-0.1l15.3,8.1l-8.6,7.7l-2.1,2.7l15.1,2.6h18.5l0.2-4.1l4-7.1L278.1,478.7L278.1,478.7z"
     id="path739" /><polygon
     class="st22"
     points="255,463.1 249.9,446.1 233.9,434.4 222.4,447.8 201.4,458.4 206.4,455.9 216.4,478.1 233.6,478.4  242.8,473.9 "
     id="polygon741" /><polygon
     class="st1"
     points="255,463.1 249.9,446.1 233.9,434.4 222.4,447.8 201.4,458.4 206.4,455.9 216.4,478.1 233.6,478.4  242.8,473.9 "
     id="polygon743" /><polygon
     class="st22"
     points="311.5,479.9 298.1,464.5 294.1,464.8 286.7,475.6 278.1,478.7 275.7,498.6 271.7,505.6 271.5,509.8  284.6,509.8 300.5,517.4 298,516.2 311.1,480.1 "
     id="polygon745" /><polygon
     class="st1"
     points="311.5,479.9 298.1,464.5 294.1,464.8 286.7,475.6 278.1,478.7 275.7,498.6 271.7,505.6 271.5,509.8  284.6,509.8 300.5,517.4 298,516.2 311.1,480.1 "
     id="polygon747" /><path
     class="st21"
     d="M309.6,484.2l1.5-4.1L309.6,484.2z M331.6,467.6l-10.1-22.3l2.2-7.3l0.3,0.2l-15.6-9.8l-6.2,13.7l-4.3,6.2  v16.2l13.5,15.3l-0.4,0.3L331.6,467.6z"
     id="path749" /><path
     class="st1"
     d="M309.6,484.2l1.5-4.1L309.6,484.2z M331.6,467.6l-10.1-22.3l2.2-7.3l0.3,0.2l-15.6-9.8l-6.2,13.7l-4.3,6.2v16.2  l13.5,15.3l-0.4,0.3L331.6,467.6z"
     id="path751" /><polygon
     class="st19"
     points="238.6,400.7 239.7,427.6 233.9,434.4 249.9,446.1 249.9,446.4 263.9,431.9 238.9,400.7 "
     id="polygon753" /><polygon
     class="st1"
     points="238.6,400.7 239.7,427.6 233.9,434.4 249.9,446.1 249.9,446.4 263.9,431.9 238.9,400.7 "
     id="polygon755" /><polygon
     class="st23"
     points="465.3,365.7 465.3,365.7 464.6,370.2 449.6,377.8 440.4,369.9 429.7,369.9 419.9,375.4 419.9,375  417.4,400.3 415.6,399.8 418.5,400.6 457.7,394.5 464,380.7 463.1,381.5 "
     id="polygon757" /><polygon
     class="st1"
     points="465.3,365.7 465.3,365.7 464.6,370.2 449.6,377.8 440.4,369.9 429.7,369.9 419.9,375.4 419.9,375  417.4,400.3 415.6,399.8 418.5,400.6 457.7,394.5 464,380.7 463.1,381.5 "
     id="polygon759" /><polygon
     class="st24"
     points="452.3,317.4 454.8,298.1 433.5,312.6 431.3,322.2 422.2,330.8 432.3,345.2 444.9,342.1 466.2,358.6  466,360.5 467.2,351.3 "
     id="polygon761" /><polygon
     class="st1"
     points="452.3,317.4 454.8,298.1 433.5,312.6 431.3,322.2 422.2,330.8 432.3,345.2 444.9,342.1 466.2,358.6  466,360.5 467.2,351.3 "
     id="polygon763" /><polygon
     class="st25"
     points="262.9,234.3 228,229.3 209,247.9 230,279.2 232.7,289.4 246.5,289.9 252.6,276.3 264,279.2  279.9,283.1 304.4,275.4 "
     id="polygon765"
     onclick="f(2)" /><polygon
     class="st1"
     points="262.9,234.3 228,229.3 209,247.9 230,279.2 232.7,289.4 246.5,289.9 252.6,276.3 264,279.2  279.9,283.1 304.4,275.4 "
     id="polygon767" /><polygon
     class="st23"
     points="217.1,240 217.1,240 208.8,248.1 162,248.1 162,275.9 173.9,289.7 187.8,331.3 209.6,331.3  209.7,331.4 233,289.4 232.7,289.4 230,279.2 209,247.9 "
     id="polygon769"
     onclick="f(1)"><title
       id="title834">1</title></polygon><polygon
     class="st1"
     points="217.1,240 217.1,240 208.8,248.1 162,248.1 162,275.9 173.9,289.7 187.8,331.3 209.6,331.3  209.7,331.4 233,289.4 232.7,289.4 230,279.2 209,247.9 "
     id="polygon771"
     onclick="f(11)"><title
       id="title836">1</title></polygon><polygon
     class="st26"
     points="214.5,337.8 241,372.9 233.4,372.9 233.5,374.4 271.3,381.5 277.9,384.7 258.9,355.7 239.8,351.7  239.7,341 219.2,344 "
     id="polygon773" /><polygon
     class="st1"
     points="214.5,337.8 241,372.9 233.4,372.9 233.5,374.4 271.3,381.5 277.9,384.7 258.9,355.7 239.8,351.7  239.7,341 219.2,344 "
     id="polygon775" /><path
     class="st23"
     d="M262.7,379.9l8.6,1.6L262.7,379.9z M293.5,371.6l-6.8-13l2.8-2.8v-12.5l-9.1-19.8l-3.7-3.7l-23.6,15.6  l-7.8-1.1l-5.2,6.8l-6,0.9l5.5-0.8l0.1,10.7l19.1,4l19,29l-6.6-3.2l10.8,5.2l13.3-5.2l0.9,0.1L293.5,371.6z"
     id="path777" /><path
     class="st1"
     d="M262.7,379.9l8.6,1.6L262.7,379.9z M293.5,371.6l-6.8-13l2.8-2.8v-12.5l-9.1-19.8l-3.7-3.7l-23.6,15.6l-7.8-1.1  l-5.2,6.8l-6,0.9l5.5-0.8l0.1,10.7l19.1,4l19,29l-6.6-3.2l10.8,5.2l13.3-5.2l0.9,0.1L293.5,371.6z"
     id="path779" /><path
     class="st27"
     d="M228.1,276.4l1.9,2.8L228.1,276.4z M304.2,275.5l-24.2,7.6l-15.9-4l-11.5-2.8l-6.1,13.6l-13.7-0.6l0.3,0  l-23.3,42l-0.1-0.1l9.6,12.7l21-3l5.2-6.8l7.8,1.1l30-19.8l10.2-3.4l0.1-5.7l-5.2-6.8l8.5-2.3L304.2,275.5z"
     id="path781" /><path
     class="st1"
     d="M228.1,276.4l1.9,2.8L228.1,276.4z M304.2,275.5l-24.2,7.6l-15.9-4l-11.5-2.8l-6.1,13.6l-13.7-0.6l0.3,0  l-23.3,42l-0.1-0.1l9.6,12.7l21-3l5.2-6.8l7.8,1.1l30-19.8l10.2-3.4l0.1-5.7l-5.2-6.8l8.5-2.3L304.2,275.5z"
     id="path783"
     onclick="f(3)" /><polygon
     class="st24"
     points="340.4,285.9 331.6,266.3 330.8,266 320,275.9 304.9,275.9 294.6,265.7 300.8,271.8 304.2,275.2  304.4,275.4 304.2,275.5 296.9,297.3 288.4,299.6 293.7,306.4 293.5,312 283.3,315.4 277.9,319 278,319.4 290.4,319.4 299.1,324.9  302.8,341.9 324.3,347.9 334.5,338.2 328.5,308.8 "
     id="polygon785"
     onclick="f(4)" /><polygon
     class="st1"
     points="340.4,285.9 331.6,266.3 330.8,266 320,275.9 304.9,275.9 294.6,265.7 300.8,271.8 304.2,275.2  304.4,275.4 304.2,275.5 296.9,297.3 288.4,299.6 293.7,306.4 293.5,312 283.3,315.4 277.9,319 278,319.4 290.4,319.4 299.1,324.9  302.8,341.9 324.3,347.9 334.5,338.2 328.5,308.8 "
     id="polygon787" /><path
     class="st25"
     d="M288.6,313.7l-5.3,1.8L288.6,313.7z M289.5,343.2v12.5l-2.8,2.8l6.8,13l2.7,10l-0.4,0l16.3,2.1l6.2-11.5  l1.1-12.5l4.5-11.8l-21.3-5.9l-3.7-17l-8.7-5.5H278l-0.1-0.4l5.4-3.6l-6.5,4.3l3.7,3.7L289.5,343.2z"
     id="path789" /><path
     class="st1"
     d="M288.6,313.7l-5.3,1.8L288.6,313.7z M289.5,343.2v12.5l-2.8,2.8l6.8,13l2.7,10l-0.4,0l16.3,2.1l6.2-11.5  l1.1-12.5l4.5-11.8l-21.3-5.9l-3.7-17l-8.7-5.5H278l-0.1-0.4l5.4-3.6l-6.5,4.3l3.7,3.7L289.5,343.2z"
     id="path791" /><path
     class="st26"
     d="M323.3,272.8l7.5-6.8L323.3,272.8z M358.3,289.1l1.4-9.9l-28.2-12.9l8.9,19.6l-11.9,23l6,29.4l-5.6,5.4  l0.1,0.2l24.3,4.6l3.7-9.6l6.4-10.6l-6-16.5L358.3,289.1z"
     id="path793" /><path
     class="st1"
     d="M323.3,272.8l7.5-6.8L323.3,272.8z M358.3,289.1l1.4-9.9l-28.2-12.9l8.9,19.6l-11.9,23l6,29.4l-5.6,5.4l0.1,0.2  l24.3,4.6l3.7-9.6l6.4-10.6l-6-16.5L358.3,289.1z"
     id="path795" /><path
     class="st27"
     d="M321.3,347l-2.9-0.8L321.3,347z M328.8,343.6l2.8-2.7l-7.3,7l-0.2-0.1l-4.5,11.8l-1.1,12.5l-6.2,11.5l-2.4-0.3  v0l24,3l6.7-15.6l2.4-13.3l1.6-10.7l-15.5-2.9L328.8,343.6z"
     id="path797" /><path
     class="st1"
     d="M321.3,347l-2.9-0.8L321.3,347z M328.8,343.6l2.8-2.7l-7.3,7l-0.2-0.1l-4.5,11.8l-1.1,12.5l-6.2,11.5l-2.4-0.3  v0l24,3l6.7-15.6l2.4-13.3l1.6-10.7l-15.5-2.9L328.8,343.6z"
     id="path799" /><polygon
     class="st23"
     points="359.8,361.4 360.1,358.3 359.3,358.5 352.5,352.9 352.5,348.2 353.3,348.3 344.4,346.7 342.8,357.4  340.4,370.7 333.8,386.3 356.3,389.1 366.7,378.4 "
     id="polygon801" /><polygon
     class="st1"
     points="359.8,361.4 360.1,358.3 359.3,358.5 352.5,352.9 352.5,348.2 353.3,348.3 344.4,346.7 342.8,357.4  340.4,370.7 333.8,386.3 356.3,389.1 366.7,378.4 "
     id="polygon803" /><polygon
     class="st25"
     points="377.3,325.4 372.3,310.3 376.3,292.8 379.6,274 362.2,280.3 356.9,277.9 359.7,279.2 358.3,289.1  357.4,311.6 363.4,328.1 357,338.7 353.3,348.3 352.5,348.2 352.5,352.9 359.3,358.5 396.1,349.5 380.1,338.7 "
     id="polygon805" /><polygon
     class="st1"
     points="377.3,325.4 372.3,310.3 376.3,292.8 379.6,274 362.2,280.3 356.9,277.9 359.7,279.2 358.3,289.1  357.4,311.6 363.4,328.1 357,338.7 353.3,348.3 352.5,348.2 352.5,352.9 359.3,358.5 396.1,349.5 380.1,338.7 "
     id="polygon807" /><polygon
     class="st27"
     points="471.5,195.8 442.8,213.1 414.4,234.3 395.8,268.1 379.6,274 376.3,292.8 372.3,310.3 377.3,325.4  377.9,328.3 413.1,329 421.6,331.3 431.3,322.2 433.5,312.6 454.8,298.1 457.7,275.9 470.4,243.3 491,206.6 "
     id="polygon809" /><path
     class="st26"
     d="M384.4,352.4L384.4,352.4l11.8-2.9L384.4,352.4z M432.6,345.5l-10.4-14.7l-0.6,0.5l-8.5-2.3l-35.2-0.8  l2.2,10.4l16,10.8l7.8,14.2l10.4,1.2L432.6,345.5z"
     id="path811" /><path
     class="st1"
     d="M384.4,352.4L384.4,352.4l11.8-2.9L384.4,352.4z M432.6,345.5l-10.4-14.7l-0.6,0.5l-8.5-2.3l-35.2-0.8l2.2,10.4  l16,10.8l7.8,14.2l10.4,1.2L432.6,345.5z"
     id="path813" /><path
     class="st25"
     d="M407.3,364l7,0.8L407.3,364z M466.2,358.6l-21.3-16.5l-12.6,3.1l0.2,0.3l-18.1,19.1l5.5,10.4l0,0.4l9.8-5.5  h10.6l9.2,7.9l15.1-7.6L466.2,358.6z"
     id="path815" /><path
     class="st1"
     d="M407.3,364l7,0.8L407.3,364z M466.2,358.6l-21.3-16.5l-12.6,3.1l0.2,0.3l-18.1,19.1l5.5,10.4l0,0.4l9.8-5.5  h10.6l9.2,7.9l15.1-7.6L466.2,358.6z"
     id="path817" /><polygon
     class="st25"
     points="419.9,375 414.4,364.6 414.3,364.8 403.9,363.6 402,360.1 404.2,364.2 396.1,376.7 392.9,386.3  387,393 381.6,392.3 390.3,393.4 417.4,400.3 "
     id="polygon819" /><polygon
     class="st1"
     points="419.9,375 414.4,364.6 414.3,364.8 403.9,363.6 402,360.1 404.2,364.2 396.1,376.7 392.9,386.3  387,393 381.6,392.3 390.3,393.4 417.4,400.3 "
     id="polygon821" /><path
     class="st24"
     d="M359,358.3l0.2,0.2L359,358.3z M404.2,364.2l-8.1-14.7l-36.9,9.1l0.8-0.2l-0.2,3l6.8,17l-10.3,10.8L387,393  l5.8-6.7l3.3-9.6L404.2,364.2z"
     id="path823" /><path
     class="st1"
     d="M359,358.3l0.2,0.2L359,358.3z M404.2,364.2l-8.1-14.7l-36.9,9.1l0.8-0.2l-0.2,3l6.8,17l-10.3,10.8L387,393  l5.8-6.7l3.3-9.6L404.2,364.2z"
     id="path825" /></svg>